<?xml version="1.0" encoding="UTF-8"?> <svg xmlns="http://www.w3.org/2000/svg" width="78" height="102" viewBox="0 0 78 102"> <defs> <style> .cls-1 { fill: #5f6370; fill-rule: evenodd; } </style> </defs> <path class="cls-1" d="M77.523,26.762a1.54,1.54,0,0,0,.065-2.178,1.551,1.551,0,0,0-1.127-.487H14.78V18.32l8.227-5.739a5.259,5.259,0,0,0,6.069.314L34.37,9.435A5.139,5.139,0,0,0,28.727.845L23.434,4.306a5.1,5.1,0,0,0-2.217,3.248,5.014,5.014,0,0,0,.1,2.406l-8.972,6.282a1.55,1.55,0,0,0-.652,1.287v6.63H1.544l-0.154,0a1.542,1.542,0,0,0-.941,2.628L11.688,38V87.2H7.394l-0.157,0a1.539,1.539,0,0,0-1.4,1.547v11.686a1.542,1.542,0,0,0,1.548,1.564l63.183-.033a1.546,1.546,0,0,0,1.546-1.543V88.741A1.546,1.546,0,0,0,70.568,87.2h-4.3V38ZM63.171,38.918V87.2H14.78V38.918H63.171ZM5.284,27.244H72.667l-8.608,8.588H13.892Zm63.737,63.04v8.589H8.929V90.284H69.021ZM23.807,8.092a2.48,2.48,0,0,1,1.077-1.578l5.294-3.461A2.512,2.512,0,0,1,32.059,2.7a2.493,2.493,0,0,1,.86,4.529l-5.293,3.461a2.509,2.509,0,0,1-3.462-.72A2.473,2.473,0,0,1,23.807,8.092Z"></path> </svg> 