<?xml version="1.0" encoding="UTF-8"?> <svg xmlns="http://www.w3.org/2000/svg" width="98" height="100" viewBox="0 0 98 100"> <defs> <style> .cls-1 { fill: #5f6370; fill-rule: evenodd; } </style> </defs> <path class="cls-1" d="M24.718,63.326H10.54A1.488,1.488,0,0,0,8.964,64.9v7.394a1.488,1.488,0,0,0,1.576,1.573H24.718a1.488,1.488,0,0,0,1.576-1.573V64.9A1.578,1.578,0,0,0,24.718,63.326Zm-1.575,7.551H12.115V66.63H23.143v4.248Zm1.575,7.08H10.54a1.488,1.488,0,0,0-1.576,1.573v7.394A1.488,1.488,0,0,0,10.54,88.5H24.718a1.488,1.488,0,0,0,1.576-1.573V79.531A1.578,1.578,0,0,0,24.718,77.958Zm-1.575,7.394H12.115V81.1H23.143v4.248ZM87.735,63.326H73.556A1.487,1.487,0,0,0,71.981,64.9v7.394a1.487,1.487,0,0,0,1.575,1.573H87.735a1.487,1.487,0,0,0,1.575-1.573V64.9A1.693,1.693,0,0,0,87.735,63.326Zm-1.576,7.551H75.131V66.63H86.159v4.248Zm1.576,7.08H73.556a1.487,1.487,0,0,0-1.575,1.573v7.394A1.487,1.487,0,0,0,73.556,88.5H87.735a1.487,1.487,0,0,0,1.575-1.573V79.531A1.693,1.693,0,0,0,87.735,77.958Zm-1.576,7.394H75.131V81.1H86.159v4.248ZM48.822,28.623a8.81,8.81,0,1,0,8.822,8.81A8.8,8.8,0,0,0,48.822,28.623Zm0,14.631a5.664,5.664,0,1,1,5.672-5.664A5.644,5.644,0,0,1,48.822,43.254ZM1.56,99.983H96.4a1.487,1.487,0,0,0,1.575-1.573V41.523A1.487,1.487,0,0,0,96.4,39.95H66.309V22.015a0.314,0.314,0,0,0-.157-0.315c0-.157-0.158-0.157-0.158-0.315s-0.158-.157-0.315-0.157a0.154,0.154,0,0,0-.157-0.157L50.555,11.946V9.429h7.562a1.487,1.487,0,0,0,1.575-1.573V1.563A1.487,1.487,0,0,0,58.117-.01H48.98A1.487,1.487,0,0,0,47.4,1.563V11.632L32.28,21.071l-0.157.157a0.154,0.154,0,0,0-.158.157,0.549,0.549,0,0,0-.157.315c0,0.157-.158.157-0.158,0.315V39.95H1.717A1.487,1.487,0,0,0,.142,41.523V98.41A1.37,1.37,0,0,0,1.56,99.983Zm1.576-3.146V55.053H31.493V96.836H3.135ZM48.822,14.621l10.24,6.293H38.739Zm4.884,75.136H44.1V72.294h9.61V89.757Zm1.575-20.609H42.52a1.487,1.487,0,0,0-1.575,1.573V89.757h-6.3V54.9H63V89.757H56.7V70.721A1.361,1.361,0,0,0,55.281,69.147ZM34.8,24.06H63.158V51.907H34.8V24.06Zm0,72.776V92.9H63.158v3.933H34.8Zm31.665,0V55.053H94.824V96.836H66.466ZM94.824,43.1v8.81H66.466V43.1H94.824ZM56.541,6.283H50.555V3.136h5.986V6.283ZM31.65,43.1v8.81H3.293V43.1H31.65Z"></path> </svg> 