<?xml version="1.0" encoding="UTF-8"?> <svg xmlns="http://www.w3.org/2000/svg" width="85" height="93" viewBox="0 0 85 93"> <defs> <style> .cls-1 { fill: #5f6370; fill-rule: evenodd; } </style> </defs> <path class="cls-1" d="M83.426,63.051H79.491V9.458a1.575,1.575,0,0,0-1.574-1.576H48.009V1.576A1.575,1.575,0,0,0,46.435,0h-7.87a1.574,1.574,0,0,0-1.574,1.576V7.881H7.083A1.574,1.574,0,0,0,5.509,9.458V63.051H1.574A1.575,1.575,0,0,0,0,64.627v7.881a1.575,1.575,0,0,0,1.574,1.576H31.888L22.25,90.629a1.576,1.576,0,1,0,2.721,1.589L35.535,74.085h5.391V91.424a1.574,1.574,0,1,0,3.148,0V74.085h5.391L60.029,92.218a1.575,1.575,0,1,0,2.72-1.589L53.111,74.085H83.426A1.575,1.575,0,0,0,85,72.508V64.627A1.575,1.575,0,0,0,83.426,63.051ZM40.139,3.153h4.723V7.881H40.139V3.153ZM8.657,11.034H76.343V63.051H8.657V11.034Zm73.195,59.9H3.148V66.2h78.7v4.729Z"></path> </svg> 