<?xml version="1.0" encoding="UTF-8"?> <svg xmlns="http://www.w3.org/2000/svg" xmlns:xlink="http://www.w3.org/1999/xlink" id="Layer_1" data-name="Layer 1" viewBox="0 0 2000 596"> <defs> <style>.cls-1{fill:none;}.cls-2,.cls-8{fill:#e8e8e8;}.cls-2{stroke:#fff;}.cls-2,.cls-6,.cls-7{stroke-linecap:round;stroke-linejoin:round;}.cls-3{clip-path:url(#clip-path);}.cls-4{clip-path:url(#clip-path-2);}.cls-5{clip-path:url(#clip-path-3);}.cls-6{fill:#fff;}.cls-6,.cls-7{stroke:#e8e8e8;}.cls-7{fill:#5599d3;}</style> <clipPath id="clip-path"> <rect class="cls-1" x="200" width="1600" height="596"></rect> </clipPath> <clipPath id="clip-path-2"> <rect class="cls-1" width="2000" height="596"></rect> </clipPath> <clipPath id="clip-path-3"> <rect class="cls-1" x="200" width="1800" height="596"></rect> </clipPath> </defs> <title>lift_map</title> <rect class="cls-2" x="738.35" width="275.25" height="75"></rect> <g id="South_East_STates" data-name="South East STates"> <g class="cls-3"> <path class="cls-2" d="M1516.2,52.4s-1.3,13.2.6,15.6,10.7,11.4,18.8,18.9,14.9,14.1,18.7,12.2,17.6,1,20.2-2.4S1589.6,79,1589.6,79s10.8,3.3,13.4,6.5,8.6,3.1,13.1,2.1,13.8-4.5,19.1-6.2,16-4.3,16.3-8a112.62,112.62,0,0,1,2.6-11.6s7.5,6.7,14.4,3.7,7.7-10.3,13-12,13,2.8,19.1,1.2,10.7-3.4,12.4-5.4,10.8-4.1,9.6-7.2a88.33,88.33,0,0,1-2.6-10.6s6.4-5.3,7.5-8.1-6.6-8.1-6.2-11.7,6.1-1.6,6.9-9.7,0.5-12.5,3.9-16.6,16.4-16.1,17.4-18.9,8.1-14,8.4-17.6-0.9-12.7,1.5-15.4,9.9-10.1,10.4-15.2,2.2-7.2,6.2-10.5,5-5.4,5.8-13.5,3.8-22.5,3.8-22.5,8.6-5,12.9-3.1,5.8,15.4,9.5,15.7,9.7,6.2,16.7,3.2,16.3-8,17.6-13,5-20.2,5-20.2,7.3-21.4,10-25.6,3.5-4.8,10.2-5.6,12.9,3.5,13.5-1.6,1.6-8,5.6-11.3,4.8-3.2,11.8-7,10.3-7.1,12.2-11.3,5.1-13.5,5.1-13.5,8.7-5.8,9.2-10.2,4.4-29.1,4.4-29.1,4.5-15.1,8.9-15.4,17,7.6,24.6,12.8,21.1,10.3,23.1,13.4,10.4,7,10.4,7,7.8-11.8,8.4-17.6,4.5-7.7,6.7-8.2h1.1c-4-5.5-7.5-9.5-7.5-9.5s-4.6-8.6-8.3-11.7-10.4-17.3-10.4-17.3l-6.6-2s-14.5-4.2-18.1-8.6-18.8-3.4-18.8-3.4l-8.5,11.1-7.3-.7-9.1,8.3s-2.6,7.1-9.3,10.1-17.9,3.7-19.4.8-9.7-13-9.7-13-3.6,7.9-5.7,10.5-7.9,13.9-7.9,13.9l-10.2.8s-10.1-.1-12.2,2.5-6.5,9.5-11.3,11.8-7.3,8.5-13.5,15.2-20.1,16.4-20.1,16.4l-4.1-81.4c-75.4,6.5-125.2,10.3-125.2,10.3l-12-140a40.61,40.61,0,0,1-7.2,2.4c-13.6,3.6-2.8,11.3,1,23.3s5.7,25.4-2,36.2-11.6,33.6-11.6,33.6-2.7,59.3-10.2,68.5-33.3,18.2-35.6,24.5-11.3,13.7-15.9,10-18.2-.2-23.7,5.9-3.3,16.2-11.7,17-8.7,4.1-9.7,13.9-11.7,17-11.7,17l5.1,15.4-8.2,15.7s-5.7-8.9-4.9-17-14.7-1.5-18.5,3.1-15.4,21.6-16.6,33.1,5.5,27,5.5,27-10.2,2.3-12.8,12-9.8,15.6-18.5,19.6c-4.9,2.3-8.6,5.6-11.3,6.7-0.4,6.6-1.5,15.4-4,19.8-4.5,7.7-5.9,21.6-.5,27.3s18.3,24,22.2,28.9,7.3,15.5,12,20.4,14,14.7,15.3,17.1,11.9,13.8,17.8,14.4c5.1,0.5,11,1.1,12.9,1.3h1.7Z"></path> </g> <g class="cls-4"> <path class="cls-2" d="M1683.8,214.5c3.5,2.2,21.7,27.2,285.9,1.1,192-19,263.8-67.7,296.9-71.5,2.7-3.3,6.8-22.1,5.1-25.2-1.8-3.3-9.1-29.9-9.1-29.9s-34-1.8-35.6-1.5-4.9,12.1-4.9,12.1-4.8-4.2-8.4-5.6-14.6,9.6-14.6,9.6,0.8-7.8.5-10.5-9.1-9.3-13.5-11.9-8.2-7.1-11.4-12.2-7.3-11.3-11.2-13.8-5.7-.6-8.8-1.4-10-5.2-12.7-4.4-7.9-.3-12.7-4.4-30.2-7.8-30.2-7.8,13.2-.3,20.2-2.2,13.2,5,16.3,5.3,7.2-3.5,10.2-2.1,10.7,8.4,14.4,8.8,9.6-1.1,12.6.2,3.6,10.9,6.5,13.8,17.1,18,21.3,18.5a21.6,21.6,0,0,0,12.8-1.9c4.4-2.2,8-6,8.3-9.7s-4.3-9.9-7-13.9-8.9-10.9-17.1-12.8-21.6-.1-28.4-15.5-17.4-20.2-17.4-20.2c11.5,0.6,24.9,18.8,26.8,21.1s10.4,6.3,17.2,7,4.8-5.8,4.8-5.8-6.7-6.5-3.2-9.8,3.6-4.4,10-.1,9.8,7.3,12.4,7,0.7-17.8.5-20.5-4.7-5.2-8.9-6.2-7.8-.8-9-5.1a13.64,13.64,0,0,0-7.5-9.2c-4-2-9.9-1-12.7-4.4s-8.2-7.7-11.5-11.7-15.1-12-19.9-16.7-13.8-14-22.8-24.9-27-19-27-19c13.6,0.3,29.1,14,33.8,19.7s18.9,16.1,24.3,19.8,26.2,22.1,29.1,25,13.6,0.3,13.6.3,8.9-9.6,5.8-15.7-5.2-11-1-11.2,5-8.4,4.2-10.1-12.4-7-15.9-9.5-20.7-8.4-24-12.4-16.5-9-20.6-10-20.2-3.1-22.6-5.4-7.5-9.2-11.9-12.2-12.4-12.3-15.7-11.1a121.66,121.66,0,0,1-12,4.1c-3.2.7-8.9-.4-13.5-1.9s-2.8-9.2-3.4-13,1.2-17.3,3.2-21.3,7.2-9.3,8.7-13.3c1.3-3.5,11.8-10.7,14.8-12.7,3-8.6-.8-20.7-2.3-24.6-1.8-4.6-8.3-5.3-14.5-10.3s-9.5-8.4-12.9-10.9-10.8-2.6-16.8-2.4-11-8.5-11.3-13-5.6-18.3-5.6-18.3-14.5-5.2-19.2-5.7l-2.6-.3a12.78,12.78,0,0,0-2.1.1c-2.3.5-5.2,2.2-5.8,8.1s-8.4,17.6-8.4,17.6-8.5-3.8-10.4-7-15.5-8.2-23.1-13.4-20.1-13.1-24.6-12.8-8.9,15.4-8.9,15.4-4,24.7-4.4,29.1-9.2,10.2-9.2,10.2-3.2,9.3-5.1,13.5-5.2,7.6-12.2,11.3-7.8,3.7-11.8,7-5.1,6.1-5.6,11.3-6.7.8-13.5,1.6-7.6,1.5-10.2,5.6-10,25.6-10,25.6-3.7,15.1-5,20.2-10.6,10-17.6,13-13-2.8-16.7-3.2-5.3-13.8-9.5-15.7-12.9,3.1-12.9,3.1-2.9,14.5-3.8,22.5-1.8,10.2-5.8,13.5-5.7,5.3-6.2,10.5-7.9,12.5-10.4,15.2-1.2,11.7-1.5,15.4-7.4,14.8-8.4,17.6-14.1,14.8-17.4,18.9-3.1,8.6-3.9,16.6-6.5,6-6.9,9.7,7.2,8.9,6.2,11.7-7.5,8.1-7.5,8.1a88.33,88.33,0,0,0,2.6,10.6c1.2,3.1-7.9,5.1-9.6,7.2s-6.3,3.8-12.4,5.4-13.8-2.9-19.1-1.2-6.1,9-13,12-14.4-3.7-14.4-3.7-2.3,7.9-2.6,11.6-11,6.3-16.3,8-14.6,5.2-19.1,6.2-10.5,1.2-13.1-2.1-13.4-6.5-13.4-6.5-12.5,14.3-15.1,17.7-16.3.6-20.2,2.4-10.6-4.8-18.7-12.2-16.8-16.5-18.8-18.9-1.2-14.2-1.2-14.2,0.4-1.4.1-1.4c-3.7,3-9,7.4-13.2,10.8-7,5.7-17.6,14.3-23.3,23.4s-19.5,17.4-32.6,19.3-19.3,15.8-19.3,15.8l-1.4,14.4-8.6,5.6s-6.2,13.9-17.9,17.5-17.2,11.2-17.2,11.2l-3,14.2-16.3,1.6s-8.3,2.4-23.3,7.3c-6.3,2.1-26.2,20-31,24.7C1331.4,217.4,1683,214,1683.8,214.5Z"></path> </g> <g class="cls-5"> <path class="cls-2" d="M1691.7,466.8c-10.3-6.5,0,0,.7-7.3s-7.6-15.4-15.6-27.2-16.3-1.6-16.3-1.6-6.2-11.6-11.6-12.2-141,.4-150.1-0.5-15.2,5.8-21.1,8.9-14.5-1.5-20.5,3.4-14.1,13.2-23.2,12.3c-7.6-.8-29.3,11.1-36.1,15-4.3,5.9-8.8,12-11.2,14.8-5.4,6.6-13.4,15.3-16.4,21s-8.3,11.1-1.7,16.5,16.4,2.8,19.3,9.1,9.1,16.4,14.8,18.2,14.3,0.2,19.9,3.2a28,28,0,0,1,13.8,16.9c2.7,8.6,5.9,24.4,12.5,29.8s15.9,19.5,19.7,29.4,20.1,12.7,27.9,18.3,9.3,14,13.5,19.2,10.5,14.1,13.7,18,12.5,6,16,6.4,4.8,11.2,9.5,11.7,10.5,2.2,9.8,9.3,3.3,14.6,6.6,17.3,5.9,12.5,12.7,15.6,13,13.2,17.6,14.9,16.7,11.2,16.7,11.2,5.2,7.7,5.5,16,14.7,7.4,12.6,16.7-6,12.5.2,21.5,5.4,17.2,12.5,17.9,13.8,16.9,17.2,18.4,8.4,11.5,8.6,21.1-4.4,19.8,1.2,23.9,13.6,7.3,18.3,7.8c2.2,0.2,10.1,2.3,17.9,4.5-1.7-3.4,1.8-5.6,3-8.1,1.3-3,4.8-11.6,6.5-12s2.5,1.3,7.1,2.3,8.3-4.4,9.5-5.9-0.5-5.8-6.4-10.1-9.4-11.5-13.5-17.1-4.8-14.7-2.6-16,2,0.7,5.3,5.3,5,12.6,8.2,12.9,5-12.6,5-12.6a23.69,23.69,0,0,1,1.8,8.1c0.1,4.2,5.5,7.9,9.8,12.5s6.9,4.4,11.4,1.7,4.1-9.6,2.3-12.4,5.7-4.2,5.5-7.3-7.2-6.5-11.8-8-11.9-2.2-15.7-6.3,6.7-3.5,10.9-4.1,14.2-.2,19.5-0.7a93.68,93.68,0,0,0,20-4.8,8.69,8.69,0,0,0,5.5-7.8,25.53,25.53,0,0,0,11.8-2c5.5-2.6,12.9-7.6,18.1-7.1s7.1-7.7,9.6-11.6-0.3-7.4-4.2-10.9-2.8-9.2-.7-9,5.6,1.6,5.8,4.8,10.7,3.2,14.9,3.1,6.1-8.9,6.9-11.4,7-6.7,11.4-8.9,1.4-8.8.2-12.6,3.8-6.5,6.6-8.3,7.9-.3,14.5,2.5,6.4-.9,8.4-4.9a60.12,60.12,0,0,1,7.4-10.8c2.4-2.9-2.7-9.2-2.7-9.2s7.7,1.8,12.6.2-0.9-6.4-7.8-21.3,1.1-20.9,1.1-20.9a106.22,106.22,0,0,0,2.4,12.3c1.6,5.4,10.5,5.3,10.8,2.7s2.2-21.4,4.4-23.2,12.6-15,19-26.5,19.5-21.2,29-31.8c4.2-4.7,11.2-9.6,18.9-13.8l-156.6-138C1829.9,458.7,1702.1,473.3,1691.7,466.8Z"></path> </g> <g class="cls-5"> <path class="cls-2" d="M1398,457.7c6.9-3.9,28.5-15.8,36.1-15,9,0.9,17.2-7.4,23.2-12.3s14.7-.4,20.5-3.4,12-9.8,21.1-8.9,144.7-.1,150.1.5,11.6,12.2,11.6,12.2,8.4-10.1,16.3,1.6,16.3,20,15.6,27.2-11.1.7-.7,7.3,138.1-8.1,138.1-8.1l156.6,138c9.6-5.2,20.3-9.2,27.7-9.9,13.3-1.3,35.3-.7,38.6-1.4s8.8-8.6,9.7-12.7-1-26.4-1-26.4,5.4,9.5,9,9.9,1.4-8.3,1.7-11.9a59.44,59.44,0,0,1,4.7-15.3c2-4,6-13.1,7.5-17.1s23.1-15.6,30.6-21.1,11.1-6.2,9.9-9.5-6.9-4.4-4.4-8.9,0.7-12.6.7-12.6c4.6,1,4.5,7.3,5.3,10s8.6,3,11.4,2.2,7-12.5,10.6-16.8,9.2-8,14.9-7.4,5.2,5.8,10.6,4.2,5.3-5.8,9.3-8.5,12.4,1.8,15.9-1,5.4-11.6,5.4-11.6l8,4.5,3.3-6.5s8.7,8.2,12.8,8.7,5.9-6.3,7.5-11.9,6.2-9.4,9.7-13.2,10.2-7.4,11.1-10.5,0.8-13.1-3.4-13.5-3.1,4.4-6.2,9.4-7.7,2.9-9.3-1.5,0.3-13.6.3-13.6-7.8,4.5-10.3,7.9a19.32,19.32,0,0,1-12.3,7.2c-4.8.6-6.6,2.5-11.6,5.1s-7.3,5-12.6,4.5a68.38,68.38,0,0,1-17.5-3.9c-5.6-2.1-9.7-13.1-13-17.1s-10.2-8.9-10.2-8.9,10.7,3.2,18.1,8.1,16.2,11.6,20.9,12.1a22.22,22.22,0,0,0,17.3-5.1c6.3-5.2,12.4-18.7,10.5-21s-2.7-5,.6-11,16.1-13.6-14.7-20.9-46.5-18.9-46.5-18.9c3,1.4,17.9,5,20.9,6.3s9.8,1.5,14.4,3,12,0.7,13.2-.8,1.1-5.7.7-12,8.6-12.8,8.6-12.8c-4.2,5.4-1,9.9-1,9.9s2.2,9.2,6.1,12.2,10-5.3,10-5.3,5.6,6.9,10.3,7.4,15.9,4.2,21.1,4.8,8-.8,12-4.6,9.2-12.7,11.1-16.8,6.7-14.1,9.6-16.9a18.49,18.49,0,0,1,10-5.3c3.8-.7,9.7-2.7,12.8-6.6s-5.6-12.1-5.4-14.2-0.1-14.7-2.7-20.3-6.5-13.3-10.4-12.1-2.4,8.2-6.1,8.3-11.1.5-12.1,5.1,1.4,7,1.9,12.8-1.5,9.8-4.1,14.8-9.1,6.5-8.8,3.3,4.8-6.3,3.1-9.7-8.3-6.1-7.1-7.6,6-12.5,6.6-18.8-6.7-12.3-11.9-12.8-10.2,2.1-12.5,4-4.9,6.9-9.2,7.5-7.1-2.8-14-1.9a84.52,84.52,0,0,0-18.4,5c-4.4,1.7-14.7.1-14.3-4.6s8.3-1-10.4-16.8c-15.5-13.1-3.7-31.4-3.7-31.4s2.1,16,4.2,20.9,15.5,13.7,19.5,15.1,11.5,0.6,16.5-1.5,4.3-16.4,6.9-16.7,10.4-4.2,12.6-4.5,11.9,2.3,16.6,2.2,4.6-3.7,3.9-7.5-19.4-16.2-19.4-16.2a147.77,147.77,0,0,1,15.6,1.6c5.7,1.1,22.2,14.9,22.5,11.7s-5-17.9-5-17.9c4.6,1,24.2,31.4,23.9,29.2s-7.9-25.5-9.6-29.9-13-17.1-17.7-22.8-4.5-10.7-1.8-11.5c0.2-.1-0.9,28.3-0.7,28.1-33.1,3.9-109.7.8-301.6,19.8-264.3,26.1-399.8,18.1-402,18.3-5.4,27.8-9,22-14.6,26.5-6.1,5-13.6,4.3-16.6,15.3s-15.3,21-15.3,21a99.27,99.27,0,0,0-16.6-3.5c-7.5-.8-15.7,5.9-21.8,11s-19.4,24.4-26.1,16.2-14.4-7.1-14.4-7.1l-12.9,15.6-7.4-.7s-8,23.7-14.4,30.6-20.5-2.1-31,8.2-17.9,9.5-24,14.5-12.7,13.8-20.1,13-14.5-5.2-32.4,4.3-25.8,10.7-26.5,18.2-22.8,12.2-22.8,12.2-20,15.3-26.6,24.1c-4.2,5.6,12.1,21.4,11.7,31.6,123.7-2.6,165.4-4.4,165.4-4.4a28.1,28.1,0,0,0,2.6-1.4h0Z"></path> </g> <g class="cls-4"> <path class="cls-2" d="M627.2,286.5s-29.8-51.1-28.7-48.3c2.7,0.1-5.1-7.9-1.9-7.8,2.6-10-5.7-15,2.1-14.2,8.4,0.8,20.9-2.8,20.9-2.8s8.9-3.9,5.9-10.3,4.7-10.4,4.7-10.4,3.3-20.3,3.9-26.3c0.4-4.1-3-9.6-7.4-12.9h0.1a13.76,13.76,0,0,0-6.8-3c-7.2-.7-12.1,0-15.2-5.2s-12.2-23-16.2-31.9,8.6-13.7,10.2-17.1-10.9-24.1-10.9-24.1-2.1-14.8-2.7-20.9-13.1-14.6-19.3-25S556.6,10.8,548,11.2s-7.3.5-16.3-6.5-36.2-37.6-40.4-44.1-5.4-18.7-3.3-27,10.9-24.3,13.9-30.1,13.3-24.1,14.3-33.7-3.2-16.1-8.7-21.5-30.3-11.5-30.3-11.5-14.3-2.6-7.8,5.3,6.2,10.3-2.2,9.5S442-163.1,447.7-171s-0.9-26.8-1.7-31.7-2.6-10-15.1-18.5-22.7-15.6-23.3-21.7-1.3-11-1.3-11-15.5-14.9-22.2-20.4-12-13.3-13.7-20.8-5.5-41.8-9.7-48.2-1.5-32.9,1.6-39.8c1.2-2.8,4.7-4.6,8.4-6.2L337-427.5c-177.1,2.1-417.8-23.8-472.5-29.9a22.47,22.47,0,0,0-1.1,10.1c0.8,7.1,4.7,7.5,5.7,13.9s5.3,9.1,7,15.6,11.3,12.1,16,19.6,0.7,8.7,3.5,12.1-1.9,11.5,2,19,13.6,12.3,19.5,16.1,8.8,14.2,12.6,15.4,8.8-2.2,8.8-2.2,14.3,5.3,19.4,9.8,1.5,8.8-1.5,14.7-10.8-1.9-11.9,1.9-8.7,16.3-14.8,22.8,6.9,17.1,11.9,22.3,10.2,7.3,9.6,13.5,0.5,11,4.6,16.1,6.5,13.2,13.4,14.7,11.5,9.8,11.5,9.8S-35.2,1-43.8,116.5l-0.7,6.7c-2.6,35.1-4.5,60.6-4.9,67.3-0.2,2.4-.3,6.2-0.4,10.8,37.1,2.8,158.5,11.5,287.9,16.7,155.5,6.2,245,10.5,255.9,11.6s20.4,16.3,19.3,27.2-8.3,19.7-20,26.4-20.8,18.4-13.3,22.3,10.6,4.2,24.8,4.1c9.4-.1,36,0.2,52.9.3C556.4,306.1,627.2,286.5,627.2,286.5Z"></path> </g> <g class="cls-4"> <path class="cls-2" d="M726.7,757.8c5.3-34.3,35.5-261.9,34.3-267.5-0.8-3.4-12.7-24.6-17.4-32.5-135.8-1.1-231.2,6.5-262.6,5.5,1,2,3.6,7.8,3.2,11.7-0.5,4.8-7.1,10.2-7.1,10.2L460,487l1.6,8.6s-9.3-3.4-17,.7,4.3,17.4,4.3,17.4l-11.2,2.5a62.24,62.24,0,0,0,9.6,13.1c5.5,5.4-2.1,8.3-4.9,12.8s-3.2,8.2-9,17.3-13.3-.1-13.3-0.1l-11.3,15.8a102.85,102.85,0,0,0-13.2,10.8c-5.4,5.5,2.1,26.9,2.1,26.9l-19,7.8-2.3,22.8s-7.9,6.5-11.9,9.7,3.7,11.3,3.7,11.3L350,665l9.3,15.4-9.4,8.8,8.5,11.8s-2,8.3,2.6,10-1.1,10.8-.4,15.7,11,22.9,11,22.9-13-3.7-15.5,9.3c-1.2,6-4.5,11.2-7.8,15.1l3.8,0.2s-6.2,1.8-2.4,11.9,10-2.6,13.3.1-7.7,16.2-7.7,16.2,3.5,13.7,6.9,15.2-1.2,12-4.9,12.8-4.3,6.8,1.7,7.4,10.2,7.1,10.2,7.1l-7.8,5.3,3.9,8.9s-3.6,11.8,2.3,13.6,14.7,10,14.7,10-1.3,13.2-7.5,13.8-26.3,8.3-26.3,8.3l20,5.7s-1.4,14.4-9.8,13.6,3.9,8.9-6,11.5-12.4,14.5-19.9,17.4-13,8.4-10.9,12.2,4.8,12.6-2.8,15.5-6,11.5-10.3,18.3-11.3,15.8-10.5,19.6,3.5,13.7-2.9,16.7-12.5,15.7-12.5,15.7,4.4,4.1,2.4,12.4-3.9,14.2.7,17-3.2,8.2-3.2,8.2l251.1,9.5s-1.2,24.1-9.1,30.6-4.6,21.3,1.4,34.1,16.4,29.7,17.6,29.8,3.4,14.7,4.1,19.6c0.5,3.4,7.2,9.2,16.4,12.9,4.3-.2,3-2.6,5-3s3.6-4.4,5.1-5.9,6.8-3.8,9.8-5.4,5.4-6.5,8.8-8.4,11.4,1.5,14.5,1.5,5.2-4.4,7.5-4.2,4.7,0.5,6.5-4,13.1,0.4,15.7,0,4.6-4.9,6.9-5.4,7.6,0.4,11.4,1.1,5.9,5.1,8.6,6.6,6.4,2.9,12.5,3.2,5.2-4.3,10-4.4,5,1.1,7.6,3.6,8.1,2.4,12.2,2.8,3.6-1.5,4.3-4.7c0.1-.7,1.6-1,3.7-1.2-3-52-11.4-204.8-10.1-218.3C706.1,962.6,721.4,792.1,726.7,757.8Z"></path> </g> <g class="cls-4"> <path class="cls-2" d="M1501.5,50.9c-5.9-.6-16.5-12-17.8-14.4s-10.6-12.2-15.3-17.1-8-15.6-12-20.4-16.9-23.1-22.2-28.9-3.9-19.6.5-27.3c2.6-4.4,3.6-13.2,4-19.8-2.1.9-3.6,0.5-4.8-2.5-2.6-6.9-18.3-24.3-23.1-26.4s-13.9-9.7-14.6-19.7-9.7-2.6-16.4-1.7-16.2,13.3-21.6,17.7-13.3.3-22.4-7.2-19-8.5-22.8-4-17.5,9.8-25.1,2.4-25-14.1-25-14.1-21.1-3.8-27.7-4.4-6.2-20.5-13.7-27.9-23.4-13.9-28.3-14.4c-3.8-.4-21.3-1.2-31.9.5v0.2c-0.6.1-1.2,0.2-1.7,0.3l-6.7,3.5c-3,4.7,3.4,12.2.2,16.2-3.8,4.6,5.7,8.9,5.7,8.9s3.9,10.3,3.4,15.2-12,3.8-19.8,6.3-25.1,12.4-25.1,12.4l-5.9-7.2s-13.3.3-21.5-.5-7.9,12.4-.5,21.5-3.1,14.6-5.3,19.3-17.4,8.2-17.4,8.2-4.4,11.1-8.5,19-14.3,10.1-20.8,9.5-8.2,15.7-7.4,24.1-7.9,12.4-16.7,18.2-16.4-1.7-20.5-10.3-6.7-15.6-16.5-16.6-7.5,9.2-14.7,15.1-12.2,21.9-13,30.1-12.9-3-12.9-3S921.8,2,905.2,2s-16.9,19.8-24.4,29-9.3-5.9-13.6-12.9-15.7-8.2-23.9-9-16.1-4.9-21.2,12.8-7.4-9-12.6-6.2c-4.2,2.2-8.9-2-15-2.4l-9.6,5c-0.1.5-.6,4.6-1.1,8.3-0.1,1.2-.1,2.4-0.3,3.7h-0.2a24.37,24.37,0,0,1-.4,2.6c-2.5,8-11.6.5-11.6,0.5s-10.8,8.8-13.6,20.1,5.1,15.4,4.4,22-13.3.3-20.3,4.6-10.8,8.8-24.1,9.2-8.4,17.4,2.3,26.7-0.4,19.8-4.3,26-22.6-5.6-44.7-16.1-21-5.4-29.8.3c-6.3,4.1-12,19-14.8,27.4,4.4,3.4,7.8,8.9,7.4,12.9-0.6,6-3.9,26.3-3.9,26.3s-7.7,4.1-4.7,10.4-5.9,10.3-5.9,10.3-12.5,3.6-20.9,2.8c-7.8-.8.5,4.2-2.1,14.2,51.6,2.5,165.5,7.7,170.1,5.2,6-3.2.9-26.2,0.9-26.2s17.2-4,26.2.7,73,3.6,95.8,2.1,90.6-2.2,105.5-.7,69,5.2,119.6,6.6,146.9,0.5,161.8,2,26.5,0.5,32.1.3c4.8-4.7,24.7-25.1,31-27.2,15-4.9,23.3-7.3,23.3-7.3l16.3-1.6,3-14.2s5.6-7.5,17.2-11.2,17.9-17.5,17.9-17.5l8.6-5.6,1.4-14.4s6.2-13.9,19.3-15.8,26.8-10.2,32.6-19.3,16.3-17.7,23.3-23.4c4.2-3.4,8.4-7.9,12.1-11C1512.8,52,1506.6,51.4,1501.5,50.9Z"></path> </g> <g class="cls-4"> <path class="cls-2" d="M370.7-389.3c-3.7,1.6-7.2,3.4-8.4,6.2-3.1,7-5.8,33.3-1.6,39.8s8,40.8,9.7,48.2,6.9,15.2,13.7,20.8,22.2,20.4,22.2,20.4,0.7,4.9,1.3,11,10.8,13.2,23.3,21.7,14.4,13.6,15.1,18.5,7.3,23.8,1.7,31.7,11.1,21.7,19.5,22.6,8.6-1.6,2.2-9.5,7.8-5.3,7.8-5.3,24.8,6.1,30.3,11.5,9.7,11.9,8.7,21.5-11.3,27.9-14.3,33.7S490-74.7,488-66.4s-0.9,20.5,3.3,27S522.7-2.3,531.7,4.7s7.8,6.8,16.3,6.5,11.6,4.8,17.9,15.1,18.7,18.8,19.3,25,2.7,20.9,2.7,20.9,12.5,20.6,10.9,24.1-14.2,8.3-10.2,17.1,13.1,26.8,16.2,31.9,8,4.4,15.2,5.2a13.76,13.76,0,0,1,6.8,3c2.8-8.3,8.5-23.3,14.8-27.4,8.9-5.7,7.7-10.8,29.8-.3S712,148.1,716,141.9s14.9-16.7,4.3-26S704.7,89.5,718,89.2s17-4.9,24.1-9.2,19.7,2,20.3-4.6-7.2-10.7-4.4-22,13.6-20.1,13.6-20.1,9.2,7.5,11.6-.5a24.37,24.37,0,0,0,.6-2.6c-8.6-1.9-20.3-5.7-19.6-13.1,1.2-11.5,7.2-22.6,7.9-29.2s2.2-21.4,4.5-27.8,13.3-17,22.6-26,15.5-21.7,18-29.8,6.3-12.7,11.9-18.8,9.6-12.4,5.1-17.8-3.4-15.3-3.4-15.3l-9.5-20.9s-4.9-17.1-2.8-21.9,6.6-16,6.6-16l5.9-9.4,3.7-380.6c-2.3-4.7-4.9-10.3-8.1-14.2-5.9-7.3-6-15.9-5.5-20.6s-2.5-12.7-7.7-17.9S807.3-664,802-668.4s-4-16.6-2.2-25c1.3-6.1,2.6-12.1,2.7-17.6-99.5-.8-278.8-8.8-328.4-11,2.4,7,9.9,13.5,17.6,17.3,9.2,4.6,12.9,15.8,15.7,24.6s0,0,7.7,8,11.4,19.3,17,23.5-4.5,20.1-4.5,20.1l-3.1,19.1-14.6,13.1s-4.5,20.2-4.9,24.9-8.8,2.8-16,2-16.2,4.4-21.5,8.7-22.4,6.2-29.7,5.5-13.5,2.3-14.3,9.5-6.6,17.5-6.1,24.8,1.7,7.4,6.1,11.5,11.6,16.9,11.6,16.9l-1.4,14.4s-13.4,13.2-16.3,17.7-3.7,13-4.4,20.2S393.8-430,393.8-430s-18,10.3-17.3,15.2,5.2,9,5.6,16.3c0.1,4.7-5.9,6.7-11.4,9.2h0Z"></path> </g> <g class="cls-4"> <path class="cls-2" d="M1168.7,1096c2.6,7.5,6.2,16.3,10.6,22.6,7.1,10.1-.7,20.1,7.3,20.9s331.8,6.5,338.4,7.2,19.9,3.4,20,15.5,5.9,22.1,12.8,20.1,9.7-16.5,11.7-23.1,4.4-17.1-2.9-24.5-4.5-22,7.9-24.8,28.9,7,28.9,7,19.1,5.5,38,5.1a5.47,5.47,0,0,1-1.4-2.5c-1.1-4.8.3-8.4-2.4-12.4s-4.1-6.2-3.4-13,3.5-8.6,3.9-12.2,3.4-7.6,4.6-14.3-5.3-10.5-6-13.2,10.1-1.1,11.5-4.1,14-13.8,13.8-16.5a7.94,7.94,0,0,0-7.2-7c-4.7-.5-11.9-7.5-11.9-7.5s11,0.1,11.3-2,8-6,12-9.8,2-9.3.4-9.4-6.6-8-3.6-11.4,2.4-7.7,8.6-7,7.8-9.2,1.7-11.9-8.5-4-7.9-5.5,13.8-6,15-8.5-3.4-8.2-7.3-11.3,3.4-12.8,7.5-11.3,6.9,4.9,9.4,5.7,5.9-1.5,8.1-7.1,4.5-3.2,9.1-7,6.7-9.3,1.4-14a11.38,11.38,0,0,1-1.9-2.3c-7.8-2.2-15.7-4.2-17.9-4.5-4.7-.5-12.7-3.7-18.3-7.8s-0.9-14.4-1.2-23.9-5.2-19.6-8.6-21.1-10.1-17.7-17.2-18.4-6.2-9-12.5-17.9-2.4-12.1-.2-21.5-12.3-8.4-12.6-16.7-5.5-16-5.5-16-12.1-9.6-16.7-11.2-10.7-11.8-17.6-14.9-9.4-12.9-12.7-15.6-7.3-10.3-6.6-17.3-5.1-8.8-9.8-9.3-6-11.3-9.5-11.7-12.8-2.5-16-6.4-9.4-12.8-13.7-18-5.8-13.7-13.5-19.2-24.2-8.4-27.9-18.3-13.1-23.9-19.7-29.4-9.8-21.2-12.5-29.8a28,28,0,0,0-13.8-16.9c-5.7-3-14.1-1.4-19.9-3.2s-11.9-11.9-14.8-18.2-12.7-3.7-19.3-9.1-1.3-10.8,1.7-16.5,11-14.4,16.4-21c2.4-2.9,6.9-8.9,11.2-14.8a20.81,20.81,0,0,1-2.2,1.2s-36,1.7-159.7,4.4l0.5,1.1c-43.9.9-99.3,0.9-167.6,2,8,30.2,28.8,110.8,39,169.8,12.7,74,26,142.6,26.7,149.4s6.2,31.6,9.6,38.6,7.6,18.3,9.7,23.9,17.7,11.2,15.8,16.4-7.7,23.4-7.7,23.4,12.5,9.3,10.7,14.5-14.5,10.7-15.2,17.3-3.5,21.2-5.3,26.4a90.83,90.83,0,0,0-4.8,21c-0.8,8,4.8,19.3,7,23.6a41.22,41.22,0,0,1,4,27.3c-2.7,13.2-3.8,37.3-4.6,45.3s9.3,14.4,11.3,21.3c0.8,2.7,2,6.7,3.5,11.2h0Z"></path> </g> <g class="cls-4"> <path class="cls-2" d="M481,463.2c-0.2-.5,65.9-0.8,65.9-0.8S625.8,314.1,624,309.6c-16.9-.2-109.8-0.4-119.2-0.3-14.2.1-17.3-.2-24.8-4.1s1.6-15.6,13.3-22.3,18.9-15.4,20-26.4-8.4-26.1-19.3-27.2-100.4-5.4-255.9-11.6C108.7,212.5-12.6,203.8-49.8,201c-0.4,15.9-.3,41.3,1.4,52.9,2.2,15,2.9,53.8,2.9,53.8s3.7,64,2.2,87.8c-1.2,20.2-19.4,201.1-24.8,255.1,3,3.3,7,8.4,8.7,10.1,2.2,2.3.7,6.7,5.4,5.1s4.8-6.2,9.4-6.1,19.1,5,23.6,5.9,9.6,5.5,9.6,5.5L-17,752.3,348.5,774c3.3-3.9,6.6-9.2,7.8-15.1,2.5-13.1,15.5-9.3,15.5-9.3s-10.3-18-11-22.9,5-14,.4-15.7-2.6-10-2.6-10l-8.5-11.8,9.4-8.8L350.2,665l18.2-.6s-7.7-8-3.7-11.3,11.9-9.7,11.9-9.7l2.3-22.8,19-7.8s-7.5-21.4-2.1-26.9A102.85,102.85,0,0,1,409,575.1l11.3-15.8s7.6,9.2,13.3.1,6.1-12.7,9-17.3,10.4-7.4,4.9-12.8a62.24,62.24,0,0,1-9.6-13.1l11.2-2.5s-12-13.3-4.3-17.4,17-.7,17-0.7L460,487l17.2-1.9s6.6-5.4,7.1-10.2c0.3-3.9-2.3-9.7-3.3-11.7h0Z"></path> </g> <g class="cls-4"> <path class="cls-2" d="M845.2,1175.1c-4.8-5.9-7.5-6.1-4.1-12.5s5.1-10.3-3.7-16.5-21.8-23.7-20.9-33.1,2.9-15.9,43.3-15.8c35.2,0,253.4-.9,308.9-1.2-1.6-4.5-2.8-8.5-3.5-11.1-2-6.9-12.1-13.3-11.3-21.3s1.9-32.1,4.6-45.3a39.87,39.87,0,0,0-4-27.3c-2.3-4.3-7.8-15.6-7-23.6a90.83,90.83,0,0,1,4.8-21c1.9-5.2,4.7-19.7,5.3-26.4s13.3-12.1,15.2-17.3-10.7-14.5-10.7-14.5,5.9-18.2,7.7-23.4-13.7-10.8-15.8-16.4-6.4-16.8-9.7-23.9-8.9-31.8-9.6-38.6-13.9-75.4-26.7-149.4c-10.2-59-35.3-152.3-43.3-182.5-14.6.2-31.7,3.5-47.6,3.8-98.8,1.5-192.3.7-273.6,0.1,4.7,7.9,16.6,29.1,17.4,32.5,1.3,5.6-29,233.3-34.3,267.5S706,962.7,704.3,979c-1.4,13.5,7.1,166.3,10.1,218.3,7.3-.6,22.8,1.4,22.8,1.4l14.5,2.1,2.2-24.7s2-23.1,3.7-27.4,9.8-1.9,13.4.1,7.2,14.1,6.7,19.5-3.2,6.7-3.8,15,7,12.5,10.3,15.4,9.5,7.3,8.5,10.4-12.2,7.2-8.8,7.6,17.1,1.7,17.1,1.7,15.8,1.6,17.7-4.4,1.4-7.8,1.4-7.8,9.6,0,12.5-3.5,7.8-11,8.7-13.8a8.91,8.91,0,0,1,3.5-4.1C846.1,1180.2,846.5,1176.7,845.2,1175.1Z"></path> </g> </g> <g id="Tennessee"> <g id="TN_Counties" data-name="TN Counties"> <polygon class="cls-6" points="765.7 230.1 766.6 223.5 765.9 216.5 762.1 201.1 787.3 202.8 789.5 207.2 809.6 206.7 816.3 206.6 822.7 250 808.8 250.2 799.7 255.4 792.4 256.2 783.9 255.1 779 252.6 773 252.7 772.1 251.1 764.7 239 764.4 237.7 766.2 234.6 765 232.4 765.7 230.1"></polygon> <polygon class="cls-6" points="928.3 245.7 925.5 247.3 925.2 251.8 920.3 253.7 910.6 247.5 908.1 248.1 900.6 251 881.2 235.7 882.6 223.1 879.6 219.5 881.4 216.8 882.8 205.6 888.4 205.7 925.9 205.5 958.6 205 953.8 206.8 951.9 208.9 951.8 211 943.5 223.7 941.7 232.8 936 241.2 929.9 242.1 928.3 245.7"></polygon> <polygon class="cls-6" points="988.1 253.8 986.6 254.4 986 259.2 983.3 258.6 978.5 260.6 980.1 254.8 979.5 253.8 976.4 253.3 974.8 260.4 973.3 260.4 968.3 256.1 960.3 260.1 959.6 263.9 958.4 264.5 956.6 263.3 955.6 258.7 954.4 258.5 953.1 260.5 951.9 268.5 949.7 269.8 945.5 270 944.2 268.9 938.1 257.1 928.3 245.7 929.9 242.1 936 241.2 941.7 232.8 943.5 223.7 951.8 211 951.9 208.9 953.8 206.8 958.6 205 970.6 205.7 997.9 206.9 994.9 225.1 997.2 225.9 996.1 230.4 993.5 230.4 992.9 232.6 994.4 232.7 994 236.4 990.6 236.5 989.6 250.4 987.8 252.1 988.1 253.8"></polygon> <polygon class="cls-6" points="832.4 254.8 823 253.4 822.7 250 816.3 206.6 853.3 206 882.8 205.6 881.4 216.8 879.6 219.5 882.6 223.1 881.2 235.7 877.4 237.6 878.6 241.6 876.5 242.4 874.6 240.2 873.4 242.6 865.6 248.6 864 252.5 862.4 252.6 861.6 257.5 851.3 257.7 832.4 254.8"></polygon> <polygon class="cls-6" points="1026.2 241.1 1003.5 238.7 1000 232.3 996.2 231.5 996.1 230.4 997.2 225.9 994.9 225.1 997.9 206.9 1025.4 208.5 1050 209.5 1047.4 228.6 1045.4 242.7 1026.2 241.1"></polygon> <polygon class="cls-6" points="1047.4 228.6 1050 209.5 1093.8 210.9 1111.1 209.6 1114.6 209.7 1113 223 1101.4 227.4 1101.7 230.6 1098.7 230.2 1098.2 227.7 1093.2 230.1 1090.1 233.2 1087.3 238.4 1087.4 243.5 1083.3 240.9 1078.8 234.4 1062.2 229.2 1060 226.1 1057.1 227 1058.9 229.1 1055 229.5 1051.6 227.4 1047.4 228.6"></polygon> <polygon class="cls-6" points="1182.9 225.2 1175.7 224.8 1167.8 219 1162.2 217.2 1155.9 216.3 1146.7 219.8 1143.6 225.6 1141.6 225.6 1138.8 229.5 1137.2 242.8 1135.2 243.4 1132.6 243.1 1130.9 236.2 1123.5 227.2 1113 223 1114.6 209.7 1149.1 210.4 1175.2 212.9 1176.4 212.9 1182.9 225.2"></polygon> <polygon class="cls-6" points="1559.4 246.6 1559.5 251.3 1563.4 255.7 1560.7 256.4 1548.1 255.6 1537.9 262.5 1535.2 266.8 1533.7 266.6 1527.2 260.3 1527.1 256.4 1522.9 253.4 1520.7 249.4 1533.2 234 1528.5 229 1537.4 217.9 1548.3 211.9 1570.5 212.5 1568.3 215.4 1564.2 226.5 1564.8 234 1559.4 246.6"></polygon> <polygon class="cls-6" points="1227.6 273.6 1223.4 280.7 1219.1 281.7 1215.3 275.1 1205.2 270.3 1202.6 271.5 1202.9 265.8 1200 263.7 1198 265 1187.5 250 1189.4 246.9 1192.5 245.9 1188.1 239.3 1182.9 225.2 1176.4 212.9 1242.5 214.5 1242.8 214.5 1242.4 217.7 1243.9 223.7 1242.1 227.9 1238.5 229.2 1235.2 228.1 1233.5 228.7 1231.2 236.6 1232 243.6 1235.1 246.9 1233.8 251.1 1234.1 263.7 1228.3 266.1 1227.6 273.6"></polygon> <polygon class="cls-6" points="1366.2 246.3 1363.5 247.3 1360.2 244 1357.2 243 1354.3 243.6 1353.4 242.2 1354.9 235.6 1352.8 228.3 1349 220.6 1342.3 213.9 1366.1 213.7 1369.5 215.3 1374.2 215.6 1402.5 215.1 1419.7 215.2 1407.1 222.5 1405.3 221.1 1403.3 222 1401.7 219.2 1392 223.5 1385.9 227.6 1378 238.1 1375.7 237.8 1376.3 242 1366.2 246.3"></polygon> <polygon class="cls-6" points="1342.3 213.9 1349 220.6 1352.8 228.3 1354.9 235.6 1353.4 242.2 1351.5 243.3 1350.1 241.8 1345.2 245.1 1343.3 247.9 1343.8 250.1 1342.9 251 1339.3 249.5 1338.4 249.9 1338.5 251.7 1336.5 250.7 1335.6 252.4 1334.5 251.5 1332.6 252.6 1328.9 250.9 1318 256.6 1316 254.8 1313.9 251.8 1312 252 1311.2 254.2 1307.8 254.8 1306.8 248.9 1302.1 244.6 1302.3 242.6 1299.5 241.3 1295.7 241.8 1294 239.8 1288.1 242.1 1287.1 241.4 1284.2 240.5 1283.1 237.1 1283.7 235.4 1274 215 1282.9 215.1 1313.2 216.2 1315.8 214 1342.3 213.9"></polygon> <polygon class="cls-6" points="1227.6 273.6 1228.3 266.1 1234.1 263.7 1233.8 251.1 1235.1 246.9 1232 243.6 1231.2 236.6 1233.5 228.7 1235.2 228.1 1238.5 229.2 1242.1 227.9 1243.9 223.7 1242.4 217.7 1242.8 214.5 1274 215 1283.7 235.4 1283.1 237.1 1284.2 240.5 1287.1 241.4 1287 245.9 1281.5 246.1 1279.5 247.5 1278.9 264.7 1278 265.1 1276.8 263.9 1272.8 265.6 1271 262.4 1265.1 273.1 1263.4 273.1 1260.5 270.8 1246.8 270.1 1245.3 280.4 1241.6 278.2 1237.3 273.6 1233.5 275 1227.6 273.6"></polygon> <polygon class="cls-6" points="1135.2 243.4 1137.2 242.8 1138.8 229.5 1141.6 225.6 1143.6 225.6 1146.7 219.8 1155.9 216.3 1162.2 217.2 1167.8 219 1175.7 224.8 1182.9 225.2 1188.1 239.3 1192.5 245.9 1189.4 246.9 1187.5 250 1184.5 250.5 1180.5 255.3 1177.3 255.7 1175.5 258.9 1175.9 261.8 1165.8 263.6 1163.7 272.7 1161.5 275.5 1161.8 281.5 1160.8 283.9 1158.9 285.2 1157.8 283.2 1156.2 283.7 1153 282.5 1151.6 283.9 1148.3 283.5 1145.9 281.2 1143.8 283.8 1139.5 286 1137 285.4 1134.3 284.2 1139.2 276.1 1134.1 259.7 1135.2 243.4"></polygon> <polygon class="cls-6" points="1135.2 243.4 1134.1 259.7 1139.2 276.1 1134.3 284.2 1125.8 283.8 1107.5 275.6 1108.1 272.6 1098.1 270.8 1090.6 263.7 1090.8 260 1087.1 259.6 1087.4 243.5 1087.3 238.4 1090.1 233.2 1093.2 230.1 1098.2 227.7 1098.7 230.2 1101.7 230.6 1101.4 227.4 1113 223 1123.5 227.2 1130.9 236.2 1132.6 243.1 1135.2 243.4"></polygon> <polygon class="cls-6" points="1049 267.8 1045.9 268.6 1042.3 264.7 1045.4 242.7 1047.4 228.6 1051.6 227.4 1055 229.5 1058.9 229.1 1057.1 227 1060 226.1 1062.2 229.2 1078.8 234.4 1083.3 240.9 1087.4 243.5 1087.1 259.6 1086.2 261.4 1087 261.5 1086.9 263.6 1085.5 263.8 1082.8 269.4 1081.2 269.9 1078.9 273 1076.1 271.3 1072.5 271.8 1071.6 274 1054.5 270.8 1049 267.8"></polygon> <polygon class="cls-6" points="1500.6 285.1 1497.5 276.6 1493.8 274.7 1494.6 271.4 1489.3 267.7 1484.2 267.6 1483.7 265 1488.7 251.6 1489 246.1 1495.9 241.8 1506.8 242.3 1513.8 236.6 1518.1 235.8 1522.9 231.4 1527.1 230.7 1528.5 229 1533.2 234 1520.7 249.4 1522.9 253.4 1527.1 256.4 1527.2 260.3 1533.7 266.6 1535.2 266.8 1524.2 287.8 1517 292.5 1511.9 293.1 1507.4 286.3 1500.6 285.1"></polygon> <polygon class="cls-6" points="585.5 274.4 584.1 274.1 583.5 278.7 567.2 279.4 559.8 273.5 557.5 270.4 557.6 268.6 560.6 268.2 567.2 270.4 576.9 267.8 577.6 266.6 576.8 264.1 568.7 259.8 566.6 255.6 568.8 252.4 576.5 253.9 579.7 252.3 579.6 245.1 576.4 238.9 580.1 234 577.9 229.8 585.1 229.8 583.1 235 585.8 238.1 588.6 236.4 592.8 229.1 601.4 229.1 602 232.2 598.5 238.2 599.4 243.9 594.6 252.2 594.2 257.9 587.8 272.9 585.5 274.4"></polygon> <polygon class="cls-6" points="585.5 274.4 587.8 272.9 594.2 257.9 594.6 252.2 599.4 243.9 598.5 238.2 602 232.2 601.4 229.1 666.5 229.6 667 229.6 669 234 668.7 244.2 666.5 243.5 659.2 247 656.3 246.3 654.8 243.9 651.7 244.2 650.6 272.6 650.1 276.5 625.4 276.1 585.5 274.4"></polygon> <polygon class="cls-6" points="706.5 229.6 704.6 283.9 704.1 289.3 689 289.7 688.8 297.6 683.9 297.6 677.5 293.2 675 290 667.6 288.3 659.3 280 654.5 278.4 650.6 272.6 651.7 244.2 654.8 243.9 656.3 246.3 659.2 247 666.5 243.5 668.7 244.2 669 234 667 229.6 668.9 229.7 706.5 229.6"></polygon> <polygon class="cls-6" points="706.5 229.6 708.6 229.8 765.7 230.1 765 232.4 766.2 234.6 764.4 237.7 764.7 239 772.1 251.1 759.5 251.4 759 258 760.2 262.7 759.4 269.2 757.8 271.6 753.6 274.2 751 280 750.7 284 747.9 284.6 744.8 287.6 744.4 284.6 704.6 283.9 706.5 229.6"></polygon> <polygon class="cls-6" points="874.1 299.4 877 282.1 876 281 879.2 280.1 873.7 274.5 876.8 270.3 873.8 267.5 880.1 263.4 880.8 261.7 876 259.8 872.2 260.1 867.8 257.6 861.6 257.5 862.4 252.6 864 252.5 865.6 248.6 873.4 242.6 874.6 240.2 876.5 242.4 878.6 241.6 877.4 237.6 881.2 235.7 900.6 251 908.1 248.1 909.1 254.4 901 268.9 897.7 287.3 892.5 292.3 892.2 300.5 891 300.5 874.1 299.4"></polygon> <polygon class="cls-6" points="1451.7 292.7 1444.8 284.3 1446.7 242.7 1440 243 1440.4 240.6 1443 238.7 1452.6 241.6 1470.3 238.5 1474.4 239.2 1475.4 241.2 1478.5 242 1477.7 246.3 1480.5 245.4 1489 246.1 1488.7 251.6 1483.7 265 1484.2 267.6 1479.9 274.9 1474.9 278.7 1473.5 281.8 1471.2 283.1 1465 282.9 1459.7 284.1 1451.7 292.7"></polygon> <polygon class="cls-6" points="1308.6 282.1 1284.6 280.9 1281.8 278.5 1272.8 265.6 1276.8 263.9 1278 265.1 1278.9 264.7 1279.5 247.5 1281.5 246.1 1287 245.9 1287.1 241.4 1288.1 242.1 1294 239.8 1295.7 241.8 1299.5 241.3 1302.3 242.6 1302.1 244.6 1306.8 248.9 1307.8 254.8 1311.2 254.2 1312 252 1313.9 251.8 1316 254.8 1314.2 259.6 1314.3 263.3 1311.6 267.1 1312.8 274.7 1308.7 279.1 1309.8 281.3 1308.6 282.1"></polygon> <polygon class="cls-6" points="1047.1 286.5 1046.2 288.1 1042.2 288.7 1041.2 292.2 1039.4 292.4 1034.6 289.5 1033.4 291.9 1030.9 289.1 1025.1 291.8 1024.3 291.2 1022.8 293.5 1016.2 293.7 1015.7 289.3 1014 286.7 1008.3 265.6 1006.1 261.1 1016.8 249.3 1026.2 246.5 1025.3 243 1026.2 241.1 1045.4 242.7 1042.3 264.7 1045.9 268.6 1049 267.8 1048.1 270.6 1050.1 274.2 1047.9 276.1 1048.9 277.7 1048.2 280.5 1051.1 280.9 1047.3 283.5 1047.1 286.5"></polygon> <polygon class="cls-6" points="1308.6 282.1 1309.8 281.3 1308.7 279.1 1312.8 274.7 1311.6 267.1 1314.3 263.3 1314.2 259.6 1316 254.8 1318 256.6 1328.9 250.9 1332.6 252.6 1334.5 251.5 1335.6 252.4 1336.5 250.7 1338.5 251.7 1338.4 249.9 1339.3 249.5 1342.9 251 1343.8 250.1 1343.3 247.9 1345.2 245.1 1350.1 241.8 1351.5 243.3 1353.4 242.2 1354.3 243.6 1357.2 243 1360.2 244 1363.5 247.3 1366.2 246.3 1366.6 248.1 1365.2 249.2 1367.8 255.2 1366 259.7 1368.2 261.6 1367.9 264.1 1365.7 266.8 1364.3 266.8 1359.9 262 1353.2 267.1 1346.7 269.8 1347.4 272.5 1345.7 274 1344.9 273.2 1343.9 277.6 1341.9 278.9 1341.6 280.8 1338.8 283.3 1336.3 280.7 1334.2 282.3 1330.3 278.8 1329.3 279.8 1330 281.7 1328.4 281.5 1327.7 283.2 1327 282 1324.4 288.2 1323.3 286.4 1321.1 286.3 1322.7 290.1 1322.4 293.1 1320.9 293.1 1319.6 289.9 1316.7 289.5 1316.2 290.2 1318.3 294.6 1317.4 295.3 1316.1 294.4 1313 288 1309.7 286.8 1308.6 282.1"></polygon> <polygon class="cls-6" points="1450.6 301.5 1447.7 299.7 1445.7 300.1 1430.6 308.3 1429.3 310.2 1429 315 1424.9 320.6 1418.9 316.4 1413.9 316.3 1393.4 291.8 1391.1 292.2 1389 289.4 1387 290.5 1384.7 288.4 1380.8 283.5 1380.4 279.2 1384.5 277.1 1390.3 270.7 1406.4 257.5 1414.7 253.7 1419.3 250.3 1424.6 250.3 1440 243 1446.7 242.7 1444.8 284.3 1451.7 292.7 1453.8 295.1 1450.6 301.5"></polygon> <polygon class="cls-6" points="825.9 279 823.1 276.3 813.6 275.5 804.5 269.3 798.8 268.8 791.8 271 778 269.6 773 252.7 779 252.6 783.9 255.1 792.4 256.2 799.7 255.4 808.8 250.2 822.7 250 823 253.4 832.4 254.8 830.3 271.3 825.9 279"></polygon> <polygon class="cls-6" points="1189.4 321.7 1185.7 310.9 1175.5 298.7 1174.3 294 1169.8 293.9 1165.8 287.4 1160.8 283.9 1161.8 281.5 1161.5 275.5 1163.7 272.7 1165.8 263.6 1175.9 261.8 1175.5 258.9 1177.3 255.7 1180.5 255.3 1184.5 250.5 1187.5 250 1198 265 1200 263.7 1202.9 265.8 1202.6 271.5 1205.2 270.3 1215.3 275.1 1219.1 281.7 1218.7 285.5 1220.5 286.4 1221.5 290.3 1228 294.2 1231.9 299.4 1219.6 308.9 1206.2 313.1 1205.5 315.6 1198.5 315.8 1197.5 318.7 1192.8 319.1 1191.3 321.2 1189.4 321.7"></polygon> <polygon class="cls-6" points="777.2 332.5 774.7 337.2 772 336.8 771.7 335.6 770.1 335.7 770 337.4 768.2 336.9 768.7 333.6 766 330.4 749.2 332 744 331.8 744.8 287.6 747.9 284.6 750.7 284 751 280 753.6 274.2 757.8 271.6 759.4 269.2 760.2 262.7 759 258 759.5 251.4 772.1 251.1 773 252.7 778 269.6 778 276.1 781.7 284.9 777.7 293.2 771.4 301.7 772.3 307.7 770.4 312.4 771.4 317.7 774.2 318.7 780.1 317.6 779.5 327 777.2 332.5"></polygon> <polygon class="cls-6" points="1022.1 314.7 1011.6 311.7 1010.4 314.4 1007.4 314.9 1004.3 313.3 1003.7 315.1 987.3 312.2 985.2 310.2 976.3 305.5 976 302.7 969.5 300.3 959.4 292.9 956.7 290.2 956.6 288.2 958.1 288.1 958.1 285.9 954.3 286.2 949.7 269.8 951.9 268.5 953.1 260.5 954.4 258.5 955.6 258.7 956.6 263.3 958.4 264.5 959.6 263.9 960.3 260.1 968.3 256.1 973.3 260.4 974.8 260.4 976.4 253.3 979.5 253.8 980.1 254.8 978.5 260.6 983.3 258.6 986 259.2 986.6 254.4 988.1 253.8 990.2 254.3 989.5 259 990.7 261.4 992.6 261 994.1 254.2 996.6 253.1 1000.8 258.4 1006.1 261.1 1008.3 265.6 1014 286.7 1015.7 289.3 1016.2 293.7 1017.3 300.7 1021.4 308.2 1022.1 314.7"></polygon> <polygon class="cls-6" points="1380.4 279.2 1378.7 280.4 1379.1 287.6 1377.5 288.1 1373.7 284.4 1372.7 288.3 1370.7 290 1362.7 284.6 1352.6 283.2 1352.7 284.7 1350.6 285 1350.6 283.2 1344 283.5 1341.6 280.8 1341.9 278.9 1343.9 277.6 1344.9 273.2 1345.7 274 1347.4 272.5 1346.7 269.8 1353.2 267.1 1359.9 262 1364.3 266.8 1365.7 266.8 1367.9 264.1 1368.2 261.6 1371.5 262.1 1378 259.2 1378.3 255.2 1380.1 253.4 1381.7 255.4 1380.9 255.9 1382.4 257.5 1381.7 258.2 1386.6 263.6 1390.3 270.7 1384.5 277.1 1380.4 279.2"></polygon> <polygon class="cls-6" points="825.9 279 830.3 271.3 832.4 254.8 851.3 257.7 861.6 257.5 867.8 257.6 872.2 260.1 876 259.8 880.8 261.7 880.1 263.4 873.8 267.5 876.8 270.3 873.7 274.5 879.2 280.1 876 281 877 282.1 874.1 299.4 873 310.5 870.8 310.4 870.6 313.2 859.2 312.5 830.1 308 827.6 302.9 828.8 291.4 825.9 279"></polygon> <polygon class="cls-6" points="1231.9 299.4 1228 294.2 1221.5 290.3 1220.5 286.4 1218.7 285.5 1219.1 281.7 1223.4 280.7 1227.6 273.6 1233.5 275 1237.3 273.6 1241.6 278.2 1245.3 280.4 1246.8 270.1 1260.5 270.8 1263.4 273.1 1265.1 273.1 1271 262.4 1272.8 265.6 1281.8 278.5 1273.1 286.8 1271.7 289.7 1264.4 295.8 1264.7 298.3 1267.7 301.6 1267.1 303.2 1257.9 309 1251.8 309.3 1250.8 311.6 1249.1 311.5 1248.7 316.4 1245.9 315.3 1245.9 318.2 1242.2 316.2 1241.9 319.1 1244.1 320.6 1241.3 322.7 1231.9 299.4"></polygon> <polygon class="cls-6" points="1450.6 301.5 1453.8 295.1 1451.7 292.7 1459.7 284.1 1465 282.9 1471.2 283.1 1473.5 281.8 1474.9 278.7 1479.9 274.9 1484.2 267.6 1489.3 267.7 1494.6 271.4 1493.8 274.7 1497.5 276.6 1500.6 285.1 1493.7 289.3 1487.5 289 1479.7 292.7 1475.3 296.4 1466.9 309.3 1462.9 312.5 1457 315.1 1451.3 314 1450.5 307.6 1452.2 304.7 1450.6 301.5"></polygon> <polygon class="cls-6" points="777.2 332.5 779.5 327 780.1 317.6 774.2 318.7 771.4 317.7 770.4 312.4 772.3 307.7 771.4 301.7 777.7 293.2 781.7 284.9 778 276.1 778 269.6 791.8 271 798.8 268.8 804.5 269.3 813.6 275.5 823.1 276.3 825.9 279 828.8 291.4 827.6 302.9 830.1 308 829.3 312 826.2 315.5 822.1 315.1 813.6 320.7 807.8 321.6 806.5 332.3 795.4 332.6 794 334.8 791.3 335.3 790.3 337.7 781.7 334.1 781.3 332.6 777.2 332.5"></polygon> <polygon class="cls-6" points="655.5 339.6 650.6 334.6 644.7 333.7 642.8 331.1 640.6 332 634.9 330.6 631.6 327.7 627.9 324.1 628.2 319.7 629.9 317.5 629.5 315.4 621.8 309 619.8 305.7 621.1 304.3 624.7 305.1 625.4 276.1 650.1 276.5 650.6 272.6 654.5 278.4 659.3 280 667.6 288.3 675 290 677.5 293.2 683.9 297.6 682 340.1 655.5 339.6"></polygon> <polygon class="cls-6" points="1316.8 301.5 1312.5 294.6 1313.4 293.1 1316.1 294.4 1317.4 295.3 1318.3 294.6 1316.2 290.2 1316.7 289.5 1319.6 289.9 1320.9 293.1 1322.4 293.1 1322.7 290.1 1321.1 286.3 1323.3 286.4 1324.4 288.2 1327 282 1327.7 283.2 1328.4 281.5 1330 281.7 1329.3 279.8 1330.3 278.8 1334.2 282.3 1336.3 280.7 1338.8 283.3 1341.6 280.8 1344 283.5 1350.6 283.2 1350.6 285 1352.7 284.7 1352.6 283.2 1362.7 284.6 1370.7 290 1371.9 293.7 1369.9 295.3 1370.4 299 1368.5 301.6 1368.6 306.1 1367 307 1365.6 309.8 1364.6 322 1363.9 323.8 1362 323.5 1357.4 320.9 1348.9 318.7 1340.5 319.6 1336.4 316.7 1333.1 311.7 1325.1 305.7 1322.6 306.5 1318.5 301.1 1316.8 301.5"></polygon> <polygon class="cls-6" points="1413.9 316.3 1411.6 319.5 1412.5 328.2 1405.5 340.8 1402.4 343.6 1393.3 342.3 1385.9 345.2 1382.7 345.4 1377.5 350.7 1370.1 352.3 1368.9 355.1 1369.4 352.9 1366.7 352.6 1365.4 348.8 1365.2 339 1367.5 335.7 1361.7 326.3 1362 323.5 1363.9 323.8 1364.6 322 1365.6 309.8 1367 307 1368.6 306.1 1368.5 301.6 1370.4 299 1369.9 295.3 1371.9 293.7 1370.7 290 1372.7 288.3 1373.7 284.4 1377.5 288.1 1379.1 287.6 1378.7 280.4 1380.4 279.2 1380.8 283.5 1384.7 288.4 1387 290.5 1389 289.4 1391.1 292.2 1393.4 291.8 1413.9 316.3"></polygon> <polygon class="cls-6" points="1176.3 334.9 1174.9 334.7 1161.5 343.4 1146.3 346.8 1141.5 343.7 1139 344.7 1136.8 343.8 1117.6 344 1114.7 341.8 1115.6 339.7 1117.7 339.2 1119.3 335.5 1121.7 326.9 1120.1 324.2 1122.2 323.6 1122.3 321.4 1119 321.6 1118.5 320.6 1115.7 311.9 1116.2 310.4 1117.1 310.5 1116.7 308 1120.1 290.7 1130.7 291.2 1133.4 286.5 1135.3 287.2 1137 285.4 1139.5 286 1143.8 283.8 1145.9 281.2 1148.3 283.5 1151.6 283.9 1153 282.5 1156.2 283.7 1157.8 283.2 1158.9 285.2 1160.8 283.9 1165.8 287.4 1169.8 293.9 1174.3 294 1175.5 298.7 1185.7 310.9 1189.4 321.7 1181 333.3 1178.6 335.4 1176.3 334.9"></polygon> <polygon class="cls-6" points="683.9 297.6 688.8 297.6 689 289.7 704.1 289.3 704.6 283.9 744.4 284.6 744.8 287.6 744 331.8 749.2 332 748.9 336.2 699.5 335.3 697.1 336.9 696.4 340.7 694.6 340.8 682 340.1 683.9 297.6"></polygon> <polygon class="cls-6" points="1022.1 314.7 1021.4 308.2 1017.3 300.7 1016.2 293.7 1022.8 293.5 1024.3 291.2 1025.1 291.8 1030.9 289.1 1033.4 291.9 1034.6 289.5 1039.4 292.4 1041.2 292.2 1042.2 288.7 1046.2 288.1 1047.1 286.5 1048 289.4 1051.9 292.6 1051.2 295 1053.3 297.2 1057 294.4 1061.8 295.5 1067 304 1069.2 304.6 1069.2 308.6 1066.4 311.9 1067.6 322.7 1066 325.5 1068.6 326.7 1064.9 330.9 1068.7 332.3 1064.9 335 1056.3 330.8 1050.2 331.4 1045.9 330.4 1038.3 332.3 1022.1 314.7"></polygon> <polygon class="cls-6" points="935.6 352.4 935.5 345.5 937.8 344.2 941.6 344 941.9 340.3 946.3 340.6 946.6 323.7 945 320.4 946.4 316.8 945.8 311.7 947.6 311.1 947.5 307.3 949 304.3 953.1 301.2 953.6 297.5 957.8 297.8 959.4 292.9 969.5 300.3 976 302.7 976.3 305.5 985.2 310.2 987.3 312.2 1003.7 315.1 1003.6 318.3 1006.3 321.2 1004.7 322.2 1004 324.6 1002.1 324.8 1001.9 331.2 999.9 339.9 1000.8 345.2 997.5 348.2 996.2 353.3 993.5 355.4 992.6 359 993.8 360.6 993.5 364.5 984 362.3 983.9 359.6 982.8 359 976.4 362 975.8 365.4 974.3 365.4 974.1 367.5 972.3 367.3 972 365.6 970.6 365.6 970 362.5 965.5 363.6 965.6 362.5 963.8 362.5 963.4 360.8 961.5 361 960 359 960.3 356.8 955.1 354 943.9 353.5 943.4 356.2 935.6 352.4"></polygon> <polygon class="cls-6" points="1073.7 340 1064.9 335 1068.7 332.3 1064.9 330.9 1068.6 326.7 1066 325.5 1067.6 322.7 1066.4 311.9 1069.2 308.6 1069.2 304.6 1072.2 304.9 1073.6 300.4 1075.4 300 1079.2 295.5 1085.9 294.2 1104 299.4 1106.7 301.5 1110.2 301.7 1109.8 306.5 1112.4 308.9 1116.2 310.4 1115.7 311.9 1118.5 320.6 1119 321.6 1122.3 321.4 1122.2 323.6 1120.1 324.2 1121.7 326.9 1119.3 335.5 1117.7 339.2 1115.6 339.7 1114.5 337 1116.1 334.8 1105.3 339.1 1091.4 335.5 1084.1 336.8 1082.2 339.8 1077.5 338.9 1073.7 340"></polygon> <polygon class="cls-6" points="1185.9 348.2 1186.3 347.4 1185 346.8 1180.6 346 1181.9 341.1 1177.3 338.3 1176.3 334.9 1178.6 335.4 1181 333.3 1189.4 321.7 1191.3 321.2 1192.8 319.1 1197.5 318.7 1198.5 315.8 1205.5 315.6 1206.2 313.1 1219.6 308.9 1231.9 299.4 1241.3 322.7 1241.4 324.2 1238.6 323.7 1238.7 326.8 1233.6 325.8 1231 333.7 1227.2 337.4 1226.6 341.6 1227.6 342.9 1226.7 344.2 1223.3 342.9 1221.3 347.3 1218.4 345.2 1208.8 356.3 1205.9 357.3 1206 361.1 1203.8 360.9 1202.5 363 1197.6 362.4 1197.4 360 1196.3 359.8 1197.3 353.2 1196.6 351.1 1193.3 350.7 1191.6 353.7 1190 353.4 1190 351.8 1186.9 351.6 1187.4 348.6 1185.9 348.2"></polygon> <polygon class="cls-6" points="935.6 352.4 930.9 354.2 930.7 352.5 929.3 352.4 929 354.3 927.8 354.6 927.7 352.9 924.3 353.6 920.8 350.5 906.6 345.5 907.4 342.8 905.9 342.2 905.3 343.5 903.6 343.1 904.2 341.3 903.1 341 902.3 342.9 870.1 330.9 872.3 316.8 871.3 316.5 871.6 313.6 870.6 313.2 870.8 310.4 873 310.5 874.1 299.4 891 300.5 891.7 309.8 893.1 309.8 906.9 300 924.8 302.1 928.6 304 928.6 306.1 934.8 307.2 943.3 311.7 945.8 311.7 946.4 316.8 945 320.4 946.6 323.7 946.3 340.6 941.9 340.3 941.6 344 937.8 344.2 935.5 345.5 935.6 352.4"></polygon> <polygon class="cls-6" points="1368.9 355.1 1368.2 356.6 1363.2 362 1357.6 362.5 1352.1 366.9 1343.1 371.2 1337.1 377.1 1330.1 377.8 1323.5 375.2 1316.1 376.3 1317.3 357.5 1311.9 351.8 1309 344.7 1308.8 341.9 1301.4 326.3 1304.5 321 1305.9 320.2 1307.4 321.1 1313.7 316.5 1315 317.5 1315.3 315.7 1318.1 314.5 1319.3 309 1316.8 305.4 1316.8 301.5 1318.5 301.1 1322.6 306.5 1325.1 305.7 1333.1 311.7 1336.4 316.7 1340.5 319.6 1348.9 318.7 1357.4 320.9 1362 323.5 1361.7 326.3 1367.5 335.7 1365.2 339 1365.4 348.8 1366.7 352.6 1369.4 352.9 1368.9 355.1"></polygon> <polygon class="cls-6" points="855.1 361.3 849.5 362.2 844.9 366.1 840.7 367.5 832.6 364.8 829.4 365.4 825.3 361.1 824 361.1 819.5 364.6 819.9 366.8 817.6 366.2 814.4 368.4 810 363.8 807.2 363 803 359.6 803.9 353.6 807.6 353.4 806.6 350.4 804.4 350 806.5 332.3 807.8 321.6 813.6 320.7 822.1 315.1 826.2 315.5 829.3 312 830.1 308 859.2 312.5 870.6 313.2 871.6 313.6 871.3 316.5 872.3 316.8 870.1 330.9 868.2 350.2 864.9 351.7 865.7 353.7 864.6 355.4 859.8 356 855.1 361.3"></polygon> <polygon class="cls-6" points="636.7 357 620.1 346.8 611.3 345.5 601.2 339.6 600.3 336.6 599.7 333.7 602 330.3 602.1 327.4 609.6 326.4 611.7 321.5 613.5 321.7 617.6 316.2 619.3 310.9 621.8 309 629.5 315.4 629.9 317.5 628.2 319.7 627.9 324.1 631.6 327.7 634.9 330.6 640.6 332 642.8 331.1 644.7 333.7 650.6 334.6 655.5 339.6 657.2 342.3 642.3 359.1 636.7 357"></polygon> <polygon class="cls-6" points="1024.8 361 1015.8 363 1009.8 359.4 1006.4 359.5 1001 356.8 999.5 353.7 996.2 353.3 997.5 348.2 1000.8 345.2 999.9 339.9 1001.9 331.2 1002.1 324.8 1004 324.6 1004.7 322.2 1006.3 321.2 1003.6 318.3 1003.7 315.1 1004.3 313.3 1007.4 314.9 1010.4 314.4 1011.6 311.7 1022.1 314.7 1038.3 332.3 1035.3 334 1028.6 342.4 1026.5 348.1 1024.6 347.5 1024.3 349.6 1025.6 350.4 1025.5 351.7 1023.3 351.5 1023.1 353.2 1025.2 353.6 1025.1 355.1 1023.6 355.3 1024.8 361"></polygon> <polygon class="cls-6" points="1316.1 376.3 1303.1 378.2 1296.2 383.4 1289.8 384.7 1286.2 390.1 1280.6 393.3 1280 390.9 1282.8 389.9 1283.3 388.5 1279.1 386.2 1277.2 388 1274.5 384.8 1276.5 380.3 1275.6 377.7 1273.8 379.3 1268.4 379 1266.5 380 1262.6 377.6 1261.1 372.9 1258.7 373.2 1253 370.4 1252 368.6 1256.6 367 1258.4 363.6 1258.2 360.3 1255.5 358.6 1253.6 350.6 1255.5 344.2 1253.6 342.9 1253.1 339.2 1255.5 338.4 1257.7 339.9 1258.5 338.9 1257.1 331 1257.8 330.4 1258.9 330.5 1260.4 333.3 1264.4 332 1268.5 334.7 1269.6 331.4 1273.7 331.7 1272.5 328 1275.6 326.7 1277.4 328.2 1280.6 327.8 1292.6 332.6 1301.4 326.3 1308.8 341.9 1309 344.7 1311.9 351.8 1317.3 357.5 1316.1 376.3"></polygon> <polygon class="cls-6" points="1080.1 378.3 1070.9 379.3 1055.6 380.5 1048.5 382.4 1048.4 385 1045.5 382.6 1039.2 381.7 1028.9 372.6 1029 368.8 1024.8 361 1023.6 355.3 1025.1 355.1 1025.2 353.6 1023.1 353.2 1023.3 351.5 1025.5 351.7 1025.6 350.4 1024.3 349.6 1024.6 347.5 1026.5 348.1 1028.6 342.4 1035.3 334 1038.3 332.3 1045.9 330.4 1050.2 331.4 1056.3 330.8 1064.9 335 1073.7 340 1072 345.5 1074.9 346.6 1076.4 353.7 1075.5 358.7 1076.7 360.2 1080.1 378.3"></polygon> <polygon class="cls-6" points="748.9 336.2 749.2 332 766 330.4 768.7 333.6 768.2 336.9 770 337.4 770.1 335.7 771.7 335.6 772 336.8 774.7 337.2 771.3 346.6 767.9 350.8 767.6 354.7 769.1 356.8 769.2 359.8 767.4 366.3 775.2 384.1 772.8 388.9 767.5 390.9 766 392.5 765.1 395.4 768.1 397.3 770.9 397.5 775.1 400.4 774.4 402.5 772.1 403.8 770.2 404.1 767.8 402.7 764.9 399.3 762.6 398.8 757.5 403.3 747.5 404.6 745.4 403.2 743.9 399.6 740.6 397.3 740.8 380.7 742.2 378.4 744.2 378.3 743.5 374.9 747.6 367.8 748.9 336.2"></polygon> <polygon class="cls-6" points="870.7 395.6 860.2 393.5 863.7 387.7 861.8 385.1 864.6 383.4 862.3 382.3 861.5 377.9 857.3 377.3 856 372.7 853.5 372.1 853.3 368.2 855.7 365 855.1 361.3 859.8 356 864.6 355.4 865.7 353.7 864.9 351.7 868.2 350.2 870.1 330.9 902.3 342.9 903.1 341 904.2 341.3 903.6 343.1 905.3 343.5 905.9 342.2 907.4 342.8 906.6 345.5 920.8 350.5 924.3 353.6 923.6 355.5 921.6 354.7 921.1 355.6 921 365.7 919.4 373.4 917.9 374.9 917.3 379.4 914.9 384.5 913.4 381.7 912.3 387.2 907.8 390.1 907.6 391.9 904.3 392.2 902.9 397.6 898 398.4 894.4 395.7 885.2 393.9 882.2 392.1 878.6 392.6 875.3 394.7 870.5 394.6 870.7 395.6"></polygon> <polygon class="cls-6" points="814.4 368.4 815.7 371.7 815.2 376 813.8 377.1 810.9 377.3 810 384.4 807.5 384.2 807.5 385.5 805 385.9 796 387.1 791.5 390.3 785.3 389.6 782.9 391.3 772.5 391.8 768.1 397.3 765.1 395.4 766 392.5 767.5 390.9 772.8 388.9 775.2 384.1 767.4 366.3 769.2 359.8 769.1 356.8 767.6 354.7 767.9 350.8 771.3 346.6 774.7 337.2 777.2 332.5 781.3 332.6 781.7 334.1 790.3 337.7 791.3 335.3 794 334.8 795.4 332.6 806.5 332.3 804.4 350 806.6 350.4 807.6 353.4 803.9 353.6 803 359.6 807.2 363 810 363.8 814.4 368.4"></polygon> <polygon class="cls-6" points="1132.1 391.6 1134.2 389 1131.3 386.1 1135.3 379 1135.4 373.7 1142.3 367.3 1145.3 366.5 1149.9 358.6 1152.6 359 1152.1 356.9 1161.5 343.4 1174.9 334.7 1176.3 334.9 1177.3 338.3 1181.9 341.1 1180.6 346 1185 346.8 1186.3 347.4 1185.9 348.2 1183.2 357.5 1181.7 358.4 1181 355.9 1178.7 355.6 1177.1 358.9 1176.3 365.4 1178.1 369.6 1174.2 373.4 1174.6 378.1 1172.8 378.9 1166.7 377.4 1165.2 378.3 1164.2 381 1167.4 385.3 1166.6 387.3 1161.9 389.4 1160.7 394.3 1156.6 396.1 1154.5 394.8 1152.6 390.8 1151.5 392.3 1150.9 399.6 1146.5 399.4 1141 395.5 1137.3 397.1 1135.3 393.4 1132.1 391.6"></polygon> <polygon class="cls-6" points="1095.1 375.4 1091.4 377.7 1085.2 377.1 1080.1 378.3 1076.7 360.2 1075.5 358.7 1076.4 353.7 1074.9 346.6 1072 345.5 1073.7 340 1077.5 338.9 1082.2 339.8 1084.1 336.8 1091.4 335.5 1105.3 339.1 1116.1 334.8 1114.5 337 1115.6 339.7 1114.7 341.8 1117.6 344 1115.4 348.8 1116 350.6 1095.1 375.4"></polygon> <polygon class="cls-6" points="725.4 397.8 725.8 386.7 719.4 388.1 718.1 386.9 711.6 386.4 704.4 379.8 700.3 372.5 697.2 371.5 694.8 372.4 694.7 367.2 695.8 366.9 695.7 362.4 694.8 362.1 694.6 340.8 696.4 340.7 697.1 336.9 699.5 335.3 748.9 336.2 747.6 367.8 743.5 374.9 744.2 378.3 742.2 378.4 740.8 380.7 740.6 397.3 740.5 398.6 725.4 397.8"></polygon> <polygon class="cls-6" points="580.6 372.1 586.2 370.7 586 357.3 590.2 349.7 588.9 346.8 589.8 341.9 594.5 336.4 600.3 336.6 601.2 339.6 611.3 345.5 620.1 346.8 636.7 357 635.4 396.6 621.8 396.4 621.5 402 585 401.3 586.4 380.2 580.6 372.1"></polygon> <polygon class="cls-6" points="1132.1 391.6 1130.3 393.7 1127.4 391.3 1120.4 407.7 1107.1 396.1 1098.5 386.8 1097.7 382.3 1095.3 380.8 1095.1 375.4 1116 350.6 1115.4 348.8 1117.6 344 1136.8 343.8 1139 344.7 1141.5 343.7 1146.3 346.8 1161.5 343.4 1152.1 356.9 1152.6 359 1149.9 358.6 1145.3 366.5 1142.3 367.3 1135.4 373.7 1135.3 379 1131.3 386.1 1134.2 389 1132.1 391.6"></polygon> <polygon class="cls-6" points="1157.2 418.1 1154.4 414 1152.9 407.3 1149.9 404.4 1144.7 404.5 1146.5 399.4 1150.9 399.6 1151.5 392.3 1152.6 390.8 1154.5 394.8 1156.6 396.1 1160.7 394.3 1161.9 389.4 1166.6 387.3 1167.4 385.3 1164.2 381 1165.2 378.3 1166.7 377.4 1172.8 378.9 1174.6 378.1 1174.2 373.4 1178.1 369.6 1176.3 365.4 1177.1 358.9 1178.7 355.6 1181 355.9 1181.7 358.4 1183.2 357.5 1185.9 348.2 1187.4 348.6 1186.9 351.6 1190 351.8 1190 353.4 1191.6 353.7 1193.3 350.7 1196.6 351.1 1197.3 353.2 1196.3 359.8 1197.4 360 1197.6 362.4 1191.9 372 1182 384.2 1178.1 390.9 1172.6 396.7 1167.4 408.7 1165.3 408.1 1162.9 413.1 1157.2 418.1"></polygon> <polygon class="cls-6" points="948.3 406.1 947.6 410.7 943.2 412.4 943 414.1 941.1 414.6 940.5 413.7 938.6 414.6 932.1 419.2 930.5 422.7 920.3 421.4 921 418.1 920 417.8 920.1 415.2 915.8 414.4 915.9 416 914.3 416.3 914.2 414.8 911.3 414.6 909.7 413.2 909.7 410 907.2 407.1 906.6 404.4 907 398.8 902.9 397.6 904.3 392.2 907.6 391.9 907.8 390.1 912.3 387.2 913.4 381.7 914.9 384.5 917.3 379.4 917.9 374.9 919.4 373.4 921 365.7 921.1 355.6 921.6 354.7 923.6 355.5 924.3 353.6 927.7 352.9 927.8 354.6 929 354.3 929.3 352.4 930.7 352.5 930.9 354.2 935.6 352.4 943.4 356.2 941.9 370.4 940 371.5 942.8 374 941.4 374.6 939.3 392.4 941.3 393.3 940.9 397 944.4 402.7 944.2 404.8 946.6 406.4 948.3 406.1"></polygon> <polygon class="cls-6" points="990.8 398.6 991.9 394.6 993.4 393.5 993.5 364.5 993.8 360.6 992.6 359 993.5 355.4 996.2 353.3 999.5 353.7 1001 356.8 1006.4 359.5 1009.8 359.4 1015.8 363 1024.8 361 1029 368.8 1028.9 372.6 1039.2 381.7 1037 388.1 1038.1 401.1 1037.4 404.7 1039.3 405.5 1037.8 409.1 1035.6 410.4 1035.8 413 1032.9 418 1029.9 417 1025.8 413.4 1024.2 413.9 1020.1 409.3 1002.9 406.7 998.9 410.2 996.6 408.6 990.5 410.6 993.1 407 987.9 406.8 988.1 404.8 991.5 404.7 991.5 402.7 989.1 402.5 990.8 398.6"></polygon> <polygon class="cls-6" points="957.3 408.1 950.9 405.2 948.3 406.1 946.6 406.4 944.2 404.8 944.4 402.7 940.9 397 941.3 393.3 939.3 392.4 941.4 374.6 942.8 374 940 371.5 941.9 370.4 943.4 356.2 943.9 353.5 955.1 354 960.3 356.8 960 359 961.5 361 963.4 360.8 963.8 362.5 965.6 362.5 965.5 363.6 970 362.5 970.6 365.6 972 365.6 972.3 367.3 974.1 367.5 974.3 365.4 975.8 365.4 976.4 362 982.8 359 983.9 359.6 984 362.3 993.5 364.5 993.4 393.5 991.9 394.6 990.8 398.6 987.4 399.1 982.3 405 978.7 406.2 977.5 409.1 972.7 409.3 971.7 411.6 968.8 413.2 963.3 410.4 963.1 408 962.1 407.5 959.2 407 957.3 408.1"></polygon> <polygon class="cls-6" points="1209 365.2 1211.5 366.5 1212.9 364.7 1208.9 362.5 1211 362.2 1211.3 359.9 1213.2 360.2 1213.3 362 1217.7 361.9 1217.7 360.8 1220 361 1219.9 359.2 1222.1 359.3 1222.4 360.7 1224.9 360.6 1225.1 364 1228.6 364.1 1229.9 362.3 1231.8 362.5 1231.9 360.4 1229.1 360.5 1229.4 359.5 1234.8 359.2 1242.7 365.1 1244.5 368 1252 368.6 1253 370.4 1258.7 373.2 1261.1 372.9 1262.6 377.6 1266.5 380 1268.4 379 1273.8 379.3 1275.6 377.7 1276.5 380.3 1274.5 384.8 1277.2 388 1279.1 386.2 1283.3 388.5 1282.8 389.9 1280 390.9 1280.6 393.3 1273.3 400.8 1274.1 406.2 1271.2 413.6 1271 418.7 1269.5 421.8 1262 426 1252.2 426.7 1246.4 423.5 1238.2 431.4 1234.3 429.5 1233.4 430.7 1232.4 430 1231.5 431.7 1230.7 431.2 1232.1 428.3 1212.5 418.9 1219.5 412.7 1224.4 411.3 1224.5 410 1223.6 409.7 1223.9 402.6 1221.4 401.2 1221.6 398.1 1220.2 397.6 1219.8 392.9 1211.5 372.2 1208.9 372.3 1209.2 368.6 1207.3 368.3 1207.5 366.6 1209.4 366.5 1209 365.2"></polygon> <polygon class="cls-6" points="805 385.9 807.5 385.5 807.5 384.2 810 384.4 810.9 377.3 813.8 377.1 815.2 376 815.7 371.7 814.4 368.4 817.6 366.2 819.9 366.8 819.5 364.6 824 361.1 825.3 361.1 829.4 365.4 832.6 364.8 840.7 367.5 844.9 366.1 849.5 362.2 855.1 361.3 855.7 365 853.3 368.2 853.5 372.1 856 372.7 857.3 377.3 861.5 377.9 862.3 382.3 864.6 383.4 861.8 385.1 863.7 387.7 860.2 393.5 855.6 392.7 855.7 391.7 841 391.5 840.7 397.4 836.8 396.5 836.7 398.5 832 398 831.8 401.1 825 400.5 824.6 399.5 820.8 398.4 820.2 395 815.6 394.7 815.7 389.5 811.2 389.1 805 385.9"></polygon> <polygon class="cls-6" points="1209 365.2 1209.4 366.5 1207.5 366.6 1207.3 368.3 1209.2 368.6 1208.9 372.3 1211.5 372.2 1219.8 392.9 1220.2 397.6 1221.6 398.1 1221.4 401.2 1223.9 402.6 1223.6 409.7 1224.5 410 1224.4 411.3 1219.5 412.7 1212.5 418.9 1210.1 422.5 1191.1 422.4 1187.9 425.9 1187.1 424.7 1182.6 424.5 1180.9 421.8 1181.6 420.9 1183.8 421.1 1183.7 419.3 1177.6 415 1174.1 414.7 1173.5 412.6 1169.9 412.1 1167.4 408.7 1172.6 396.7 1178.1 390.9 1182 384.2 1191.9 372 1197.6 362.4 1202.5 363 1202.5 365 1205.6 365.1 1205.6 363.3 1206.9 363.4 1206.7 365 1209 365.2"></polygon> <polygon class="cls-6" points="585 401.3 575.8 401 564 405.1 564.1 403.5 556.8 403.5 556.4 399.7 553.5 401.4 547.3 401 547.2 403 515.3 403 513.2 399.3 519.2 394.9 513.9 384.4 514 379.7 515 378.2 520.4 376.8 523.9 381.4 525.7 382.2 527.8 381.8 529 379.2 532.5 377.9 533.6 373.2 538.7 372 539.4 370.2 541.5 370.2 542.9 366.2 544.5 367 545.4 365.1 551 363.4 553.4 364.8 556.7 364.2 562.6 365.5 563.7 364.1 566.8 363.5 572.2 368.2 580.6 372.1 586.4 380.2 585 401.3"></polygon> <polygon class="cls-6" points="672 425.1 671.2 411.9 670.4 410 663.2 403.5 664.1 396.4 670.6 396.5 685.8 387.5 694.7 375.8 694.8 372.4 697.2 371.5 700.3 372.5 704.4 379.8 711.6 386.4 718.1 386.9 719.4 388.1 725.8 386.7 725.4 397.8 725.2 404.5 701.9 403.8 689.8 407.6 683.5 415.9 680.1 425 672 425.1"></polygon> <polygon class="cls-6" points="1078.6 413.5 1080.4 410 1085.7 406.3 1087.3 399.7 1085.1 396.5 1081.6 395.8 1080.7 392.7 1081.3 386.7 1078 384.1 1073.9 383.3 1070.9 379.3 1080.1 378.3 1085.2 377.1 1091.4 377.7 1095.1 375.4 1095.3 380.8 1097.7 382.3 1098.5 386.8 1107.1 396.1 1120.4 407.7 1117.2 414.1 1100.5 439.4 1099.2 430.3 1095 424.4 1092 421.3 1088.8 420.7 1078.6 413.5"></polygon> <polygon class="cls-6" points="1039.6 428.9 1036.9 429.7 1036.3 426 1037.2 423.8 1032.9 418 1035.8 413 1035.6 410.4 1037.8 409.1 1039.3 405.5 1037.4 404.7 1038.1 401.1 1037 388.1 1039.2 381.7 1045.5 382.6 1048.4 385 1048.5 382.4 1055.6 380.5 1070.9 379.3 1073.9 383.3 1078 384.1 1081.3 386.7 1080.7 392.7 1081.6 395.8 1085.1 396.5 1087.3 399.7 1085.7 406.3 1080.4 410 1078.6 413.5 1060.7 417.5 1059.9 418.8 1061.1 426.3 1055.9 429.5 1050.7 428.9 1045.3 424.9 1039.6 428.9"></polygon> <polygon class="cls-6" points="767.8 402.7 770.2 404.1 772.1 403.8 774.4 402.5 775.1 400.4 770.9 397.5 768.1 397.3 772.5 391.8 782.9 391.3 785.3 389.6 791.5 390.3 796 387.1 805 385.9 811.2 389.1 815.7 389.5 815.6 394.7 820.2 395 820.8 398.4 824.6 399.5 825 400.5 823.8 433.8 824.7 437.5 823.3 437.3 823.6 440.7 822.1 440.9 822.2 453.4 823.4 453.4 823.4 457.4 820.4 457.4 820.4 462.5 772.8 461.6 773 416.7 769.5 415.9 769.9 410.1 769 405.8 767.6 406.1 767.8 402.7"></polygon> <polygon class="cls-6" points="1103.6 465.6 1090 465.6 1096.1 460.2 1098 456.4 1101 456 1102.5 453.7 1103.5 449.2 1099.3 445.8 1100.5 439.4 1117.2 414.1 1120.4 407.7 1127.4 391.3 1130.3 393.7 1132.1 391.6 1135.3 393.4 1137.3 397.1 1141 395.5 1146.5 399.4 1144.7 404.5 1149.9 404.4 1152.9 407.3 1154.4 414 1157.2 418.1 1154.8 421.7 1154.7 424.8 1148.9 434.1 1147.1 443.1 1147.7 449 1149.4 452.1 1149.3 457.5 1154.3 460.3 1152.3 465.2 1115.2 465.8 1103.6 465.6"></polygon> <polygon class="cls-6" points="870.7 395.6 870.2 415.3 867.1 415.7 867.1 417.2 870 417.2 869.5 426.2 870.9 426.2 870.9 430.1 869.9 430.1 870.2 433 869.1 433.1 868.9 436.1 872 437.1 870.7 440.5 871.9 440.8 871.7 443.2 870.3 443.1 869.7 445.7 870.8 446.1 870.5 449 869.5 448.9 868.9 463 820.4 462.5 820.4 457.4 823.4 457.4 823.4 453.4 822.2 453.4 822.1 440.9 823.6 440.7 823.3 437.3 824.7 437.5 823.8 433.8 825 400.5 831.8 401.1 832 398 836.7 398.5 836.8 396.5 840.7 397.4 841 391.5 855.7 391.7 855.6 392.7 860.2 393.5 870.7 395.6"></polygon> <polygon class="cls-6" points="870.7 395.6 870.5 394.6 875.3 394.7 878.6 392.6 882.2 392.1 885.2 393.9 894.4 395.7 898 398.4 902.9 397.6 907 398.8 906.6 404.4 907.2 407.1 909.7 410 909.7 413.2 911.3 414.6 914.2 414.8 914.3 416.3 915.9 416 915.8 414.4 920.1 415.2 920 417.8 921 418.1 920.3 421.4 918 464.4 870.8 462.9 868.9 463 869.5 448.9 870.5 449 870.8 446.1 869.7 445.7 870.3 443.1 871.7 443.2 871.9 440.8 870.7 440.5 872 437.1 868.9 436.1 869.1 433.1 870.2 433 869.9 430.1 870.9 430.1 870.9 426.2 869.5 426.2 870 417.2 867.1 417.2 867.1 415.7 870.2 415.3 870.7 395.6"></polygon> <polygon class="cls-6" points="620.1 464 621.5 402 621.8 396.4 635.4 396.6 664.1 396.4 663.2 403.5 670.4 410 671.2 411.9 672 425.1 672.2 463.6 668.7 463.7 644.3 464.1 620.1 464"></polygon> <polygon class="cls-6" points="746.6 463.4 726.7 463.5 722.8 463.3 725.2 404.5 725.4 397.8 740.5 398.6 740.6 397.3 743.9 399.6 745.4 403.2 747.5 404.6 757.5 403.3 762.6 398.8 764.9 399.3 767.8 402.7 767.6 406.1 769 405.8 769.9 410.1 769.5 415.9 773 416.7 772.8 461.6 746.5 462 746.6 463.4"></polygon> <polygon class="cls-6" points="990.5 410.6 992.8 412.8 988 421.8 988.4 426.2 984.8 428 984.4 430.1 985.8 432 985.5 434.3 986.8 437 984.6 437.2 984.1 440 982.5 440.7 985 442.4 983.9 444.1 980.3 443.7 979.7 441.7 979.1 443.5 977.6 443.4 976.3 431.4 974.5 425.6 972.4 426.5 970.3 425.8 972.4 422.3 970.1 421.7 966.4 417 960 415.5 956.8 413.6 957.3 408.1 959.2 407 962.1 407.5 963.1 408 963.3 410.4 968.8 413.2 971.7 411.6 972.7 409.3 977.5 409.1 978.7 406.2 982.3 405 987.4 399.1 990.8 398.6 989.1 402.5 991.5 402.7 991.5 404.7 988.1 404.8 987.9 406.8 993.1 407 990.5 410.6"></polygon> <polygon class="cls-6" points="672.2 463.6 672 425.1 680.1 425 683.5 415.9 689.8 407.6 701.9 403.8 725.2 404.5 722.8 463.3 672.2 463.6"></polygon> <polygon class="cls-6" points="918 464.4 920.3 421.4 930.5 422.7 932.1 419.2 938.6 414.6 940.5 413.7 941.1 414.6 943 414.1 943.2 412.4 947.6 410.7 948.3 406.1 950.9 405.2 957.3 408.1 956.8 413.6 960 415.5 966.4 417 970.1 421.7 972.4 422.3 970.3 425.8 972.4 426.5 974.5 425.6 976.3 431.4 977.6 443.4 979.1 443.5 979.7 441.7 980.3 443.7 983.9 444.1 983.5 464.8 924.4 464.5 918 464.4"></polygon> <polygon class="cls-6" points="983.9 444.1 985 442.4 982.5 440.7 984.1 440 984.6 437.2 986.8 437 985.5 434.3 985.8 432 984.4 430.1 984.8 428 988.4 426.2 988 421.8 992.8 412.8 990.5 410.6 996.6 408.6 998.9 410.2 1002.9 406.7 1020.1 409.3 1024.2 413.9 1025.8 413.4 1029.9 417 1032.9 418 1037.2 423.8 1036.3 426 1036.9 429.7 1039.6 428.9 1039.4 465.3 984.7 464.8 983.5 464.8 983.9 444.1"></polygon> <polygon class="cls-6" points="1157.2 418.1 1162.9 413.1 1165.3 408.1 1167.4 408.7 1169.9 412.1 1173.5 412.6 1174.1 414.7 1177.6 415 1183.7 419.3 1183.8 421.1 1181.6 420.9 1180.9 421.8 1182.6 424.5 1187.1 424.7 1187.9 425.9 1185.9 426.5 1185.7 427.6 1187.9 429.5 1187.5 437.5 1181.4 449.9 1182.7 450.7 1177.7 465.5 1174 465.2 1152.9 465.2 1152.3 465.2 1154.3 460.3 1149.3 457.5 1149.4 452.1 1147.7 449 1147.1 443.1 1148.9 434.1 1154.7 424.8 1154.8 421.7 1157.2 418.1"></polygon> <polygon class="cls-6" points="1039.4 465.3 1039.6 428.9 1045.3 424.9 1050.7 428.9 1055.9 429.5 1061.1 426.3 1059.9 418.8 1060.7 417.5 1078.6 413.5 1088.8 420.7 1092 421.3 1095 424.4 1099.2 430.3 1100.5 439.4 1099.3 445.8 1103.5 449.2 1102.5 453.7 1101 456 1098 456.4 1096.1 460.2 1090 465.6 1072.2 465.6 1039.4 465.3"></polygon> <polygon class="cls-6" points="1238.2 431.4 1234.1 465.8 1196.9 465.8 1177.7 465.5 1182.7 450.7 1181.4 449.9 1187.5 437.5 1187.9 429.5 1185.7 427.6 1185.9 426.5 1187.9 425.9 1191.1 422.4 1210.1 422.5 1212.5 418.9 1232.1 428.3 1230.7 431.2 1231.5 431.7 1232.4 430 1233.4 430.7 1234.3 429.5 1238.2 431.4"></polygon> <polygon class="cls-6" points="1366.2 246.3 1376.3 242 1375.7 237.8 1378 238.1 1385.9 227.6 1392 223.5 1401.7 219.2 1403.3 222 1405.3 221.1 1407.1 222.5 1419.7 215.2 1449.8 215.1 1450.6 216.9 1449.1 217.9 1449.3 225.2 1447.3 228.1 1447.2 230.3 1438.2 237.3 1440.4 240.6 1440 243 1424.6 250.3 1419.3 250.3 1414.7 253.7 1406.4 257.5 1390.3 270.7 1386.6 263.6 1381.7 258.2 1382.4 257.5 1380.9 255.9 1381.7 255.4 1380.1 253.4 1378.3 255.2 1378 259.2 1371.5 262.1 1368.2 261.6 1366 259.7 1367.8 255.2 1365.2 249.2 1366.6 248.1 1366.2 246.3"></polygon> <polygon class="cls-6" points="563.8 321.7 561.4 318 555.3 313.5 554.2 308.2 558.3 304.2 559.7 295.2 561 292.6 570.8 287.8 570.8 284.3 567.2 279.4 583.5 278.7 584.1 274.1 585.5 274.4 625.4 276.1 624.7 305.1 621.1 304.3 619.8 305.7 621.8 309 619.3 310.9 617.6 316.2 613.5 321.7 611.7 321.5 609.6 326.4 602.1 327.4 599.3 322.4 593.1 316.1 584.9 315.6 582.7 319.4 577.4 319.4 575.9 318.3 572.7 320.1 565.7 319.9 563.8 321.7"></polygon> </g> <g id="Member_Counties" data-name="Member Counties"> <polygon class="cls-7" points="1440.4 240.6 1438.2 237.3 1447.2 230.3 1447.3 228.1 1449.3 225.2 1449.1 217.9 1450.6 216.9 1449.8 215.1 1489.4 215 1499.5 214.7 1507.3 214.5 1535.6 214.4 1537 211.6 1548.3 211.9 1537.4 217.9 1528.5 229 1527.1 230.7 1522.9 231.4 1518.1 235.8 1513.8 236.6 1506.8 242.3 1495.9 241.8 1489 246.1 1480.5 245.4 1477.7 246.3 1478.5 242 1475.4 241.2 1474.4 239.2 1470.3 238.5 1452.6 241.6 1443 238.7 1440.4 240.6"></polygon> <polygon class="cls-7" points="1006.1 261.1 1000.8 258.4 996.6 253.1 994.1 254.2 992.6 261 990.7 261.4 989.5 259 990.2 254.3 988.1 253.8 987.8 252.1 989.6 250.4 990.6 236.5 994 236.4 994.4 232.7 992.9 232.6 993.5 230.4 996.1 230.4 996.2 231.5 1000 232.3 1003.5 238.7 1026.2 241.1 1025.3 243 1026.2 246.5 1016.8 249.3 1006.1 261.1"></polygon> <polygon class="cls-7" points="891 300.5 892.2 300.5 892.5 292.3 897.7 287.3 901 268.9 909.1 254.4 908.1 248.1 910.6 247.5 920.3 253.7 925.2 251.8 925.5 247.3 928.3 245.7 938.1 257.1 944.2 268.9 945.5 270 949.7 269.8 954.3 286.2 958.1 285.9 958.1 288.1 956.6 288.2 956.7 290.2 959.4 292.9 957.8 297.8 953.6 297.5 953.1 301.2 949 304.3 947.5 307.3 947.6 311.1 945.8 311.7 943.3 311.7 934.8 307.2 928.6 306.1 928.6 304 924.8 302.1 906.9 300 893.1 309.8 891.7 309.8 891 300.5"></polygon> <polygon class="cls-7" points="1047.1 286.5 1047.3 283.5 1051.1 280.9 1048.2 280.5 1048.9 277.7 1047.9 276.1 1050.1 274.2 1048.1 270.6 1049 267.8 1054.5 270.8 1071.6 274 1072.5 271.8 1076.1 271.3 1078.9 273 1081.2 269.9 1082.8 269.4 1085.5 263.8 1086.9 263.6 1087 261.5 1086.2 261.4 1087.1 259.6 1090.8 260 1090.6 263.7 1098.1 270.8 1108.1 272.6 1107.5 275.6 1125.8 283.8 1134.3 284.2 1137 285.4 1135.3 287.2 1133.4 286.5 1130.7 291.2 1120.1 290.7 1116.7 308 1117.1 310.5 1116.2 310.4 1112.4 308.9 1109.8 306.5 1110.2 301.7 1106.7 301.5 1104 299.4 1085.9 294.2 1079.2 295.5 1075.4 300 1073.6 300.4 1072.2 304.9 1069.2 304.6 1067 304 1061.8 295.5 1057 294.4 1053.3 297.2 1051.2 295 1051.9 292.6 1048 289.4 1047.1 286.5"></polygon> <polygon class="cls-7" points="1301.4 326.3 1292.6 332.6 1280.6 327.8 1277.4 328.2 1275.6 326.7 1272.5 328 1273.7 331.7 1269.6 331.4 1268.5 334.7 1264.4 332 1260.4 333.3 1258.9 330.5 1257.8 330.4 1257.1 331 1258.5 338.9 1257.7 339.9 1255.5 338.4 1241.3 322.7 1244.1 320.6 1241.9 319.1 1242.2 316.2 1245.9 318.2 1245.9 315.3 1248.7 316.4 1249.1 311.5 1250.8 311.6 1251.8 309.3 1257.9 309 1267.1 303.2 1267.7 301.6 1264.7 298.3 1264.4 295.8 1271.7 289.7 1273.1 286.8 1281.8 278.5 1284.6 280.9 1308.6 282.1 1309.7 286.8 1313 288 1316.1 294.4 1313.4 293.1 1312.5 294.6 1316.8 301.5 1316.8 305.4 1319.3 309 1318.1 314.5 1315.3 315.7 1315 317.5 1313.7 316.5 1307.4 321.1 1305.9 320.2 1304.5 321 1301.4 326.3"></polygon> <polygon class="cls-7" points="529 379.2 524.4 374.1 524.5 370.3 534.6 365.6 536.3 366.1 538.1 363.7 537.1 359.7 536.1 359.3 532.6 362.1 528 358.9 525.2 353.2 525.3 349.8 530.5 346.6 536.8 347.6 540.9 346.1 544.3 343.6 545.5 338.7 549.4 336.8 552.4 338.4 556.8 335.2 556.7 333 549.6 328.4 548.6 326.4 549 324.4 552.1 321.5 555.1 322.1 561.4 326.1 563.3 324.8 563.8 321.7 565.7 319.9 572.7 320.1 575.9 318.3 577.4 319.4 582.7 319.4 584.9 315.6 593.1 316.1 599.3 322.4 602.1 327.4 602 330.3 599.7 333.7 600.3 336.6 594.5 336.4 589.8 341.9 588.9 346.8 590.2 349.7 586 357.3 586.2 370.7 580.6 372.1 572.2 368.2 566.8 363.5 563.7 364.1 562.6 365.5 556.7 364.2 553.4 364.8 551 363.4 545.4 365.1 544.5 367 542.9 366.2 541.5 370.2 539.4 370.2 538.7 372 533.6 373.2 532.5 377.9 529 379.2"></polygon> <polygon class="cls-7" points="1252 368.6 1244.5 368 1242.7 365.1 1234.8 359.2 1229.4 359.5 1229.1 360.5 1231.9 360.4 1231.8 362.5 1229.9 362.3 1228.6 364.1 1225.1 364 1224.9 360.6 1222.4 360.7 1222.1 359.3 1219.9 359.2 1220 361 1217.7 360.8 1217.7 361.9 1213.3 362 1213.2 360.2 1211.3 359.9 1211 362.2 1208.9 362.5 1212.9 364.7 1211.5 366.5 1209 365.2 1206.7 365 1206.9 363.4 1205.6 363.3 1205.6 365.1 1202.5 365 1202.5 363 1203.8 360.9 1206 361.1 1205.9 357.3 1208.8 356.3 1218.4 345.2 1221.3 347.3 1223.3 342.9 1226.7 344.2 1227.6 342.9 1226.6 341.6 1227.2 337.4 1231 333.7 1233.6 325.8 1238.7 326.8 1238.6 323.7 1241.4 324.2 1241.3 322.7 1255.5 338.4 1253.1 339.2 1253.6 342.9 1255.5 344.2 1253.6 350.6 1255.5 358.6 1258.2 360.3 1258.4 363.6 1256.6 367 1252 368.6"></polygon> <polygon class="cls-7" points="694.8 372.4 694.7 375.8 685.8 387.5 670.6 396.5 664.1 396.4 635.4 396.6 636.7 357 642.3 359.1 657.2 342.3 655.5 339.6 682 340.1 694.6 340.8 694.8 362.1 695.7 362.4 695.8 366.9 694.7 367.2 694.8 372.4"></polygon> <polygon class="cls-7" points="564 405.1 565.1 407.5 564.3 423.3 565.4 423.5 563.7 464 554.7 464.2 480.7 464 482.4 456.6 494.5 457.7 497.8 452 496.7 447.2 498.4 444 501 442.9 508.7 444.7 511 441.2 511.3 438.2 509.9 434.3 510.4 431.1 507.8 424.6 505.8 423.1 500 423.1 497.7 420.2 499.4 416.5 505.7 415.2 506.7 410.4 505.8 407.3 508.2 404.8 509.6 400.9 508.4 399.1 505 399.2 502.4 400.8 501.5 404.6 498 404.4 497.4 398.3 501.8 395.3 506.3 390.5 508.8 389.8 509.7 390.7 509.8 397.8 511.5 399.9 513.2 399.3 515.3 403 547.2 403 547.3 401 553.5 401.4 556.4 399.7 556.8 403.5 564.1 403.5 564 405.1"></polygon> <polygon class="cls-7" points="564 405.1 575.8 401 585 401.3 621.5 402 620.1 464 602 464.1 563.7 464 565.4 423.5 564.3 423.3 565.1 407.5 564 405.1"></polygon> <circle class="cls-8" cx="602.1" cy="303" r="4.4"></circle> <circle class="cls-8" cx="1444" cy="224.4" r="4.4"></circle> <path class="cls-7" d="M602.1,268.8a13.51,13.51,0,0,0-13.5,13.5c0,7.5,13.5,21,13.5,21s13.5-13.6,13.5-21A13.57,13.57,0,0,0,602.1,268.8Zm0,17.3a4.8,4.8,0,0,1-4.8-4.8,4.74,4.74,0,0,1,4.68-4.8h0.12A4.8,4.8,0,0,1,602.1,286.1Z"></path> <path class="cls-7" d="M1444,189.8a13.51,13.51,0,0,0-13.5,13.5c0,7.5,13.5,21,13.5,21s13.5-13.6,13.5-21A13.51,13.51,0,0,0,1444,189.8Zm0,17.3a4.8,4.8,0,0,1-4.8-4.8h0A4.8,4.8,0,1,1,1444,207.1Z"></path> </g> </g> </svg> 