<?xml version="1.0" encoding="UTF-8"?> <svg xmlns="http://www.w3.org/2000/svg" xmlns:xlink="http://www.w3.org/1999/xlink" id="Layer_1" data-name="Layer 1" viewBox="0 0 1600 530"> <defs> <style>.cls-1{fill:none;}.cls-2{clip-path:url(#clip-path);}.cls-3,.cls-6{fill:#e8e8e8;}.cls-3{stroke:#fff;}.cls-3,.cls-4,.cls-5{stroke-linecap:round;stroke-linejoin:round;}.cls-4{fill:#fff;}.cls-4,.cls-5{stroke:#e8e8e8;}.cls-5{fill:#5599d3;}</style> <clipPath id="clip-path"> <rect class="cls-1" width="1600" height="530"></rect> </clipPath> </defs> <title>lift_map</title> <g id="South_East_STates" data-name="South East STates"> <g class="cls-2"> <path class="cls-3" d="M1316.2-13.6s-1.3,13.2.6,15.6,10.7,11.4,18.8,18.9,14.9,14.1,18.7,12.2,17.6,1,20.2-2.4S1389.6,13,1389.6,13s10.8,3.3,13.4,6.5,8.6,3.1,13.1,2.1,13.8-4.5,19.1-6.2,16-4.3,16.3-8a112.61,112.61,0,0,1,2.6-11.6s7.5,6.7,14.4,3.7,7.7-10.3,13-12,13,2.8,19.1,1.2,10.7-3.4,12.4-5.4,10.8-4.1,9.6-7.2a88.32,88.32,0,0,1-2.6-10.6s6.4-5.3,7.5-8.1-6.6-8.1-6.2-11.7,6.1-1.6,6.9-9.7,0.5-12.5,3.9-16.6,16.4-16.1,17.4-18.9,8.1-14,8.4-17.6-0.9-12.7,1.5-15.4,9.9-10.1,10.4-15.2,2.2-7.2,6.2-10.5,5-5.4,5.8-13.5,3.8-22.5,3.8-22.5,8.6-5,12.9-3.1,5.8,15.4,9.5,15.7,9.7,6.2,16.7,3.2,16.3-8,17.6-13,5-20.2,5-20.2,7.3-21.4,10-25.6,3.5-4.8,10.2-5.6,12.9,3.5,13.5-1.6,1.6-8,5.6-11.3,4.8-3.2,11.8-7,10.3-7.1,12.2-11.3,5.1-13.5,5.1-13.5,8.7-5.8,9.2-10.2,4.4-29.1,4.4-29.1,4.5-15.1,8.9-15.4,17,7.6,24.6,12.8,21.1,10.3,23.1,13.4,10.4,7,10.4,7,7.8-11.8,8.4-17.6,4.5-7.7,6.7-8.2h1.1c-4-5.5-7.5-9.5-7.5-9.5s-4.6-8.6-8.3-11.7-10.4-17.3-10.4-17.3l-6.6-2s-14.5-4.2-18.1-8.6-18.8-3.4-18.8-3.4l-8.5,11.1-7.3-.7-9.1,8.3s-2.6,7.1-9.3,10.1-17.9,3.7-19.4.8-9.7-13-9.7-13-3.6,7.9-5.7,10.5-7.9,13.9-7.9,13.9l-10.2.8s-10.1-.1-12.2,2.5-6.5,9.5-11.3,11.8-7.3,8.5-13.5,15.2-20.1,16.4-20.1,16.4l-4.1-81.4c-75.4,6.5-125.2,10.3-125.2,10.3l-12-140a40.61,40.61,0,0,1-7.2,2.4c-13.6,3.6-2.8,11.3,1,23.3s5.7,25.4-2,36.2-11.6,33.6-11.6,33.6-2.7,59.3-10.2,68.5-33.3,18.2-35.6,24.5-11.3,13.7-15.9,10-18.2-.2-23.7,5.9-3.3,16.2-11.7,17-8.7,4.1-9.7,13.9-11.7,17-11.7,17l5.1,15.4-8.2,15.7s-5.7-8.9-4.9-17-14.7-1.5-18.5,3.1-15.4,21.6-16.6,33.1,5.5,27,5.5,27-10.2,2.3-12.8,12-9.8,15.6-18.5,19.6c-4.9,2.3-8.6,5.6-11.3,6.7-0.4,6.6-1.5,15.4-4,19.8-4.5,7.7-5.9,21.6-.5,27.3s18.3,24,22.2,28.9,7.3,15.5,12,20.4,14,14.7,15.3,17.1,11.9,13.8,17.8,14.4c5.1,0.5,11,1.1,12.9,1.3h1.7Z"></path> </g> <g class="cls-2"> <path class="cls-3" d="M1483.8,148.5c3.5,2.2,21.7,27.2,285.9,1.1,192-19,263.8-67.7,296.9-71.5,2.7-3.3,6.8-22.1,5.1-25.2-1.8-3.3-9.1-29.9-9.1-29.9s-34-1.8-35.6-1.5-4.9,12.1-4.9,12.1-4.8-4.2-8.4-5.6-14.6,9.6-14.6,9.6,0.8-7.8.5-10.5-9.1-9.3-13.5-11.9-8.2-7.1-11.4-12.2-7.3-11.3-11.2-13.8-5.7-.6-8.8-1.4-10-5.2-12.7-4.4-7.9-.3-12.7-4.4-30.2-7.8-30.2-7.8,13.2-.3,20.2-2.2,13.2,5,16.3,5.3,7.2-3.5,10.2-2.1,10.7,8.4,14.4,8.8,9.6-1.1,12.6.2,3.6,10.9,6.5,13.8,17.1,18,21.3,18.5a21.6,21.6,0,0,0,12.8-1.9c4.4-2.2,8-6,8.3-9.7s-4.3-9.9-7-13.9-8.9-10.9-17.1-12.8-21.6-.1-28.4-15.5-17.4-20.2-17.4-20.2c11.5,0.6,24.9,18.8,26.8,21.1s10.4,6.3,17.2,7,4.8-5.8,4.8-5.8-6.7-6.5-3.2-9.8,3.6-4.4,10-.1,9.8,7.3,12.4,7,0.7-17.8.5-20.5-4.7-5.2-8.9-6.2-7.8-.8-9-5.1a13.64,13.64,0,0,0-7.5-9.2c-4-2-9.9-1-12.7-4.4s-8.2-7.7-11.5-11.7-15.1-12-19.9-16.7-13.8-14-22.8-24.9-27-19-27-19c13.6,0.3,29.1,14,33.8,19.7s18.9,16.1,24.3,19.8,26.2,22.1,29.1,25,13.6,0.3,13.6.3,8.9-9.6,5.8-15.7-5.2-11-1-11.2,5-8.4,4.2-10.1-12.4-7-15.9-9.5-20.7-8.4-24-12.4-16.5-9-20.6-10-20.2-3.1-22.6-5.4-7.5-9.2-11.9-12.2-12.4-12.3-15.7-11.1a121.66,121.66,0,0,1-12,4.1c-3.2.7-8.9-.4-13.5-1.9s-2.8-9.2-3.4-13,1.2-17.3,3.2-21.3,7.2-9.3,8.7-13.3c1.3-3.5,11.8-10.7,14.8-12.7,3-8.6-.8-20.7-2.3-24.6-1.8-4.6-8.3-5.3-14.5-10.3s-9.5-8.4-12.9-10.9-10.8-2.6-16.8-2.4-11-8.5-11.3-13-5.6-18.3-5.6-18.3-14.5-5.2-19.2-5.7l-2.6-.3a12.78,12.78,0,0,0-2.1.1c-2.3.5-5.2,2.2-5.8,8.1s-8.4,17.6-8.4,17.6-8.5-3.8-10.4-7-15.5-8.2-23.1-13.4-20.1-13.1-24.6-12.8-8.9,15.4-8.9,15.4-4,24.7-4.4,29.1-9.2,10.2-9.2,10.2-3.2,9.3-5.1,13.5-5.2,7.6-12.2,11.3-7.8,3.7-11.8,7-5.1,6.1-5.6,11.3-6.7.8-13.5,1.6-7.6,1.5-10.2,5.6-10,25.6-10,25.6-3.7,15.1-5,20.2-10.6,10-17.6,13-13-2.8-16.7-3.2-5.3-13.8-9.5-15.7-12.9,3.1-12.9,3.1-2.9,14.5-3.8,22.5-1.8,10.2-5.8,13.5-5.7,5.3-6.2,10.5-7.9,12.5-10.4,15.2-1.2,11.7-1.5,15.4-7.4,14.8-8.4,17.6-14.1,14.8-17.4,18.9-3.1,8.6-3.9,16.6-6.5,6-6.9,9.7,7.2,8.9,6.2,11.7-7.5,8.1-7.5,8.1a88.32,88.32,0,0,0,2.6,10.6c1.2,3.1-7.9,5.1-9.6,7.2s-6.3,3.8-12.4,5.4-13.8-2.9-19.1-1.2-6.1,9-13,12-14.4-3.7-14.4-3.7-2.3,7.9-2.6,11.6-11,6.3-16.3,8-14.6,5.2-19.1,6.2-10.5,1.2-13.1-2.1-13.4-6.5-13.4-6.5-12.5,14.3-15.1,17.7-16.3.6-20.2,2.4-10.6-4.8-18.7-12.2S1318.9,4,1316.9,1.6s-1.2-14.2-1.2-14.2,0.4-1.4.1-1.4c-3.7,3-9,7.4-13.2,10.8-7,5.7-17.6,14.3-23.3,23.4s-19.5,17.4-32.6,19.3-19.3,15.8-19.3,15.8L1226,69.7l-8.6,5.6s-6.2,13.9-17.9,17.5-17.2,11.2-17.2,11.2l-3,14.2-16.3,1.6s-8.3,2.4-23.3,7.3c-6.3,2.1-26.2,20-31,24.7C1131.4,151.4,1483,148,1483.8,148.5Z"></path> </g> <g class="cls-2"> <path class="cls-3" d="M1491.7,400.8c-10.3-6.5,0,0,.7-7.3s-7.6-15.4-15.6-27.2-16.3-1.6-16.3-1.6-6.2-11.6-11.6-12.2-141,.4-150.1-0.5-15.2,5.8-21.1,8.9-14.5-1.5-20.5,3.4-14.1,13.2-23.2,12.3c-7.6-.8-29.3,11.1-36.1,15-4.3,5.9-8.8,12-11.2,14.8-5.4,6.6-13.4,15.3-16.4,21s-8.3,11.1-1.7,16.5,16.4,2.8,19.3,9.1,9.1,16.4,14.8,18.2,14.3,0.2,19.9,3.2a28,28,0,0,1,13.8,16.9c2.7,8.6,5.9,24.4,12.5,29.8s15.9,19.5,19.7,29.4,20.1,12.7,27.9,18.3,9.3,14,13.5,19.2,10.5,14.1,13.7,18,12.5,6,16,6.4,4.8,11.2,9.5,11.7,10.5,2.2,9.8,9.3,3.3,14.6,6.6,17.3,5.9,12.5,12.7,15.6,13,13.2,17.6,14.9,16.7,11.2,16.7,11.2,5.2,7.7,5.5,16,14.7,7.4,12.6,16.7-6,12.5.2,21.5,5.4,17.2,12.5,17.9,13.8,16.9,17.2,18.4,8.4,11.5,8.6,21.1-4.4,19.8,1.2,23.9,13.6,7.3,18.3,7.8c2.2,0.2,10.1,2.3,17.9,4.5-1.7-3.4,1.8-5.6,3-8.1,1.3-3,4.8-11.6,6.5-12s2.5,1.3,7.1,2.3,8.3-4.4,9.5-5.9-0.5-5.8-6.4-10.1-9.4-11.5-13.5-17.1-4.8-14.7-2.6-16,2,0.7,5.3,5.3,5,12.6,8.2,12.9,5-12.6,5-12.6a23.69,23.69,0,0,1,1.8,8.1c0.1,4.2,5.5,7.9,9.8,12.5s6.9,4.4,11.4,1.7,4.1-9.6,2.3-12.4,5.7-4.2,5.5-7.3-7.2-6.5-11.8-8-11.9-2.2-15.7-6.3,6.7-3.5,10.9-4.1,14.2-.2,19.5-0.7a93.68,93.68,0,0,0,20-4.8,8.69,8.69,0,0,0,5.5-7.8,25.53,25.53,0,0,0,11.8-2c5.5-2.6,12.9-7.6,18.1-7.1s7.1-7.7,9.6-11.6-0.3-7.4-4.2-10.9-2.8-9.2-.7-9,5.6,1.6,5.8,4.8,10.7,3.2,14.9,3.1,6.1-8.9,6.9-11.4,7-6.7,11.4-8.9,1.4-8.8.2-12.6,3.8-6.5,6.6-8.3,7.9-.3,14.5,2.5,6.4-.9,8.4-4.9a60.12,60.12,0,0,1,7.4-10.8c2.4-2.9-2.7-9.2-2.7-9.2s7.7,1.8,12.6.2-0.9-6.4-7.8-21.3,1.1-20.9,1.1-20.9a106.24,106.24,0,0,0,2.4,12.3c1.6,5.4,10.5,5.3,10.8,2.7s2.2-21.4,4.4-23.2,12.6-15,19-26.5,19.5-21.2,29-31.8c4.2-4.7,11.2-9.6,18.9-13.8l-156.6-138C1629.9,392.7,1502.1,407.3,1491.7,400.8Z"></path> </g> <g class="cls-2"> <path class="cls-3" d="M1198,391.7c6.9-3.9,28.5-15.8,36.1-15,9,0.9,17.2-7.4,23.2-12.3s14.7-.4,20.5-3.4,12-9.8,21.1-8.9,144.7-.1,150.1.5,11.6,12.2,11.6,12.2,8.4-10.1,16.3,1.6,16.3,20,15.6,27.2-11.1.7-.7,7.3,138.1-8.1,138.1-8.1l156.6,138c9.6-5.2,20.3-9.2,27.7-9.9,13.3-1.3,35.3-.7,38.6-1.4s8.8-8.6,9.7-12.7-1-26.4-1-26.4,5.4,9.5,9,9.9,1.4-8.3,1.7-11.9a59.44,59.44,0,0,1,4.7-15.3c2-4,6-13.1,7.5-17.1s23.1-15.6,30.6-21.1,11.1-6.2,9.9-9.5-6.9-4.4-4.4-8.9,0.7-12.6.7-12.6c4.6,1,4.5,7.3,5.3,10s8.6,3,11.4,2.2,7-12.5,10.6-16.8,9.2-8,14.9-7.4,5.2,5.8,10.6,4.2,5.3-5.8,9.3-8.5,12.4,1.8,15.9-1,5.4-11.6,5.4-11.6l8,4.5,3.3-6.5s8.7,8.2,12.8,8.7,5.9-6.3,7.5-11.9,6.2-9.4,9.7-13.2,10.2-7.4,11.1-10.5,0.8-13.1-3.4-13.5-3.1,4.4-6.2,9.4-7.7,2.9-9.3-1.5,0.3-13.6.3-13.6-7.8,4.5-10.3,7.9a19.32,19.32,0,0,1-12.3,7.2c-4.8.6-6.6,2.5-11.6,5.1s-7.3,5-12.6,4.5a68.38,68.38,0,0,1-17.5-3.9c-5.6-2.1-9.7-13.1-13-17.1s-10.2-8.9-10.2-8.9,10.7,3.2,18.1,8.1,16.2,11.6,20.9,12.1a22.22,22.22,0,0,0,17.3-5.1c6.3-5.2,12.4-18.7,10.5-21s-2.7-5,.6-11,16.1-13.6-14.7-20.9-46.5-18.9-46.5-18.9c3,1.4,17.9,5,20.9,6.3s9.8,1.5,14.4,3,12,0.7,13.2-.8,1.1-5.7.7-12,8.6-12.8,8.6-12.8c-4.2,5.4-1,9.9-1,9.9s2.2,9.2,6.1,12.2,10-5.3,10-5.3,5.6,6.9,10.3,7.4,15.9,4.2,21.1,4.8,8-.8,12-4.6,9.2-12.7,11.1-16.8,6.7-14.1,9.6-16.9a18.49,18.49,0,0,1,10-5.3c3.8-.7,9.7-2.7,12.8-6.6s-5.6-12.1-5.4-14.2-0.1-14.7-2.7-20.3-6.5-13.3-10.4-12.1-2.4,8.2-6.1,8.3-11.1.5-12.1,5.1,1.4,7,1.9,12.8-1.5,9.8-4.1,14.8-9.1,6.5-8.8,3.3,4.8-6.3,3.1-9.7-8.3-6.1-7.1-7.6,6-12.5,6.6-18.8-6.7-12.3-11.9-12.8-10.2,2.1-12.5,4-4.9,6.9-9.2,7.5-7.1-2.8-14-1.9a84.52,84.52,0,0,0-18.4,5c-4.4,1.7-14.7.1-14.3-4.6s8.3-1-10.4-16.8c-15.5-13.1-3.7-31.4-3.7-31.4s2.1,16,4.2,20.9,15.5,13.7,19.5,15.1,11.5,0.6,16.5-1.5,4.3-16.4,6.9-16.7,10.4-4.2,12.6-4.5,11.9,2.3,16.6,2.2,4.6-3.7,3.9-7.5-19.4-16.2-19.4-16.2a147.77,147.77,0,0,1,15.6,1.6c5.7,1.1,22.2,14.9,22.5,11.7s-5-17.9-5-17.9c4.6,1,24.2,31.4,23.9,29.2s-7.9-25.5-9.6-29.9-13-17.1-17.7-22.8-4.5-10.7-1.8-11.5c0.2-.1-0.9,28.3-0.7,28.1-33.1,3.9-109.7.8-301.6,19.8-264.3,26.1-399.8,18.1-402,18.3-5.4,27.8-9,22-14.6,26.5-6.1,5-13.6,4.3-16.6,15.3s-15.3,21-15.3,21a99.27,99.27,0,0,0-16.6-3.5c-7.5-.8-15.7,5.9-21.8,11s-19.4,24.4-26.1,16.2-14.4-7.1-14.4-7.1l-12.9,15.6-7.4-.7s-8,23.7-14.4,30.6-20.5-2.1-31,8.2-17.9,9.5-24,14.5-12.7,13.8-20.1,13-14.5-5.2-32.4,4.3-25.8,10.7-26.5,18.2-22.8,12.2-22.8,12.2-20,15.3-26.6,24.1c-4.2,5.6,12.1,21.4,11.7,31.6,123.7-2.6,165.4-4.4,165.4-4.4a28.1,28.1,0,0,0,2.6-1.4h0Z"></path> </g> <g class="cls-2"> <path class="cls-3" d="M427.2,220.5s-29.8-51.1-28.7-48.3c2.7,0.1-5.1-7.9-1.9-7.8,2.6-10-5.7-15,2.1-14.2,8.4,0.8,20.9-2.8,20.9-2.8s8.9-3.9,5.9-10.3,4.7-10.4,4.7-10.4,3.3-20.3,3.9-26.3c0.4-4.1-3-9.6-7.4-12.9h0.1a13.76,13.76,0,0,0-6.8-3c-7.2-.7-12.1,0-15.2-5.2s-12.2-23-16.2-31.9,8.6-13.7,10.2-17.1S387.9,6.2,387.9,6.2s-2.1-14.8-2.7-20.9-13.1-14.6-19.3-25S356.6-55.2,348-54.8s-7.3.5-16.3-6.5-36.2-37.6-40.4-44.1-5.4-18.7-3.3-27,10.9-24.3,13.9-30.1,13.3-24.1,14.3-33.7-3.2-16.1-8.7-21.5-30.3-11.5-30.3-11.5-14.3-2.6-7.8,5.3,6.2,10.3-2.2,9.5S242-229.1,247.7-237s-0.9-26.8-1.7-31.7-2.6-10-15.1-18.5-22.7-15.6-23.3-21.7-1.3-11-1.3-11-15.5-14.9-22.2-20.4-12-13.3-13.7-20.8-5.5-41.8-9.7-48.2-1.5-32.9,1.6-39.8c1.2-2.8,4.7-4.6,8.4-6.2L137-493.5c-177.1,2.1-417.8-23.8-472.5-29.9a22.47,22.47,0,0,0-1.1,10.1c0.8,7.1,4.7,7.5,5.7,13.9s5.3,9.1,7,15.6,11.3,12.1,16,19.6,0.7,8.7,3.5,12.1-1.9,11.5,2,19,13.6,12.3,19.5,16.1,8.8,14.2,12.6,15.4,8.8-2.2,8.8-2.2,14.3,5.3,19.4,9.8,1.5,8.8-1.5,14.7-10.8-1.9-11.9,1.9-8.7,16.3-14.8,22.8,6.9,17.1,11.9,22.3,10.2,7.3,9.6,13.5,0.5,11,4.6,16.1,6.5,13.2,13.4,14.7,11.5,9.8,11.5,9.8S-235.2-65-243.8,50.5l-0.7,6.7c-2.6,35.1-4.5,60.6-4.9,67.3-0.2,2.4-.3,6.2-0.4,10.8,37.1,2.8,158.5,11.5,287.9,16.7,155.5,6.2,245,10.5,255.9,11.6s20.4,16.3,19.3,27.2-8.3,19.7-20,26.4-20.8,18.4-13.3,22.3,10.6,4.2,24.8,4.1c9.4-.1,36,0.2,52.9.3C356.4,240.1,427.2,220.5,427.2,220.5Z"></path> </g> <g class="cls-2"> <path class="cls-3" d="M526.7,691.8c5.3-34.3,35.5-261.9,34.3-267.5-0.8-3.4-12.7-24.6-17.4-32.5-135.8-1.1-231.2,6.5-262.6,5.5,1,2,3.6,7.8,3.2,11.7-0.5,4.8-7.1,10.2-7.1,10.2L260,421l1.6,8.6s-9.3-3.4-17,.7,4.3,17.4,4.3,17.4l-11.2,2.5a62.24,62.24,0,0,0,9.6,13.1c5.5,5.4-2.1,8.3-4.9,12.8s-3.2,8.2-9,17.3-13.3-.1-13.3-0.1l-11.3,15.8a102.85,102.85,0,0,0-13.2,10.8c-5.4,5.5,2.1,26.9,2.1,26.9l-19,7.8-2.3,22.8s-7.9,6.5-11.9,9.7,3.7,11.3,3.7,11.3L150,599l9.3,15.4-9.4,8.8,8.5,11.8s-2,8.3,2.6,10-1.1,10.8-.4,15.7,11,22.9,11,22.9-13-3.7-15.5,9.3c-1.2,6-4.5,11.2-7.8,15.1l3.8,0.2s-6.2,1.8-2.4,11.9,10-2.6,13.3.1-7.7,16.2-7.7,16.2,3.5,13.7,6.9,15.2-1.2,12-4.9,12.8-4.3,6.8,1.7,7.4,10.2,7.1,10.2,7.1l-7.8,5.3,3.9,8.9s-3.6,11.8,2.3,13.6,14.7,10,14.7,10-1.3,13.2-7.5,13.8-26.3,8.3-26.3,8.3l20,5.7s-1.4,14.4-9.8,13.6,3.9,8.9-6,11.5-12.4,14.5-19.9,17.4-13,8.4-10.9,12.2,4.8,12.6-2.8,15.5-6,11.5-10.3,18.3-11.3,15.8-10.5,19.6,3.5,13.7-2.9,16.7S82.9,985,82.9,985s4.4,4.1,2.4,12.4-3.9,14.2.7,17-3.2,8.2-3.2,8.2l251.1,9.5s-1.2,24.1-9.1,30.6-4.6,21.3,1.4,34.1,16.4,29.7,17.6,29.8,3.4,14.7,4.1,19.6c0.5,3.4,7.2,9.2,16.4,12.9,4.3-.2,3-2.6,5-3s3.6-4.4,5.1-5.9,6.8-3.8,9.8-5.4,5.4-6.5,8.8-8.4,11.4,1.5,14.5,1.5,5.2-4.4,7.5-4.2,4.7,0.5,6.5-4,13.1,0.4,15.7,0,4.6-4.9,6.9-5.4,7.6,0.4,11.4,1.1,5.9,5.1,8.6,6.6,6.4,2.9,12.5,3.2,5.2-4.3,10-4.4,5,1.1,7.6,3.6,8.1,2.4,12.2,2.8,3.6-1.5,4.3-4.7c0.1-.7,1.6-1,3.7-1.2-3-52-11.4-204.8-10.1-218.3C506.1,896.6,521.4,726.1,526.7,691.8Z"></path> </g> <g class="cls-2"> <path class="cls-3" d="M1301.5-15.1c-5.9-.6-16.5-12-17.8-14.4s-10.6-12.2-15.3-17.1-8-15.6-12-20.4-16.9-23.1-22.2-28.9-3.9-19.6.5-27.3c2.6-4.4,3.6-13.2,4-19.8-2.1.9-3.6,0.5-4.8-2.5-2.6-6.9-18.3-24.3-23.1-26.4s-13.9-9.7-14.6-19.7-9.7-2.6-16.4-1.7-16.2,13.3-21.6,17.7-13.3.3-22.4-7.2-19-8.5-22.8-4-17.5,9.8-25.1,2.4-25-14.1-25-14.1-21.1-3.8-27.7-4.4-6.2-20.5-13.7-27.9-23.4-13.9-28.3-14.4c-3.8-.4-21.3-1.2-31.9.5v0.2c-0.6.1-1.2,0.2-1.7,0.3l-6.7,3.5c-3,4.7,3.4,12.2.2,16.2-3.8,4.6,5.7,8.9,5.7,8.9s3.9,10.3,3.4,15.2-12,3.8-19.8,6.3-25.1,12.4-25.1,12.4l-5.9-7.2s-13.3.3-21.5-.5-7.9,12.4-.5,21.5-3.1,14.6-5.3,19.3-17.4,8.2-17.4,8.2-4.4,11.1-8.5,19-14.3,10.1-20.8,9.5-8.2,15.7-7.4,24.1-7.9,12.4-16.7,18.2-16.4-1.7-20.5-10.3-6.7-15.6-16.5-16.6-7.5,9.2-14.7,15.1-12.2,21.9-13,30.1-12.9-3-12.9-3S721.8-64,705.2-64s-16.9,19.8-24.4,29-9.3-5.9-13.6-12.9-15.7-8.2-23.9-9-16.1-4.9-21.2,12.8-7.4-9-12.6-6.2c-4.2,2.2-8.9-2-15-2.4l-9.6,5c-0.1.5-.6,4.6-1.1,8.3-0.1,1.2-.1,2.4-0.3,3.7h-0.2a24.36,24.36,0,0,1-.4,2.6c-2.5,8-11.6.5-11.6,0.5s-10.8,8.8-13.6,20.1,5.1,15.4,4.4,22-13.3.3-20.3,4.6-10.8,8.8-24.1,9.2S509.3,40.7,520,50s-0.4,19.8-4.3,26S493.1,70.4,471,59.9s-21-5.4-29.8.3c-6.3,4.1-12,19-14.8,27.4,4.4,3.4,7.8,8.9,7.4,12.9-0.6,6-3.9,26.3-3.9,26.3s-7.7,4.1-4.7,10.4-5.9,10.3-5.9,10.3-12.5,3.6-20.9,2.8c-7.8-.8.5,4.2-2.1,14.2,51.6,2.5,165.5,7.7,170.1,5.2,6-3.2.9-26.2,0.9-26.2s17.2-4,26.2.7,73,3.6,95.8,2.1,90.6-2.2,105.5-.7,69,5.2,119.6,6.6,146.9,0.5,161.8,2,26.5,0.5,32.1.3c4.8-4.7,24.7-25.1,31-27.2,15-4.9,23.3-7.3,23.3-7.3l16.3-1.6,3-14.2s5.6-7.5,17.2-11.2S1217,75.5,1217,75.5l8.6-5.6,1.4-14.4s6.2-13.9,19.3-15.8,26.8-10.2,32.6-19.3S1295.2,2.7,1302.2-3c4.2-3.4,8.4-7.9,12.1-11C1312.8-14,1306.6-14.6,1301.5-15.1Z"></path> </g> <g class="cls-2"> <path class="cls-3" d="M170.7-455.3c-3.7,1.6-7.2,3.4-8.4,6.2-3.1,7-5.8,33.3-1.6,39.8s8,40.8,9.7,48.2,6.9,15.2,13.7,20.8,22.2,20.4,22.2,20.4,0.7,4.9,1.3,11,10.8,13.2,23.3,21.7,14.4,13.6,15.1,18.5,7.3,23.8,1.7,31.7,11.1,21.7,19.5,22.6,8.6-1.6,2.2-9.5,7.8-5.3,7.8-5.3,24.8,6.1,30.3,11.5,9.7,11.9,8.7,21.5-11.3,27.9-14.3,33.7S290-140.7,288-132.4s-0.9,20.5,3.3,27,31.4,37.1,40.4,44.1,7.8,6.8,16.3,6.5,11.6,4.8,17.9,15.1,18.7,18.8,19.3,25,2.7,20.9,2.7,20.9,12.5,20.6,10.9,24.1-14.2,8.3-10.2,17.1,13.1,26.8,16.2,31.9,8,4.4,15.2,5.2a13.76,13.76,0,0,1,6.8,3c2.8-8.3,8.5-23.3,14.8-27.4,8.9-5.7,7.7-10.8,29.8-.3S512,82.1,516,75.9s14.9-16.7,4.3-26S504.7,23.5,518,23.2s17-4.9,24.1-9.2,19.7,2,20.3-4.6-7.2-10.7-4.4-22,13.6-20.1,13.6-20.1,9.2,7.5,11.6-.5a24.37,24.37,0,0,0,.6-2.6c-8.6-1.9-20.3-5.7-19.6-13.1,1.2-11.5,7.2-22.6,7.9-29.2s2.2-21.4,4.5-27.8,13.3-17,22.6-26,15.5-21.7,18-29.8,6.3-12.7,11.9-18.8,9.6-12.4,5.1-17.8-3.4-15.3-3.4-15.3l-9.5-20.9s-4.9-17.1-2.8-21.9,6.6-16,6.6-16l5.9-9.4,3.7-380.6c-2.3-4.7-4.9-10.3-8.1-14.2-5.9-7.3-6-15.9-5.5-20.6s-2.5-12.7-7.7-17.9S607.3-730,602-734.4s-4-16.6-2.2-25c1.3-6.1,2.6-12.1,2.7-17.6-99.5-.8-278.8-8.8-328.4-11,2.4,7,9.9,13.5,17.6,17.3,9.2,4.6,12.9,15.8,15.7,24.6s0,0,7.7,8,11.4,19.3,17,23.5-4.5,20.1-4.5,20.1l-3.1,19.1-14.6,13.1s-4.5,20.2-4.9,24.9-8.8,2.8-16,2-16.2,4.4-21.5,8.7-22.4,6.2-29.7,5.5-13.5,2.3-14.3,9.5-6.6,17.5-6.1,24.8,1.7,7.4,6.1,11.5,11.6,16.9,11.6,16.9l-1.4,14.4s-13.4,13.2-16.3,17.7-3.7,13-4.4,20.2S193.8-496,193.8-496s-18,10.3-17.3,15.2,5.2,9,5.6,16.3c0.1,4.7-5.9,6.7-11.4,9.2h0Z"></path> </g> <g class="cls-2"> <path class="cls-3" d="M968.7,1030c2.6,7.5,6.2,16.3,10.6,22.6,7.1,10.1-.7,20.1,7.3,20.9s331.8,6.5,338.4,7.2,19.9,3.4,20,15.5,5.9,22.1,12.8,20.1,9.7-16.5,11.7-23.1,4.4-17.1-2.9-24.5-4.5-22,7.9-24.8,28.9,7,28.9,7,19.1,5.5,38,5.1a5.47,5.47,0,0,1-1.4-2.5c-1.1-4.8.3-8.4-2.4-12.4s-4.1-6.2-3.4-13,3.5-8.6,3.9-12.2,3.4-7.6,4.6-14.3-5.3-10.5-6-13.2,10.1-1.1,11.5-4.1,14-13.8,13.8-16.5a7.94,7.94,0,0,0-7.2-7c-4.7-.5-11.9-7.5-11.9-7.5s11,0.1,11.3-2,8-6,12-9.8,2-9.3.4-9.4-6.6-8-3.6-11.4,2.4-7.7,8.6-7,7.8-9.2,1.7-11.9-8.5-4-7.9-5.5,13.8-6,15-8.5-3.4-8.2-7.3-11.3,3.4-12.8,7.5-11.3,6.9,4.9,9.4,5.7,5.9-1.5,8.1-7.1,4.5-3.2,9.1-7,6.7-9.3,1.4-14a11.38,11.38,0,0,1-1.9-2.3c-7.8-2.2-15.7-4.2-17.9-4.5-4.7-.5-12.7-3.7-18.3-7.8s-0.9-14.4-1.2-23.9-5.2-19.6-8.6-21.1-10.1-17.7-17.2-18.4-6.2-9-12.5-17.9-2.4-12.1-.2-21.5-12.3-8.4-12.6-16.7-5.5-16-5.5-16-12.1-9.6-16.7-11.2-10.7-11.8-17.6-14.9-9.4-12.9-12.7-15.6-7.3-10.3-6.6-17.3-5.1-8.8-9.8-9.3-6-11.3-9.5-11.7-12.8-2.5-16-6.4-9.4-12.8-13.7-18-5.8-13.7-13.5-19.2-24.2-8.4-27.9-18.3-13.1-23.9-19.7-29.4-9.8-21.2-12.5-29.8a28,28,0,0,0-13.8-16.9c-5.7-3-14.1-1.4-19.9-3.2s-11.9-11.9-14.8-18.2-12.7-3.7-19.3-9.1-1.3-10.8,1.7-16.5,11-14.4,16.4-21c2.4-2.9,6.9-8.9,11.2-14.8a20.81,20.81,0,0,1-2.2,1.2s-36,1.7-159.7,4.4l0.5,1.1c-43.9.9-99.3,0.9-167.6,2,8,30.2,28.8,110.8,39,169.8,12.7,74,26,142.6,26.7,149.4s6.2,31.6,9.6,38.6,7.6,18.3,9.7,23.9,17.7,11.2,15.8,16.4-7.7,23.4-7.7,23.4,12.5,9.3,10.7,14.5-14.5,10.7-15.2,17.3-3.5,21.2-5.3,26.4a90.83,90.83,0,0,0-4.8,21c-0.8,8,4.8,19.3,7,23.6a41.22,41.22,0,0,1,4,27.3c-2.7,13.2-3.8,37.3-4.6,45.3s9.3,14.4,11.3,21.3c0.8,2.7,2,6.7,3.5,11.2h0Z"></path> </g> <g class="cls-2"> <path class="cls-3" d="M281,397.2c-0.2-.5,65.9-0.8,65.9-0.8S425.8,248.1,424,243.6c-16.9-.2-109.8-0.4-119.2-0.3-14.2.1-17.3-.2-24.8-4.1s1.6-15.6,13.3-22.3,18.9-15.4,20-26.4-8.4-26.1-19.3-27.2-100.4-5.4-255.9-11.6c-129.4-5.2-250.7-13.9-287.9-16.7-0.4,15.9-.3,41.3,1.4,52.9,2.2,15,2.9,53.8,2.9,53.8s3.7,64,2.2,87.8c-1.2,20.2-19.4,201.1-24.8,255.1,3,3.3,7,8.4,8.7,10.1,2.2,2.3.7,6.7,5.4,5.1s4.8-6.2,9.4-6.1,19.1,5,23.6,5.9,9.6,5.5,9.6,5.5l-5.6,81.2L148.5,708c3.3-3.9,6.6-9.2,7.8-15.1,2.5-13.1,15.5-9.3,15.5-9.3s-10.3-18-11-22.9,5-14,.4-15.7-2.6-10-2.6-10l-8.5-11.8,9.4-8.8L150.2,599l18.2-.6s-7.7-8-3.7-11.3,11.9-9.7,11.9-9.7l2.3-22.8,19-7.8s-7.5-21.4-2.1-26.9A102.85,102.85,0,0,1,209,509.1l11.3-15.8s7.6,9.2,13.3.1,6.1-12.7,9-17.3,10.4-7.4,4.9-12.8a62.24,62.24,0,0,1-9.6-13.1l11.2-2.5s-12-13.3-4.3-17.4,17-.7,17-0.7L260,421l17.2-1.9s6.6-5.4,7.1-10.2c0.3-3.9-2.3-9.7-3.3-11.7h0Z"></path> </g> <g class="cls-2"> <path class="cls-3" d="M645.2,1109.1c-4.8-5.9-7.5-6.1-4.1-12.5s5.1-10.3-3.7-16.5-21.8-23.7-20.9-33.1,2.9-15.9,43.3-15.8c35.2,0,253.4-.9,308.9-1.2-1.6-4.5-2.8-8.5-3.5-11.1-2-6.9-12.1-13.3-11.3-21.3s1.9-32.1,4.6-45.3a39.87,39.87,0,0,0-4-27.3c-2.3-4.3-7.8-15.6-7-23.6a90.83,90.83,0,0,1,4.8-21c1.9-5.2,4.7-19.7,5.3-26.4s13.3-12.1,15.2-17.3-10.7-14.5-10.7-14.5,5.9-18.2,7.7-23.4S956.1,788,954,782.4s-6.4-16.8-9.7-23.9-8.9-31.8-9.6-38.6S920.8,644.5,908,570.5c-10.2-59-35.3-152.3-43.3-182.5-14.6.2-31.7,3.5-47.6,3.8-98.8,1.5-192.3.7-273.6,0.1,4.7,7.9,16.6,29.1,17.4,32.5,1.3,5.6-29,233.3-34.3,267.5S506,896.7,504.3,913c-1.4,13.5,7.1,166.3,10.1,218.3,7.3-.6,22.8,1.4,22.8,1.4l14.5,2.1,2.2-24.7s2-23.1,3.7-27.4,9.8-1.9,13.4.1,7.2,14.1,6.7,19.5-3.2,6.7-3.8,15,7,12.5,10.3,15.4,9.5,7.3,8.5,10.4-12.2,7.2-8.8,7.6,17.1,1.7,17.1,1.7,15.8,1.6,17.7-4.4,1.4-7.8,1.4-7.8,9.6,0,12.5-3.5,7.8-11,8.7-13.8a8.91,8.91,0,0,1,3.5-4.1C646.1,1114.2,646.5,1110.7,645.2,1109.1Z"></path> </g> </g> <g id="Tennessee"> <g id="TN_Counties" data-name="TN Counties"> <polygon class="cls-4" points="565.7 164.1 566.6 157.5 565.9 150.5 562.1 135.1 587.3 136.8 589.5 141.2 609.6 140.7 616.3 140.6 622.7 184 608.8 184.2 599.7 189.4 592.4 190.2 583.9 189.1 579 186.6 573 186.7 572.1 185.1 564.7 173 564.4 171.7 566.2 168.6 565 166.4 565.7 164.1"></polygon> <polygon class="cls-4" points="728.3 179.7 725.5 181.3 725.2 185.8 720.3 187.7 710.6 181.5 708.1 182.1 700.6 185 681.2 169.7 682.6 157.1 679.6 153.5 681.4 150.8 682.8 139.6 688.4 139.7 725.9 139.5 758.6 139 753.8 140.8 751.9 142.9 751.8 145 743.5 157.7 741.7 166.8 736 175.2 729.9 176.1 728.3 179.7"></polygon> <polygon class="cls-4" points="788.1 187.8 786.6 188.4 786 193.2 783.3 192.6 778.5 194.6 780.1 188.8 779.5 187.8 776.4 187.3 774.8 194.4 773.3 194.4 768.3 190.1 760.3 194.1 759.6 197.9 758.4 198.5 756.6 197.3 755.6 192.7 754.4 192.5 753.1 194.5 751.9 202.5 749.7 203.8 745.5 204 744.2 202.9 738.1 191.1 728.3 179.7 729.9 176.1 736 175.2 741.7 166.8 743.5 157.7 751.8 145 751.9 142.9 753.8 140.8 758.6 139 770.6 139.7 797.9 140.9 794.9 159.1 797.2 159.9 796.1 164.4 793.5 164.4 792.9 166.6 794.4 166.7 794 170.4 790.6 170.5 789.6 184.4 787.8 186.1 788.1 187.8"></polygon> <polygon class="cls-4" points="632.4 188.8 623 187.4 622.7 184 616.3 140.6 653.3 140 682.8 139.6 681.4 150.8 679.6 153.5 682.6 157.1 681.2 169.7 677.4 171.6 678.6 175.6 676.5 176.4 674.6 174.2 673.4 176.6 665.6 182.6 664 186.5 662.4 186.6 661.6 191.5 651.3 191.7 632.4 188.8"></polygon> <polygon class="cls-4" points="826.2 175.1 803.5 172.7 800 166.3 796.2 165.5 796.1 164.4 797.2 159.9 794.9 159.1 797.9 140.9 825.4 142.5 850 143.5 847.4 162.6 845.4 176.7 826.2 175.1"></polygon> <polygon class="cls-4" points="847.4 162.6 850 143.5 893.8 144.9 911.1 143.6 914.6 143.7 913 157 901.4 161.4 901.7 164.6 898.7 164.2 898.2 161.7 893.2 164.1 890.1 167.2 887.3 172.4 887.4 177.5 883.3 174.9 878.8 168.4 862.2 163.2 860 160.1 857.1 161 858.9 163.1 855 163.5 851.6 161.4 847.4 162.6"></polygon> <polygon class="cls-4" points="982.9 159.2 975.7 158.8 967.8 153 962.2 151.2 955.9 150.3 946.7 153.8 943.6 159.6 941.6 159.6 938.8 163.5 937.2 176.8 935.2 177.4 932.6 177.1 930.9 170.2 923.5 161.2 913 157 914.6 143.7 949.1 144.4 975.2 146.9 976.4 146.9 982.9 159.2"></polygon> <polygon class="cls-4" points="1359.4 180.6 1359.5 185.3 1363.4 189.7 1360.7 190.4 1348.1 189.6 1337.9 196.5 1335.2 200.8 1333.7 200.6 1327.2 194.3 1327.1 190.4 1322.9 187.4 1320.7 183.4 1333.2 168 1328.5 163 1337.4 151.9 1348.3 145.9 1370.5 146.5 1368.3 149.4 1364.2 160.5 1364.8 168 1359.4 180.6"></polygon> <polygon class="cls-4" points="1027.6 207.6 1023.4 214.7 1019.1 215.7 1015.3 209.1 1005.2 204.3 1002.6 205.5 1002.9 199.8 1000 197.7 998 199 987.5 184 989.4 180.9 992.5 179.9 988.1 173.3 982.9 159.2 976.4 146.9 1042.5 148.5 1042.8 148.5 1042.4 151.7 1043.9 157.7 1042.1 161.9 1038.5 163.2 1035.2 162.1 1033.5 162.7 1031.2 170.6 1032 177.6 1035.1 180.9 1033.8 185.1 1034.1 197.7 1028.3 200.1 1027.6 207.6"></polygon> <polygon class="cls-4" points="1166.2 180.3 1163.5 181.3 1160.2 178 1157.2 177 1154.3 177.6 1153.4 176.2 1154.9 169.6 1152.8 162.3 1149 154.6 1142.3 147.9 1166.1 147.7 1169.5 149.3 1174.2 149.6 1202.5 149.1 1219.7 149.2 1207.1 156.5 1205.3 155.1 1203.3 156 1201.7 153.2 1192 157.5 1185.9 161.6 1178 172.1 1175.7 171.8 1176.3 176 1166.2 180.3"></polygon> <polygon class="cls-4" points="1142.3 147.9 1149 154.6 1152.8 162.3 1154.9 169.6 1153.4 176.2 1151.5 177.3 1150.1 175.8 1145.2 179.1 1143.3 181.9 1143.8 184.1 1142.9 185 1139.3 183.5 1138.4 183.9 1138.5 185.7 1136.5 184.7 1135.6 186.4 1134.5 185.5 1132.6 186.6 1128.9 184.9 1118 190.6 1116 188.8 1113.9 185.8 1112 186 1111.2 188.2 1107.8 188.8 1106.8 182.9 1102.1 178.6 1102.3 176.6 1099.5 175.3 1095.7 175.8 1094 173.8 1088.1 176.1 1087.1 175.4 1084.2 174.5 1083.1 171.1 1083.7 169.4 1074 149 1082.9 149.1 1113.2 150.2 1115.8 148 1142.3 147.9"></polygon> <polygon class="cls-4" points="1027.6 207.6 1028.3 200.1 1034.1 197.7 1033.8 185.1 1035.1 180.9 1032 177.6 1031.2 170.6 1033.5 162.7 1035.2 162.1 1038.5 163.2 1042.1 161.9 1043.9 157.7 1042.4 151.7 1042.8 148.5 1074 149 1083.7 169.4 1083.1 171.1 1084.2 174.5 1087.1 175.4 1087 179.9 1081.5 180.1 1079.5 181.5 1078.9 198.7 1078 199.1 1076.8 197.9 1072.8 199.6 1071 196.4 1065.1 207.1 1063.4 207.1 1060.5 204.8 1046.8 204.1 1045.3 214.4 1041.6 212.2 1037.3 207.6 1033.5 209 1027.6 207.6"></polygon> <polygon class="cls-4" points="935.2 177.4 937.2 176.8 938.8 163.5 941.6 159.6 943.6 159.6 946.7 153.8 955.9 150.3 962.2 151.2 967.8 153 975.7 158.8 982.9 159.2 988.1 173.3 992.5 179.9 989.4 180.9 987.5 184 984.5 184.5 980.5 189.3 977.3 189.7 975.5 192.9 975.9 195.8 965.8 197.6 963.7 206.7 961.5 209.5 961.8 215.5 960.8 217.9 958.9 219.2 957.8 217.2 956.2 217.7 953 216.5 951.6 217.9 948.3 217.5 945.9 215.2 943.8 217.8 939.5 220 937 219.4 934.3 218.2 939.2 210.1 934.1 193.7 935.2 177.4"></polygon> <polygon class="cls-4" points="935.2 177.4 934.1 193.7 939.2 210.1 934.3 218.2 925.8 217.8 907.5 209.6 908.1 206.6 898.1 204.8 890.6 197.7 890.8 194 887.1 193.6 887.4 177.5 887.3 172.4 890.1 167.2 893.2 164.1 898.2 161.7 898.7 164.2 901.7 164.6 901.4 161.4 913 157 923.5 161.2 930.9 170.2 932.6 177.1 935.2 177.4"></polygon> <polygon class="cls-4" points="849 201.8 845.9 202.6 842.3 198.7 845.4 176.7 847.4 162.6 851.6 161.4 855 163.5 858.9 163.1 857.1 161 860 160.1 862.2 163.2 878.8 168.4 883.3 174.9 887.4 177.5 887.1 193.6 886.2 195.4 887 195.5 886.9 197.6 885.5 197.8 882.8 203.4 881.2 203.9 878.9 207 876.1 205.3 872.5 205.8 871.6 208 854.5 204.8 849 201.8"></polygon> <polygon class="cls-4" points="1300.6 219.1 1297.5 210.6 1293.8 208.7 1294.6 205.4 1289.3 201.7 1284.2 201.6 1283.7 199 1288.7 185.6 1289 180.1 1295.9 175.8 1306.8 176.3 1313.8 170.6 1318.1 169.8 1322.9 165.4 1327.1 164.7 1328.5 163 1333.2 168 1320.7 183.4 1322.9 187.4 1327.1 190.4 1327.2 194.3 1333.7 200.6 1335.2 200.8 1324.2 221.8 1317 226.5 1311.9 227.1 1307.4 220.3 1300.6 219.1"></polygon> <polygon class="cls-4" points="385.5 208.4 384.1 208.1 383.5 212.7 367.2 213.4 359.8 207.5 357.5 204.4 357.6 202.6 360.6 202.2 367.2 204.4 376.9 201.8 377.6 200.6 376.8 198.1 368.7 193.8 366.6 189.6 368.8 186.4 376.5 187.9 379.7 186.3 379.6 179.1 376.4 172.9 380.1 168 377.9 163.8 385.1 163.8 383.1 169 385.8 172.1 388.6 170.4 392.8 163.1 401.4 163.1 402 166.2 398.5 172.2 399.4 177.9 394.6 186.2 394.2 191.9 387.8 206.9 385.5 208.4"></polygon> <polygon class="cls-4" points="385.5 208.4 387.8 206.9 394.2 191.9 394.6 186.2 399.4 177.9 398.5 172.2 402 166.2 401.4 163.1 466.5 163.6 467 163.6 469 168 468.7 178.2 466.5 177.5 459.2 181 456.3 180.3 454.8 177.9 451.7 178.2 450.6 206.6 450.1 210.5 425.4 210.1 385.5 208.4"></polygon> <polygon class="cls-4" points="506.5 163.6 504.6 217.9 504.1 223.3 489 223.7 488.8 231.6 483.9 231.6 477.5 227.2 475 224 467.6 222.3 459.3 214 454.5 212.4 450.6 206.6 451.7 178.2 454.8 177.9 456.3 180.3 459.2 181 466.5 177.5 468.7 178.2 469 168 467 163.6 468.9 163.7 506.5 163.6"></polygon> <polygon class="cls-4" points="506.5 163.6 508.6 163.8 565.7 164.1 565 166.4 566.2 168.6 564.4 171.7 564.7 173 572.1 185.1 559.5 185.4 559 192 560.2 196.7 559.4 203.2 557.8 205.6 553.6 208.2 551 214 550.7 218 547.9 218.6 544.8 221.6 544.4 218.6 504.6 217.9 506.5 163.6"></polygon> <polygon class="cls-4" points="674.1 233.4 677 216.1 676 215 679.2 214.1 673.7 208.5 676.8 204.3 673.8 201.5 680.1 197.4 680.8 195.7 676 193.8 672.2 194.1 667.8 191.6 661.6 191.5 662.4 186.6 664 186.5 665.6 182.6 673.4 176.6 674.6 174.2 676.5 176.4 678.6 175.6 677.4 171.6 681.2 169.7 700.6 185 708.1 182.1 709.1 188.4 701 202.9 697.7 221.3 692.5 226.3 692.2 234.5 691 234.5 674.1 233.4"></polygon> <polygon class="cls-4" points="1251.7 226.7 1244.8 218.3 1246.7 176.7 1240 177 1240.4 174.6 1243 172.7 1252.6 175.6 1270.3 172.5 1274.4 173.2 1275.4 175.2 1278.5 176 1277.7 180.3 1280.5 179.4 1289 180.1 1288.7 185.6 1283.7 199 1284.2 201.6 1279.9 208.9 1274.9 212.7 1273.5 215.8 1271.2 217.1 1265 216.9 1259.7 218.1 1251.7 226.7"></polygon> <polygon class="cls-4" points="1108.6 216.1 1084.6 214.9 1081.8 212.5 1072.8 199.6 1076.8 197.9 1078 199.1 1078.9 198.7 1079.5 181.5 1081.5 180.1 1087 179.9 1087.1 175.4 1088.1 176.1 1094 173.8 1095.7 175.8 1099.5 175.3 1102.3 176.6 1102.1 178.6 1106.8 182.9 1107.8 188.8 1111.2 188.2 1112 186 1113.9 185.8 1116 188.8 1114.2 193.6 1114.3 197.3 1111.6 201.1 1112.8 208.7 1108.7 213.1 1109.8 215.3 1108.6 216.1"></polygon> <polygon class="cls-4" points="847.1 220.5 846.2 222.1 842.2 222.7 841.2 226.2 839.4 226.4 834.6 223.5 833.4 225.9 830.9 223.1 825.1 225.8 824.3 225.2 822.8 227.5 816.2 227.7 815.7 223.3 814 220.7 808.3 199.6 806.1 195.1 816.8 183.3 826.2 180.5 825.3 177 826.2 175.1 845.4 176.7 842.3 198.7 845.9 202.6 849 201.8 848.1 204.6 850.1 208.2 847.9 210.1 848.9 211.7 848.2 214.5 851.1 214.9 847.3 217.5 847.1 220.5"></polygon> <polygon class="cls-4" points="1108.6 216.1 1109.8 215.3 1108.7 213.1 1112.8 208.7 1111.6 201.1 1114.3 197.3 1114.2 193.6 1116 188.8 1118 190.6 1128.9 184.9 1132.6 186.6 1134.5 185.5 1135.6 186.4 1136.5 184.7 1138.5 185.7 1138.4 183.9 1139.3 183.5 1142.9 185 1143.8 184.1 1143.3 181.9 1145.2 179.1 1150.1 175.8 1151.5 177.3 1153.4 176.2 1154.3 177.6 1157.2 177 1160.2 178 1163.5 181.3 1166.2 180.3 1166.6 182.1 1165.2 183.2 1167.8 189.2 1166 193.7 1168.2 195.6 1167.9 198.1 1165.7 200.8 1164.3 200.8 1159.9 196 1153.2 201.1 1146.7 203.8 1147.4 206.5 1145.7 208 1144.9 207.2 1143.9 211.6 1141.9 212.9 1141.6 214.8 1138.8 217.3 1136.3 214.7 1134.2 216.3 1130.3 212.8 1129.3 213.8 1130 215.7 1128.4 215.5 1127.7 217.2 1127 216 1124.4 222.2 1123.3 220.4 1121.1 220.3 1122.7 224.1 1122.4 227.1 1120.9 227.1 1119.6 223.9 1116.7 223.5 1116.2 224.2 1118.3 228.6 1117.4 229.3 1116.1 228.4 1113 222 1109.7 220.8 1108.6 216.1"></polygon> <polygon class="cls-4" points="1250.6 235.5 1247.7 233.7 1245.7 234.1 1230.6 242.3 1229.3 244.2 1229 249 1224.9 254.6 1218.9 250.4 1213.9 250.3 1193.4 225.8 1191.1 226.2 1189 223.4 1187 224.5 1184.7 222.4 1180.8 217.5 1180.4 213.2 1184.5 211.1 1190.3 204.7 1206.4 191.5 1214.7 187.7 1219.3 184.3 1224.6 184.3 1240 177 1246.7 176.7 1244.8 218.3 1251.7 226.7 1253.8 229.1 1250.6 235.5"></polygon> <polygon class="cls-4" points="625.9 213 623.1 210.3 613.6 209.5 604.5 203.3 598.8 202.8 591.8 205 578 203.6 573 186.7 579 186.6 583.9 189.1 592.4 190.2 599.7 189.4 608.8 184.2 622.7 184 623 187.4 632.4 188.8 630.3 205.3 625.9 213"></polygon> <polygon class="cls-4" points="989.4 255.7 985.7 244.9 975.5 232.7 974.3 228 969.8 227.9 965.8 221.4 960.8 217.9 961.8 215.5 961.5 209.5 963.7 206.7 965.8 197.6 975.9 195.8 975.5 192.9 977.3 189.7 980.5 189.3 984.5 184.5 987.5 184 998 199 1000 197.7 1002.9 199.8 1002.6 205.5 1005.2 204.3 1015.3 209.1 1019.1 215.7 1018.7 219.5 1020.5 220.4 1021.5 224.3 1028 228.2 1031.9 233.4 1019.6 242.9 1006.2 247.1 1005.5 249.6 998.5 249.8 997.5 252.7 992.8 253.1 991.3 255.2 989.4 255.7"></polygon> <polygon class="cls-4" points="577.2 266.5 574.7 271.2 572 270.8 571.7 269.6 570.1 269.7 570 271.4 568.2 270.9 568.7 267.6 566 264.4 549.2 266 544 265.8 544.8 221.6 547.9 218.6 550.7 218 551 214 553.6 208.2 557.8 205.6 559.4 203.2 560.2 196.7 559 192 559.5 185.4 572.1 185.1 573 186.7 578 203.6 578 210.1 581.7 218.9 577.7 227.2 571.4 235.7 572.3 241.7 570.4 246.4 571.4 251.7 574.2 252.7 580.1 251.6 579.5 261 577.2 266.5"></polygon> <polygon class="cls-4" points="822.1 248.7 811.6 245.7 810.4 248.4 807.4 248.9 804.3 247.3 803.7 249.1 787.3 246.2 785.2 244.2 776.3 239.5 776 236.7 769.5 234.3 759.4 226.9 756.7 224.2 756.6 222.2 758.1 222.1 758.1 219.9 754.3 220.2 749.7 203.8 751.9 202.5 753.1 194.5 754.4 192.5 755.6 192.7 756.6 197.3 758.4 198.5 759.6 197.9 760.3 194.1 768.3 190.1 773.3 194.4 774.8 194.4 776.4 187.3 779.5 187.8 780.1 188.8 778.5 194.6 783.3 192.6 786 193.2 786.6 188.4 788.1 187.8 790.2 188.3 789.5 193 790.7 195.4 792.6 195 794.1 188.2 796.6 187.1 800.8 192.4 806.1 195.1 808.3 199.6 814 220.7 815.7 223.3 816.2 227.7 817.3 234.7 821.4 242.2 822.1 248.7"></polygon> <polygon class="cls-4" points="1180.4 213.2 1178.7 214.4 1179.1 221.6 1177.5 222.1 1173.7 218.4 1172.7 222.3 1170.7 224 1162.7 218.6 1152.6 217.2 1152.7 218.7 1150.6 219 1150.6 217.2 1144 217.5 1141.6 214.8 1141.9 212.9 1143.9 211.6 1144.9 207.2 1145.7 208 1147.4 206.5 1146.7 203.8 1153.2 201.1 1159.9 196 1164.3 200.8 1165.7 200.8 1167.9 198.1 1168.2 195.6 1171.5 196.1 1178 193.2 1178.3 189.2 1180.1 187.4 1181.7 189.4 1180.9 189.9 1182.4 191.5 1181.7 192.2 1186.6 197.6 1190.3 204.7 1184.5 211.1 1180.4 213.2"></polygon> <polygon class="cls-4" points="625.9 213 630.3 205.3 632.4 188.8 651.3 191.7 661.6 191.5 667.8 191.6 672.2 194.1 676 193.8 680.8 195.7 680.1 197.4 673.8 201.5 676.8 204.3 673.7 208.5 679.2 214.1 676 215 677 216.1 674.1 233.4 673 244.5 670.8 244.4 670.6 247.2 659.2 246.5 630.1 242 627.6 236.9 628.8 225.4 625.9 213"></polygon> <polygon class="cls-4" points="1031.9 233.4 1028 228.2 1021.5 224.3 1020.5 220.4 1018.7 219.5 1019.1 215.7 1023.4 214.7 1027.6 207.6 1033.5 209 1037.3 207.6 1041.6 212.2 1045.3 214.4 1046.8 204.1 1060.5 204.8 1063.4 207.1 1065.1 207.1 1071 196.4 1072.8 199.6 1081.8 212.5 1073.1 220.8 1071.7 223.7 1064.4 229.8 1064.7 232.3 1067.7 235.6 1067.1 237.2 1057.9 243 1051.8 243.3 1050.8 245.6 1049.1 245.5 1048.7 250.4 1045.9 249.3 1045.9 252.2 1042.2 250.2 1041.9 253.1 1044.1 254.6 1041.3 256.7 1031.9 233.4"></polygon> <polygon class="cls-4" points="1250.6 235.5 1253.8 229.1 1251.7 226.7 1259.7 218.1 1265 216.9 1271.2 217.1 1273.5 215.8 1274.9 212.7 1279.9 208.9 1284.2 201.6 1289.3 201.7 1294.6 205.4 1293.8 208.7 1297.5 210.6 1300.6 219.1 1293.7 223.3 1287.5 223 1279.7 226.7 1275.3 230.4 1266.9 243.3 1262.9 246.5 1257 249.1 1251.3 248 1250.5 241.6 1252.2 238.7 1250.6 235.5"></polygon> <polygon class="cls-4" points="577.2 266.5 579.5 261 580.1 251.6 574.2 252.7 571.4 251.7 570.4 246.4 572.3 241.7 571.4 235.7 577.7 227.2 581.7 218.9 578 210.1 578 203.6 591.8 205 598.8 202.8 604.5 203.3 613.6 209.5 623.1 210.3 625.9 213 628.8 225.4 627.6 236.9 630.1 242 629.3 246 626.2 249.5 622.1 249.1 613.6 254.7 607.8 255.6 606.5 266.3 595.4 266.6 594 268.8 591.3 269.3 590.3 271.7 581.7 268.1 581.3 266.6 577.2 266.5"></polygon> <polygon class="cls-4" points="455.5 273.6 450.6 268.6 444.7 267.7 442.8 265.1 440.6 266 434.9 264.6 431.6 261.7 427.9 258.1 428.2 253.7 429.9 251.5 429.5 249.4 421.8 243 419.8 239.7 421.1 238.3 424.7 239.1 425.4 210.1 450.1 210.5 450.6 206.6 454.5 212.4 459.3 214 467.6 222.3 475 224 477.5 227.2 483.9 231.6 482 274.1 455.5 273.6"></polygon> <polygon class="cls-4" points="1116.8 235.5 1112.5 228.6 1113.4 227.1 1116.1 228.4 1117.4 229.3 1118.3 228.6 1116.2 224.2 1116.7 223.5 1119.6 223.9 1120.9 227.1 1122.4 227.1 1122.7 224.1 1121.1 220.3 1123.3 220.4 1124.4 222.2 1127 216 1127.7 217.2 1128.4 215.5 1130 215.7 1129.3 213.8 1130.3 212.8 1134.2 216.3 1136.3 214.7 1138.8 217.3 1141.6 214.8 1144 217.5 1150.6 217.2 1150.6 219 1152.7 218.7 1152.6 217.2 1162.7 218.6 1170.7 224 1171.9 227.7 1169.9 229.3 1170.4 233 1168.5 235.6 1168.6 240.1 1167 241 1165.6 243.8 1164.6 256 1163.9 257.8 1162 257.5 1157.4 254.9 1148.9 252.7 1140.5 253.6 1136.4 250.7 1133.1 245.7 1125.1 239.7 1122.6 240.5 1118.5 235.1 1116.8 235.5"></polygon> <polygon class="cls-4" points="1213.9 250.3 1211.6 253.5 1212.5 262.2 1205.5 274.8 1202.4 277.6 1193.3 276.3 1185.9 279.2 1182.7 279.4 1177.5 284.7 1170.1 286.3 1168.9 289.1 1169.4 286.9 1166.7 286.6 1165.4 282.8 1165.2 273 1167.5 269.7 1161.7 260.3 1162 257.5 1163.9 257.8 1164.6 256 1165.6 243.8 1167 241 1168.6 240.1 1168.5 235.6 1170.4 233 1169.9 229.3 1171.9 227.7 1170.7 224 1172.7 222.3 1173.7 218.4 1177.5 222.1 1179.1 221.6 1178.7 214.4 1180.4 213.2 1180.8 217.5 1184.7 222.4 1187 224.5 1189 223.4 1191.1 226.2 1193.4 225.8 1213.9 250.3"></polygon> <polygon class="cls-4" points="976.3 268.9 974.9 268.7 961.5 277.4 946.3 280.8 941.5 277.7 939 278.7 936.8 277.8 917.6 278 914.7 275.8 915.6 273.7 917.7 273.2 919.3 269.5 921.7 260.9 920.1 258.2 922.2 257.6 922.3 255.4 919 255.6 918.5 254.6 915.7 245.9 916.2 244.4 917.1 244.5 916.7 242 920.1 224.7 930.7 225.2 933.4 220.5 935.3 221.2 937 219.4 939.5 220 943.8 217.8 945.9 215.2 948.3 217.5 951.6 217.9 953 216.5 956.2 217.7 957.8 217.2 958.9 219.2 960.8 217.9 965.8 221.4 969.8 227.9 974.3 228 975.5 232.7 985.7 244.9 989.4 255.7 981 267.3 978.6 269.4 976.3 268.9"></polygon> <polygon class="cls-4" points="483.9 231.6 488.8 231.6 489 223.7 504.1 223.3 504.6 217.9 544.4 218.6 544.8 221.6 544 265.8 549.2 266 548.9 270.2 499.5 269.3 497.1 270.9 496.4 274.7 494.6 274.8 482 274.1 483.9 231.6"></polygon> <polygon class="cls-4" points="822.1 248.7 821.4 242.2 817.3 234.7 816.2 227.7 822.8 227.5 824.3 225.2 825.1 225.8 830.9 223.1 833.4 225.9 834.6 223.5 839.4 226.4 841.2 226.2 842.2 222.7 846.2 222.1 847.1 220.5 848 223.4 851.9 226.6 851.2 229 853.3 231.2 857 228.4 861.8 229.5 867 238 869.2 238.6 869.2 242.6 866.4 245.9 867.6 256.7 866 259.5 868.6 260.7 864.9 264.9 868.7 266.3 864.9 269 856.3 264.8 850.2 265.4 845.9 264.4 838.3 266.3 822.1 248.7"></polygon> <polygon class="cls-4" points="735.6 286.4 735.5 279.5 737.8 278.2 741.6 278 741.9 274.3 746.3 274.6 746.6 257.7 745 254.4 746.4 250.8 745.8 245.7 747.6 245.1 747.5 241.3 749 238.3 753.1 235.2 753.6 231.5 757.8 231.8 759.4 226.9 769.5 234.3 776 236.7 776.3 239.5 785.2 244.2 787.3 246.2 803.7 249.1 803.6 252.3 806.3 255.2 804.7 256.2 804 258.6 802.1 258.8 801.9 265.2 799.9 273.9 800.8 279.2 797.5 282.2 796.2 287.3 793.5 289.4 792.6 293 793.8 294.6 793.5 298.5 784 296.3 783.9 293.6 782.8 293 776.4 296 775.8 299.4 774.3 299.4 774.1 301.5 772.3 301.3 772 299.6 770.6 299.6 770 296.5 765.5 297.6 765.6 296.5 763.8 296.5 763.4 294.8 761.5 295 760 293 760.3 290.8 755.1 288 743.9 287.5 743.4 290.2 735.6 286.4"></polygon> <polygon class="cls-4" points="873.7 274 864.9 269 868.7 266.3 864.9 264.9 868.6 260.7 866 259.5 867.6 256.7 866.4 245.9 869.2 242.6 869.2 238.6 872.2 238.9 873.6 234.4 875.4 234 879.2 229.5 885.9 228.2 904 233.4 906.7 235.5 910.2 235.7 909.8 240.5 912.4 242.9 916.2 244.4 915.7 245.9 918.5 254.6 919 255.6 922.3 255.4 922.2 257.6 920.1 258.2 921.7 260.9 919.3 269.5 917.7 273.2 915.6 273.7 914.5 271 916.1 268.8 905.3 273.1 891.4 269.5 884.1 270.8 882.2 273.8 877.5 272.9 873.7 274"></polygon> <polygon class="cls-4" points="985.9 282.2 986.3 281.4 985 280.8 980.6 280 981.9 275.1 977.3 272.3 976.3 268.9 978.6 269.4 981 267.3 989.4 255.7 991.3 255.2 992.8 253.1 997.5 252.7 998.5 249.8 1005.5 249.6 1006.2 247.1 1019.6 242.9 1031.9 233.4 1041.3 256.7 1041.4 258.2 1038.6 257.7 1038.7 260.8 1033.6 259.8 1031 267.7 1027.2 271.4 1026.6 275.6 1027.6 276.9 1026.7 278.2 1023.3 276.9 1021.3 281.3 1018.4 279.2 1008.8 290.3 1005.9 291.3 1006 295.1 1003.8 294.9 1002.5 297 997.6 296.4 997.4 294 996.3 293.8 997.3 287.2 996.6 285.1 993.3 284.7 991.6 287.7 990 287.4 990 285.8 986.9 285.6 987.4 282.6 985.9 282.2"></polygon> <polygon class="cls-4" points="735.6 286.4 730.9 288.2 730.7 286.5 729.3 286.4 729 288.3 727.8 288.6 727.7 286.9 724.3 287.6 720.8 284.5 706.6 279.5 707.4 276.8 705.9 276.2 705.3 277.5 703.6 277.1 704.2 275.3 703.1 275 702.3 276.9 670.1 264.9 672.3 250.8 671.3 250.5 671.6 247.6 670.6 247.2 670.8 244.4 673 244.5 674.1 233.4 691 234.5 691.7 243.8 693.1 243.8 706.9 234 724.8 236.1 728.6 238 728.6 240.1 734.8 241.2 743.3 245.7 745.8 245.7 746.4 250.8 745 254.4 746.6 257.7 746.3 274.6 741.9 274.3 741.6 278 737.8 278.2 735.5 279.5 735.6 286.4"></polygon> <polygon class="cls-4" points="1168.9 289.1 1168.2 290.6 1163.2 296 1157.6 296.5 1152.1 300.9 1143.1 305.2 1137.1 311.1 1130.1 311.8 1123.5 309.2 1116.1 310.3 1117.3 291.5 1111.9 285.8 1109 278.7 1108.8 275.9 1101.4 260.3 1104.5 255 1105.9 254.2 1107.4 255.1 1113.7 250.5 1115 251.5 1115.3 249.7 1118.1 248.5 1119.3 243 1116.8 239.4 1116.8 235.5 1118.5 235.1 1122.6 240.5 1125.1 239.7 1133.1 245.7 1136.4 250.7 1140.5 253.6 1148.9 252.7 1157.4 254.9 1162 257.5 1161.7 260.3 1167.5 269.7 1165.2 273 1165.4 282.8 1166.7 286.6 1169.4 286.9 1168.9 289.1"></polygon> <polygon class="cls-4" points="655.1 295.3 649.5 296.2 644.9 300.1 640.7 301.5 632.6 298.8 629.4 299.4 625.3 295.1 624 295.1 619.5 298.6 619.9 300.8 617.6 300.2 614.4 302.4 610 297.8 607.2 297 603 293.6 603.9 287.6 607.6 287.4 606.6 284.4 604.4 284 606.5 266.3 607.8 255.6 613.6 254.7 622.1 249.1 626.2 249.5 629.3 246 630.1 242 659.2 246.5 670.6 247.2 671.6 247.6 671.3 250.5 672.3 250.8 670.1 264.9 668.2 284.2 664.9 285.7 665.7 287.7 664.6 289.4 659.8 290 655.1 295.3"></polygon> <polygon class="cls-4" points="436.7 291 420.1 280.8 411.3 279.5 401.2 273.6 400.3 270.6 399.7 267.7 402 264.3 402.1 261.4 409.6 260.4 411.7 255.5 413.5 255.7 417.6 250.2 419.3 244.9 421.8 243 429.5 249.4 429.9 251.5 428.2 253.7 427.9 258.1 431.6 261.7 434.9 264.6 440.6 266 442.8 265.1 444.7 267.7 450.6 268.6 455.5 273.6 457.2 276.3 442.3 293.1 436.7 291"></polygon> <polygon class="cls-4" points="824.8 295 815.8 297 809.8 293.4 806.4 293.5 801 290.8 799.5 287.7 796.2 287.3 797.5 282.2 800.8 279.2 799.9 273.9 801.9 265.2 802.1 258.8 804 258.6 804.7 256.2 806.3 255.2 803.6 252.3 803.7 249.1 804.3 247.3 807.4 248.9 810.4 248.4 811.6 245.7 822.1 248.7 838.3 266.3 835.3 268 828.6 276.4 826.5 282.1 824.6 281.5 824.3 283.6 825.6 284.4 825.5 285.7 823.3 285.5 823.1 287.2 825.2 287.6 825.1 289.1 823.6 289.3 824.8 295"></polygon> <polygon class="cls-4" points="1116.1 310.3 1103.1 312.2 1096.2 317.4 1089.8 318.7 1086.2 324.1 1080.6 327.3 1080 324.9 1082.8 323.9 1083.3 322.5 1079.1 320.2 1077.2 322 1074.5 318.8 1076.5 314.3 1075.6 311.7 1073.8 313.3 1068.4 313 1066.5 314 1062.6 311.6 1061.1 306.9 1058.7 307.2 1053 304.4 1052 302.6 1056.6 301 1058.4 297.6 1058.2 294.3 1055.5 292.6 1053.6 284.6 1055.5 278.2 1053.6 276.9 1053.1 273.2 1055.5 272.4 1057.7 273.9 1058.5 272.9 1057.1 265 1057.8 264.4 1058.9 264.5 1060.4 267.3 1064.4 266 1068.5 268.7 1069.6 265.4 1073.7 265.7 1072.5 262 1075.6 260.7 1077.4 262.2 1080.6 261.8 1092.6 266.6 1101.4 260.3 1108.8 275.9 1109 278.7 1111.9 285.8 1117.3 291.5 1116.1 310.3"></polygon> <polygon class="cls-4" points="880.1 312.3 870.9 313.3 855.6 314.5 848.5 316.4 848.4 319 845.5 316.6 839.2 315.7 828.9 306.6 829 302.8 824.8 295 823.6 289.3 825.1 289.1 825.2 287.6 823.1 287.2 823.3 285.5 825.5 285.7 825.6 284.4 824.3 283.6 824.6 281.5 826.5 282.1 828.6 276.4 835.3 268 838.3 266.3 845.9 264.4 850.2 265.4 856.3 264.8 864.9 269 873.7 274 872 279.5 874.9 280.6 876.4 287.7 875.5 292.7 876.7 294.2 880.1 312.3"></polygon> <polygon class="cls-4" points="548.9 270.2 549.2 266 566 264.4 568.7 267.6 568.2 270.9 570 271.4 570.1 269.7 571.7 269.6 572 270.8 574.7 271.2 571.3 280.6 567.9 284.8 567.6 288.7 569.1 290.8 569.2 293.8 567.4 300.3 575.2 318.1 572.8 322.9 567.5 324.9 566 326.5 565.1 329.4 568.1 331.3 570.9 331.5 575.1 334.4 574.4 336.5 572.1 337.8 570.2 338.1 567.8 336.7 564.9 333.3 562.6 332.8 557.5 337.3 547.5 338.6 545.4 337.2 543.9 333.6 540.6 331.3 540.8 314.7 542.2 312.4 544.2 312.3 543.5 308.9 547.6 301.8 548.9 270.2"></polygon> <polygon class="cls-4" points="670.7 329.6 660.2 327.5 663.7 321.7 661.8 319.1 664.6 317.4 662.3 316.3 661.5 311.9 657.3 311.3 656 306.7 653.5 306.1 653.3 302.2 655.7 299 655.1 295.3 659.8 290 664.6 289.4 665.7 287.7 664.9 285.7 668.2 284.2 670.1 264.9 702.3 276.9 703.1 275 704.2 275.3 703.6 277.1 705.3 277.5 705.9 276.2 707.4 276.8 706.6 279.5 720.8 284.5 724.3 287.6 723.6 289.5 721.6 288.7 721.1 289.6 721 299.7 719.4 307.4 717.9 308.9 717.3 313.4 714.9 318.5 713.4 315.7 712.3 321.2 707.8 324.1 707.6 325.9 704.3 326.2 702.9 331.6 698 332.4 694.4 329.7 685.2 327.9 682.2 326.1 678.6 326.6 675.3 328.7 670.5 328.6 670.7 329.6"></polygon> <polygon class="cls-4" points="614.4 302.4 615.7 305.7 615.2 310 613.8 311.1 610.9 311.3 610 318.4 607.5 318.2 607.5 319.5 605 319.9 596 321.1 591.5 324.3 585.3 323.6 582.9 325.3 572.5 325.8 568.1 331.3 565.1 329.4 566 326.5 567.5 324.9 572.8 322.9 575.2 318.1 567.4 300.3 569.2 293.8 569.1 290.8 567.6 288.7 567.9 284.8 571.3 280.6 574.7 271.2 577.2 266.5 581.3 266.6 581.7 268.1 590.3 271.7 591.3 269.3 594 268.8 595.4 266.6 606.5 266.3 604.4 284 606.6 284.4 607.6 287.4 603.9 287.6 603 293.6 607.2 297 610 297.8 614.4 302.4"></polygon> <polygon class="cls-4" points="932.1 325.6 934.2 323 931.3 320.1 935.3 313 935.4 307.7 942.3 301.3 945.3 300.5 949.9 292.6 952.6 293 952.1 290.9 961.5 277.4 974.9 268.7 976.3 268.9 977.3 272.3 981.9 275.1 980.6 280 985 280.8 986.3 281.4 985.9 282.2 983.2 291.5 981.7 292.4 981 289.9 978.7 289.6 977.1 292.9 976.3 299.4 978.1 303.6 974.2 307.4 974.6 312.1 972.8 312.9 966.7 311.4 965.2 312.3 964.2 315 967.4 319.3 966.6 321.3 961.9 323.4 960.7 328.3 956.6 330.1 954.5 328.8 952.6 324.8 951.5 326.3 950.9 333.6 946.5 333.4 941 329.5 937.3 331.1 935.3 327.4 932.1 325.6"></polygon> <polygon class="cls-4" points="895.1 309.4 891.4 311.7 885.2 311.1 880.1 312.3 876.7 294.2 875.5 292.7 876.4 287.7 874.9 280.6 872 279.5 873.7 274 877.5 272.9 882.2 273.8 884.1 270.8 891.4 269.5 905.3 273.1 916.1 268.8 914.5 271 915.6 273.7 914.7 275.8 917.6 278 915.4 282.8 916 284.6 895.1 309.4"></polygon> <polygon class="cls-4" points="525.4 331.8 525.8 320.7 519.4 322.1 518.1 320.9 511.6 320.4 504.4 313.8 500.3 306.5 497.2 305.5 494.8 306.4 494.7 301.2 495.8 300.9 495.7 296.4 494.8 296.1 494.6 274.8 496.4 274.7 497.1 270.9 499.5 269.3 548.9 270.2 547.6 301.8 543.5 308.9 544.2 312.3 542.2 312.4 540.8 314.7 540.6 331.3 540.5 332.6 525.4 331.8"></polygon> <polygon class="cls-4" points="380.6 306.1 386.2 304.7 386 291.3 390.2 283.7 388.9 280.8 389.8 275.9 394.5 270.4 400.3 270.6 401.2 273.6 411.3 279.5 420.1 280.8 436.7 291 435.4 330.6 421.8 330.4 421.5 336 385 335.3 386.4 314.2 380.6 306.1"></polygon> <polygon class="cls-4" points="932.1 325.6 930.3 327.7 927.4 325.3 920.4 341.7 907.1 330.1 898.5 320.8 897.7 316.3 895.3 314.8 895.1 309.4 916 284.6 915.4 282.8 917.6 278 936.8 277.8 939 278.7 941.5 277.7 946.3 280.8 961.5 277.4 952.1 290.9 952.6 293 949.9 292.6 945.3 300.5 942.3 301.3 935.4 307.7 935.3 313 931.3 320.1 934.2 323 932.1 325.6"></polygon> <polygon class="cls-4" points="957.2 352.1 954.4 348 952.9 341.3 949.9 338.4 944.7 338.5 946.5 333.4 950.9 333.6 951.5 326.3 952.6 324.8 954.5 328.8 956.6 330.1 960.7 328.3 961.9 323.4 966.6 321.3 967.4 319.3 964.2 315 965.2 312.3 966.7 311.4 972.8 312.9 974.6 312.1 974.2 307.4 978.1 303.6 976.3 299.4 977.1 292.9 978.7 289.6 981 289.9 981.7 292.4 983.2 291.5 985.9 282.2 987.4 282.6 986.9 285.6 990 285.8 990 287.4 991.6 287.7 993.3 284.7 996.6 285.1 997.3 287.2 996.3 293.8 997.4 294 997.6 296.4 991.9 306 982 318.2 978.1 324.9 972.6 330.7 967.4 342.7 965.3 342.1 962.9 347.1 957.2 352.1"></polygon> <polygon class="cls-4" points="748.3 340.1 747.6 344.7 743.2 346.4 743 348.1 741.1 348.6 740.5 347.7 738.6 348.6 732.1 353.2 730.5 356.7 720.3 355.4 721 352.1 720 351.8 720.1 349.2 715.8 348.4 715.9 350 714.3 350.3 714.2 348.8 711.3 348.6 709.7 347.2 709.7 344 707.2 341.1 706.6 338.4 707 332.8 702.9 331.6 704.3 326.2 707.6 325.9 707.8 324.1 712.3 321.2 713.4 315.7 714.9 318.5 717.3 313.4 717.9 308.9 719.4 307.4 721 299.7 721.1 289.6 721.6 288.7 723.6 289.5 724.3 287.6 727.7 286.9 727.8 288.6 729 288.3 729.3 286.4 730.7 286.5 730.9 288.2 735.6 286.4 743.4 290.2 741.9 304.4 740 305.5 742.8 308 741.4 308.6 739.3 326.4 741.3 327.3 740.9 331 744.4 336.7 744.2 338.8 746.6 340.4 748.3 340.1"></polygon> <polygon class="cls-4" points="790.8 332.6 791.9 328.6 793.4 327.5 793.5 298.5 793.8 294.6 792.6 293 793.5 289.4 796.2 287.3 799.5 287.7 801 290.8 806.4 293.5 809.8 293.4 815.8 297 824.8 295 829 302.8 828.9 306.6 839.2 315.7 837 322.1 838.1 335.1 837.4 338.7 839.3 339.5 837.8 343.1 835.6 344.4 835.8 347 832.9 352 829.9 351 825.8 347.4 824.2 347.9 820.1 343.3 802.9 340.7 798.9 344.2 796.6 342.6 790.5 344.6 793.1 341 787.9 340.8 788.1 338.8 791.5 338.7 791.5 336.7 789.1 336.5 790.8 332.6"></polygon> <polygon class="cls-4" points="757.3 342.1 750.9 339.2 748.3 340.1 746.6 340.4 744.2 338.8 744.4 336.7 740.9 331 741.3 327.3 739.3 326.4 741.4 308.6 742.8 308 740 305.5 741.9 304.4 743.4 290.2 743.9 287.5 755.1 288 760.3 290.8 760 293 761.5 295 763.4 294.8 763.8 296.5 765.6 296.5 765.5 297.6 770 296.5 770.6 299.6 772 299.6 772.3 301.3 774.1 301.5 774.3 299.4 775.8 299.4 776.4 296 782.8 293 783.9 293.6 784 296.3 793.5 298.5 793.4 327.5 791.9 328.6 790.8 332.6 787.4 333.1 782.3 339 778.7 340.2 777.5 343.1 772.7 343.3 771.7 345.6 768.8 347.2 763.3 344.4 763.1 342 762.1 341.5 759.2 341 757.3 342.1"></polygon> <polygon class="cls-4" points="1009 299.2 1011.5 300.5 1012.9 298.7 1008.9 296.5 1011 296.2 1011.3 293.9 1013.2 294.2 1013.3 296 1017.7 295.9 1017.7 294.8 1020 295 1019.9 293.2 1022.1 293.3 1022.4 294.7 1024.9 294.6 1025.1 298 1028.6 298.1 1029.9 296.3 1031.8 296.5 1031.9 294.4 1029.1 294.5 1029.4 293.5 1034.8 293.2 1042.7 299.1 1044.5 302 1052 302.6 1053 304.4 1058.7 307.2 1061.1 306.9 1062.6 311.6 1066.5 314 1068.4 313 1073.8 313.3 1075.6 311.7 1076.5 314.3 1074.5 318.8 1077.2 322 1079.1 320.2 1083.3 322.5 1082.8 323.9 1080 324.9 1080.6 327.3 1073.3 334.8 1074.1 340.2 1071.2 347.6 1071 352.7 1069.5 355.8 1062 360 1052.2 360.7 1046.4 357.5 1038.2 365.4 1034.3 363.5 1033.4 364.7 1032.4 364 1031.5 365.7 1030.7 365.2 1032.1 362.3 1012.5 352.9 1019.5 346.7 1024.4 345.3 1024.5 344 1023.6 343.7 1023.9 336.6 1021.4 335.2 1021.6 332.1 1020.2 331.6 1019.8 326.9 1011.5 306.2 1008.9 306.3 1009.2 302.6 1007.3 302.3 1007.5 300.6 1009.4 300.5 1009 299.2"></polygon> <polygon class="cls-4" points="605 319.9 607.5 319.5 607.5 318.2 610 318.4 610.9 311.3 613.8 311.1 615.2 310 615.7 305.7 614.4 302.4 617.6 300.2 619.9 300.8 619.5 298.6 624 295.1 625.3 295.1 629.4 299.4 632.6 298.8 640.7 301.5 644.9 300.1 649.5 296.2 655.1 295.3 655.7 299 653.3 302.2 653.5 306.1 656 306.7 657.3 311.3 661.5 311.9 662.3 316.3 664.6 317.4 661.8 319.1 663.7 321.7 660.2 327.5 655.6 326.7 655.7 325.7 641 325.5 640.7 331.4 636.8 330.5 636.7 332.5 632 332 631.8 335.1 625 334.5 624.6 333.5 620.8 332.4 620.2 329 615.6 328.7 615.7 323.5 611.2 323.1 605 319.9"></polygon> <polygon class="cls-4" points="1009 299.2 1009.4 300.5 1007.5 300.6 1007.3 302.3 1009.2 302.6 1008.9 306.3 1011.5 306.2 1019.8 326.9 1020.2 331.6 1021.6 332.1 1021.4 335.2 1023.9 336.6 1023.6 343.7 1024.5 344 1024.4 345.3 1019.5 346.7 1012.5 352.9 1010.1 356.5 991.1 356.4 987.9 359.9 987.1 358.7 982.6 358.5 980.9 355.8 981.6 354.9 983.8 355.1 983.7 353.3 977.6 349 974.1 348.7 973.5 346.6 969.9 346.1 967.4 342.7 972.6 330.7 978.1 324.9 982 318.2 991.9 306 997.6 296.4 1002.5 297 1002.5 299 1005.6 299.1 1005.6 297.3 1006.9 297.4 1006.7 299 1009 299.2"></polygon> <polygon class="cls-4" points="385 335.3 375.8 335 364 339.1 364.1 337.5 356.8 337.5 356.4 333.7 353.5 335.4 347.3 335 347.2 337 315.3 337 313.2 333.3 319.2 328.9 313.9 318.4 314 313.7 315 312.2 320.4 310.8 323.9 315.4 325.7 316.2 327.8 315.8 329 313.2 332.5 311.9 333.6 307.2 338.7 306 339.4 304.2 341.5 304.2 342.9 300.2 344.5 301 345.4 299.1 351 297.4 353.4 298.8 356.7 298.2 362.6 299.5 363.7 298.1 366.8 297.5 372.2 302.2 380.6 306.1 386.4 314.2 385 335.3"></polygon> <polygon class="cls-4" points="472 359.1 471.2 345.9 470.4 344 463.2 337.5 464.1 330.4 470.6 330.5 485.8 321.5 494.7 309.8 494.8 306.4 497.2 305.5 500.3 306.5 504.4 313.8 511.6 320.4 518.1 320.9 519.4 322.1 525.8 320.7 525.4 331.8 525.2 338.5 501.9 337.8 489.8 341.6 483.5 349.9 480.1 359 472 359.1"></polygon> <polygon class="cls-4" points="878.6 347.5 880.4 344 885.7 340.3 887.3 333.7 885.1 330.5 881.6 329.8 880.7 326.7 881.3 320.7 878 318.1 873.9 317.3 870.9 313.3 880.1 312.3 885.2 311.1 891.4 311.7 895.1 309.4 895.3 314.8 897.7 316.3 898.5 320.8 907.1 330.1 920.4 341.7 917.2 348.1 900.5 373.4 899.2 364.3 895 358.4 892 355.3 888.8 354.7 878.6 347.5"></polygon> <polygon class="cls-4" points="839.6 362.9 836.9 363.7 836.3 360 837.2 357.8 832.9 352 835.8 347 835.6 344.4 837.8 343.1 839.3 339.5 837.4 338.7 838.1 335.1 837 322.1 839.2 315.7 845.5 316.6 848.4 319 848.5 316.4 855.6 314.5 870.9 313.3 873.9 317.3 878 318.1 881.3 320.7 880.7 326.7 881.6 329.8 885.1 330.5 887.3 333.7 885.7 340.3 880.4 344 878.6 347.5 860.7 351.5 859.9 352.8 861.1 360.3 855.9 363.5 850.7 362.9 845.3 358.9 839.6 362.9"></polygon> <polygon class="cls-4" points="567.8 336.7 570.2 338.1 572.1 337.8 574.4 336.5 575.1 334.4 570.9 331.5 568.1 331.3 572.5 325.8 582.9 325.3 585.3 323.6 591.5 324.3 596 321.1 605 319.9 611.2 323.1 615.7 323.5 615.6 328.7 620.2 329 620.8 332.4 624.6 333.5 625 334.5 623.8 367.8 624.7 371.5 623.3 371.3 623.6 374.7 622.1 374.9 622.2 387.4 623.4 387.4 623.4 391.4 620.4 391.4 620.4 396.5 572.8 395.6 573 350.7 569.5 349.9 569.9 344.1 569 339.8 567.6 340.1 567.8 336.7"></polygon> <polygon class="cls-4" points="903.6 399.6 890 399.6 896.1 394.2 898 390.4 901 390 902.5 387.7 903.5 383.2 899.3 379.8 900.5 373.4 917.2 348.1 920.4 341.7 927.4 325.3 930.3 327.7 932.1 325.6 935.3 327.4 937.3 331.1 941 329.5 946.5 333.4 944.7 338.5 949.9 338.4 952.9 341.3 954.4 348 957.2 352.1 954.8 355.7 954.7 358.8 948.9 368.1 947.1 377.1 947.7 383 949.4 386.1 949.3 391.5 954.3 394.3 952.3 399.2 915.2 399.8 903.6 399.6"></polygon> <polygon class="cls-4" points="670.7 329.6 670.2 349.3 667.1 349.7 667.1 351.2 670 351.2 669.5 360.2 670.9 360.2 670.9 364.1 669.9 364.1 670.2 367 669.1 367.1 668.9 370.1 672 371.1 670.7 374.5 671.9 374.8 671.7 377.2 670.3 377.1 669.7 379.7 670.8 380.1 670.5 383 669.5 382.9 668.9 397 620.4 396.5 620.4 391.4 623.4 391.4 623.4 387.4 622.2 387.4 622.1 374.9 623.6 374.7 623.3 371.3 624.7 371.5 623.8 367.8 625 334.5 631.8 335.1 632 332 636.7 332.5 636.8 330.5 640.7 331.4 641 325.5 655.7 325.7 655.6 326.7 660.2 327.5 670.7 329.6"></polygon> <polygon class="cls-4" points="670.7 329.6 670.5 328.6 675.3 328.7 678.6 326.6 682.2 326.1 685.2 327.9 694.4 329.7 698 332.4 702.9 331.6 707 332.8 706.6 338.4 707.2 341.1 709.7 344 709.7 347.2 711.3 348.6 714.2 348.8 714.3 350.3 715.9 350 715.8 348.4 720.1 349.2 720 351.8 721 352.1 720.3 355.4 718 398.4 670.8 396.9 668.9 397 669.5 382.9 670.5 383 670.8 380.1 669.7 379.7 670.3 377.1 671.7 377.2 671.9 374.8 670.7 374.5 672 371.1 668.9 370.1 669.1 367.1 670.2 367 669.9 364.1 670.9 364.1 670.9 360.2 669.5 360.2 670 351.2 667.1 351.2 667.1 349.7 670.2 349.3 670.7 329.6"></polygon> <polygon class="cls-4" points="420.1 398 421.5 336 421.8 330.4 435.4 330.6 464.1 330.4 463.2 337.5 470.4 344 471.2 345.9 472 359.1 472.2 397.6 468.7 397.7 444.3 398.1 420.1 398"></polygon> <polygon class="cls-4" points="546.6 397.4 526.7 397.5 522.8 397.3 525.2 338.5 525.4 331.8 540.5 332.6 540.6 331.3 543.9 333.6 545.4 337.2 547.5 338.6 557.5 337.3 562.6 332.8 564.9 333.3 567.8 336.7 567.6 340.1 569 339.8 569.9 344.1 569.5 349.9 573 350.7 572.8 395.6 546.5 396 546.6 397.4"></polygon> <polygon class="cls-4" points="790.5 344.6 792.8 346.8 788 355.8 788.4 360.2 784.8 362 784.4 364.1 785.8 366 785.5 368.3 786.8 371 784.6 371.2 784.1 374 782.5 374.7 785 376.4 783.9 378.1 780.3 377.7 779.7 375.7 779.1 377.5 777.6 377.4 776.3 365.4 774.5 359.6 772.4 360.5 770.3 359.8 772.4 356.3 770.1 355.7 766.4 351 760 349.5 756.8 347.6 757.3 342.1 759.2 341 762.1 341.5 763.1 342 763.3 344.4 768.8 347.2 771.7 345.6 772.7 343.3 777.5 343.1 778.7 340.2 782.3 339 787.4 333.1 790.8 332.6 789.1 336.5 791.5 336.7 791.5 338.7 788.1 338.8 787.9 340.8 793.1 341 790.5 344.6"></polygon> <polygon class="cls-4" points="472.2 397.6 472 359.1 480.1 359 483.5 349.9 489.8 341.6 501.9 337.8 525.2 338.5 522.8 397.3 472.2 397.6"></polygon> <polygon class="cls-4" points="718 398.4 720.3 355.4 730.5 356.7 732.1 353.2 738.6 348.6 740.5 347.7 741.1 348.6 743 348.1 743.2 346.4 747.6 344.7 748.3 340.1 750.9 339.2 757.3 342.1 756.8 347.6 760 349.5 766.4 351 770.1 355.7 772.4 356.3 770.3 359.8 772.4 360.5 774.5 359.6 776.3 365.4 777.6 377.4 779.1 377.5 779.7 375.7 780.3 377.7 783.9 378.1 783.5 398.8 724.4 398.5 718 398.4"></polygon> <polygon class="cls-4" points="783.9 378.1 785 376.4 782.5 374.7 784.1 374 784.6 371.2 786.8 371 785.5 368.3 785.8 366 784.4 364.1 784.8 362 788.4 360.2 788 355.8 792.8 346.8 790.5 344.6 796.6 342.6 798.9 344.2 802.9 340.7 820.1 343.3 824.2 347.9 825.8 347.4 829.9 351 832.9 352 837.2 357.8 836.3 360 836.9 363.7 839.6 362.9 839.4 399.3 784.7 398.8 783.5 398.8 783.9 378.1"></polygon> <polygon class="cls-4" points="957.2 352.1 962.9 347.1 965.3 342.1 967.4 342.7 969.9 346.1 973.5 346.6 974.1 348.7 977.6 349 983.7 353.3 983.8 355.1 981.6 354.9 980.9 355.8 982.6 358.5 987.1 358.7 987.9 359.9 985.9 360.5 985.7 361.6 987.9 363.5 987.5 371.5 981.4 383.9 982.7 384.7 977.7 399.5 974 399.2 952.9 399.2 952.3 399.2 954.3 394.3 949.3 391.5 949.4 386.1 947.7 383 947.1 377.1 948.9 368.1 954.7 358.8 954.8 355.7 957.2 352.1"></polygon> <polygon class="cls-4" points="839.4 399.3 839.6 362.9 845.3 358.9 850.7 362.9 855.9 363.5 861.1 360.3 859.9 352.8 860.7 351.5 878.6 347.5 888.8 354.7 892 355.3 895 358.4 899.2 364.3 900.5 373.4 899.3 379.8 903.5 383.2 902.5 387.7 901 390 898 390.4 896.1 394.2 890 399.6 872.2 399.6 839.4 399.3"></polygon> <polygon class="cls-4" points="1038.2 365.4 1034.1 399.8 996.9 399.8 977.7 399.5 982.7 384.7 981.4 383.9 987.5 371.5 987.9 363.5 985.7 361.6 985.9 360.5 987.9 359.9 991.1 356.4 1010.1 356.5 1012.5 352.9 1032.1 362.3 1030.7 365.2 1031.5 365.7 1032.4 364 1033.4 364.7 1034.3 363.5 1038.2 365.4"></polygon> <polygon class="cls-4" points="1166.2 180.3 1176.3 176 1175.7 171.8 1178 172.1 1185.9 161.6 1192 157.5 1201.7 153.2 1203.3 156 1205.3 155.1 1207.1 156.5 1219.7 149.2 1249.8 149.1 1250.6 150.9 1249.1 151.9 1249.3 159.2 1247.3 162.1 1247.2 164.3 1238.2 171.3 1240.4 174.6 1240 177 1224.6 184.3 1219.3 184.3 1214.7 187.7 1206.4 191.5 1190.3 204.7 1186.6 197.6 1181.7 192.2 1182.4 191.5 1180.9 189.9 1181.7 189.4 1180.1 187.4 1178.3 189.2 1178 193.2 1171.5 196.1 1168.2 195.6 1166 193.7 1167.8 189.2 1165.2 183.2 1166.6 182.1 1166.2 180.3"></polygon> <polygon class="cls-4" points="363.8 255.7 361.4 252 355.3 247.5 354.2 242.2 358.3 238.2 359.7 229.2 361 226.6 370.8 221.8 370.8 218.3 367.2 213.4 383.5 212.7 384.1 208.1 385.5 208.4 425.4 210.1 424.7 239.1 421.1 238.3 419.8 239.7 421.8 243 419.3 244.9 417.6 250.2 413.5 255.7 411.7 255.5 409.6 260.4 402.1 261.4 399.3 256.4 393.1 250.1 384.9 249.6 382.7 253.4 377.4 253.4 375.9 252.3 372.7 254.1 365.7 253.9 363.8 255.7"></polygon> </g> <g id="Member_Counties" data-name="Member Counties"> <polygon class="cls-5" points="1240.4 174.6 1238.2 171.3 1247.2 164.3 1247.3 162.1 1249.3 159.2 1249.1 151.9 1250.6 150.9 1249.8 149.1 1289.4 149 1299.5 148.7 1307.3 148.5 1335.6 148.4 1337 145.6 1348.3 145.9 1337.4 151.9 1328.5 163 1327.1 164.7 1322.9 165.4 1318.1 169.8 1313.8 170.6 1306.8 176.3 1295.9 175.8 1289 180.1 1280.5 179.4 1277.7 180.3 1278.5 176 1275.4 175.2 1274.4 173.2 1270.3 172.5 1252.6 175.6 1243 172.7 1240.4 174.6"></polygon> <polygon class="cls-5" points="806.1 195.1 800.8 192.4 796.6 187.1 794.1 188.2 792.6 195 790.7 195.4 789.5 193 790.2 188.3 788.1 187.8 787.8 186.1 789.6 184.4 790.6 170.5 794 170.4 794.4 166.7 792.9 166.6 793.5 164.4 796.1 164.4 796.2 165.5 800 166.3 803.5 172.7 826.2 175.1 825.3 177 826.2 180.5 816.8 183.3 806.1 195.1"></polygon> <polygon class="cls-5" points="691 234.5 692.2 234.5 692.5 226.3 697.7 221.3 701 202.9 709.1 188.4 708.1 182.1 710.6 181.5 720.3 187.7 725.2 185.8 725.5 181.3 728.3 179.7 738.1 191.1 744.2 202.9 745.5 204 749.7 203.8 754.3 220.2 758.1 219.9 758.1 222.1 756.6 222.2 756.7 224.2 759.4 226.9 757.8 231.8 753.6 231.5 753.1 235.2 749 238.3 747.5 241.3 747.6 245.1 745.8 245.7 743.3 245.7 734.8 241.2 728.6 240.1 728.6 238 724.8 236.1 706.9 234 693.1 243.8 691.7 243.8 691 234.5"></polygon> <polygon class="cls-5" points="847.1 220.5 847.3 217.5 851.1 214.9 848.2 214.5 848.9 211.7 847.9 210.1 850.1 208.2 848.1 204.6 849 201.8 854.5 204.8 871.6 208 872.5 205.8 876.1 205.3 878.9 207 881.2 203.9 882.8 203.4 885.5 197.8 886.9 197.6 887 195.5 886.2 195.4 887.1 193.6 890.8 194 890.6 197.7 898.1 204.8 908.1 206.6 907.5 209.6 925.8 217.8 934.3 218.2 937 219.4 935.3 221.2 933.4 220.5 930.7 225.2 920.1 224.7 916.7 242 917.1 244.5 916.2 244.4 912.4 242.9 909.8 240.5 910.2 235.7 906.7 235.5 904 233.4 885.9 228.2 879.2 229.5 875.4 234 873.6 234.4 872.2 238.9 869.2 238.6 867 238 861.8 229.5 857 228.4 853.3 231.2 851.2 229 851.9 226.6 848 223.4 847.1 220.5"></polygon> <polygon class="cls-5" points="1101.4 260.3 1092.6 266.6 1080.6 261.8 1077.4 262.2 1075.6 260.7 1072.5 262 1073.7 265.7 1069.6 265.4 1068.5 268.7 1064.4 266 1060.4 267.3 1058.9 264.5 1057.8 264.4 1057.1 265 1058.5 272.9 1057.7 273.9 1055.5 272.4 1041.3 256.7 1044.1 254.6 1041.9 253.1 1042.2 250.2 1045.9 252.2 1045.9 249.3 1048.7 250.4 1049.1 245.5 1050.8 245.6 1051.8 243.3 1057.9 243 1067.1 237.2 1067.7 235.6 1064.7 232.3 1064.4 229.8 1071.7 223.7 1073.1 220.8 1081.8 212.5 1084.6 214.9 1108.6 216.1 1109.7 220.8 1113 222 1116.1 228.4 1113.4 227.1 1112.5 228.6 1116.8 235.5 1116.8 239.4 1119.3 243 1118.1 248.5 1115.3 249.7 1115 251.5 1113.7 250.5 1107.4 255.1 1105.9 254.2 1104.5 255 1101.4 260.3"></polygon> <polygon class="cls-5" points="329 313.2 324.4 308.1 324.5 304.3 334.6 299.6 336.3 300.1 338.1 297.7 337.1 293.7 336.1 293.3 332.6 296.1 328 292.9 325.2 287.2 325.3 283.8 330.5 280.6 336.8 281.6 340.9 280.1 344.3 277.6 345.5 272.7 349.4 270.8 352.4 272.4 356.8 269.2 356.7 267 349.6 262.4 348.6 260.4 349 258.4 352.1 255.5 355.1 256.1 361.4 260.1 363.3 258.8 363.8 255.7 365.7 253.9 372.7 254.1 375.9 252.3 377.4 253.4 382.7 253.4 384.9 249.6 393.1 250.1 399.3 256.4 402.1 261.4 402 264.3 399.7 267.7 400.3 270.6 394.5 270.4 389.8 275.9 388.9 280.8 390.2 283.7 386 291.3 386.2 304.7 380.6 306.1 372.2 302.2 366.8 297.5 363.7 298.1 362.6 299.5 356.7 298.2 353.4 298.8 351 297.4 345.4 299.1 344.5 301 342.9 300.2 341.5 304.2 339.4 304.2 338.7 306 333.6 307.2 332.5 311.9 329 313.2"></polygon> <polygon class="cls-5" points="1052 302.6 1044.5 302 1042.7 299.1 1034.8 293.2 1029.4 293.5 1029.1 294.5 1031.9 294.4 1031.8 296.5 1029.9 296.3 1028.6 298.1 1025.1 298 1024.9 294.6 1022.4 294.7 1022.1 293.3 1019.9 293.2 1020 295 1017.7 294.8 1017.7 295.9 1013.3 296 1013.2 294.2 1011.3 293.9 1011 296.2 1008.9 296.5 1012.9 298.7 1011.5 300.5 1009 299.2 1006.7 299 1006.9 297.4 1005.6 297.3 1005.6 299.1 1002.5 299 1002.5 297 1003.8 294.9 1006 295.1 1005.9 291.3 1008.8 290.3 1018.4 279.2 1021.3 281.3 1023.3 276.9 1026.7 278.2 1027.6 276.9 1026.6 275.6 1027.2 271.4 1031 267.7 1033.6 259.8 1038.7 260.8 1038.6 257.7 1041.4 258.2 1041.3 256.7 1055.5 272.4 1053.1 273.2 1053.6 276.9 1055.5 278.2 1053.6 284.6 1055.5 292.6 1058.2 294.3 1058.4 297.6 1056.6 301 1052 302.6"></polygon> <polygon class="cls-5" points="494.8 306.4 494.7 309.8 485.8 321.5 470.6 330.5 464.1 330.4 435.4 330.6 436.7 291 442.3 293.1 457.2 276.3 455.5 273.6 482 274.1 494.6 274.8 494.8 296.1 495.7 296.4 495.8 300.9 494.7 301.2 494.8 306.4"></polygon> <polygon class="cls-5" points="364 339.1 365.1 341.5 364.3 357.3 365.4 357.5 363.7 398 354.7 398.2 280.7 398 282.4 390.6 294.5 391.7 297.8 386 296.7 381.2 298.4 378 301 376.9 308.7 378.7 311 375.2 311.3 372.2 309.9 368.3 310.4 365.1 307.8 358.6 305.8 357.1 300 357.1 297.7 354.2 299.4 350.5 305.7 349.2 306.7 344.4 305.8 341.3 308.2 338.8 309.6 334.9 308.4 333.1 305 333.2 302.4 334.8 301.5 338.6 298 338.4 297.4 332.3 301.8 329.3 306.3 324.5 308.8 323.8 309.7 324.7 309.8 331.8 311.5 333.9 313.2 333.3 315.3 337 347.2 337 347.3 335 353.5 335.4 356.4 333.7 356.8 337.5 364.1 337.5 364 339.1"></polygon> <polygon class="cls-5" points="364 339.1 375.8 335 385 335.3 421.5 336 420.1 398 402 398.1 363.7 398 365.4 357.5 364.3 357.3 365.1 341.5 364 339.1"></polygon> <circle class="cls-6" cx="402.1" cy="237" r="4.4"></circle> <circle class="cls-6" cx="1244" cy="158.4" r="4.4"></circle> <path class="cls-5" d="M402.1,202.8a13.51,13.51,0,0,0-13.5,13.5c0,7.5,13.5,21,13.5,21s13.5-13.6,13.5-21A13.57,13.57,0,0,0,402.1,202.8Zm0,17.3a4.8,4.8,0,0,1-4.8-4.8,4.74,4.74,0,0,1,4.8-4.8A4.8,4.8,0,0,1,402.1,220.1Z"></path> <path class="cls-5" d="M1244,123.8a13.51,13.51,0,0,0-13.5,13.5c0,7.5,13.5,21,13.5,21s13.5-13.6,13.5-21A13.51,13.51,0,0,0,1244,123.8Zm0,17.3a4.8,4.8,0,0,1-4.8-4.8,4.8,4.8,0,0,1,9.6,0A4.8,4.8,0,0,1,1244,141.1Z"></path> </g> </g> </svg> 