<?xml version="1.0" encoding="UTF-8"?> <svg xmlns="http://www.w3.org/2000/svg" id="Layer_1" data-name="Layer 1" viewBox="0 0 443.41 74.55"> <defs> <style>.cls-1{fill:#5699d3;}.cls-2{fill:#5a85bf;}.cls-3{fill:#826d93;}.cls-4{fill:#a55465;}.cls-5{fill:#c33a3a;}</style> </defs> <title>logo_lift</title> <path class="cls-1" d="M135.72,40.42a0.68,0.68,0,0,1,.68-0.68h4.28a0.71,0.71,0,0,1,.68.68V59.64h8.57a0.68,0.68,0,0,1,.68.68v3.92a0.68,0.68,0,0,1-.68.68H136.4a0.68,0.68,0,0,1-.68-0.68V40.42" transform="translate(-25.74 -26.11)"></path> <path class="cls-1" d="M154.11,40.42a0.71,0.71,0,0,1,.68-0.68h4.32a0.71,0.71,0,0,1,.68.68V64.24a0.71,0.71,0,0,1-.68.68H154.8a0.71,0.71,0,0,1-.68-0.68V40.42" transform="translate(-25.74 -26.11)"></path> <path class="cls-1" d="M166,40.42a0.68,0.68,0,0,1,.68-0.68h14.9a0.68,0.68,0,0,1,.68.68v3.92a0.68,0.68,0,0,1-.68.68h-10v5.18h8.21a0.71,0.71,0,0,1,.68.68v3.92a0.71,0.71,0,0,1-.68.68h-8.21v8.75a0.71,0.71,0,0,1-.68.68h-4.25a0.68,0.68,0,0,1-.68-0.68V40.42" transform="translate(-25.74 -26.11)"></path> <path class="cls-1" d="M189.5,45h-5.15a0.68,0.68,0,0,1-.68-0.68V40.42a0.68,0.68,0,0,1,.68-0.68h16a0.68,0.68,0,0,1,.68.68v3.92a0.68,0.68,0,0,1-.68.68h-5.15V64.24a0.71,0.71,0,0,1-.68.68h-4.32a0.71,0.71,0,0,1-.68-0.68V45" transform="translate(-25.74 -26.11)"></path> <path class="cls-1" d="M212.57,40.42a0.68,0.68,0,0,1,.68-0.68h14.9a0.68,0.68,0,0,1,.68.68v3.92a0.68,0.68,0,0,1-.68.68h-10v4.46h8.21a0.71,0.71,0,0,1,.68.68v3.92a0.68,0.68,0,0,1-.68.68h-8.21v4.86h10a0.68,0.68,0,0,1,.68.68v3.92a0.68,0.68,0,0,1-.68.68h-14.9a0.68,0.68,0,0,1-.68-0.68V40.42" transform="translate(-25.74 -26.11)"></path> <path class="cls-1" d="M233.67,40.42a0.68,0.68,0,0,1,.65-0.68h8.78a12.6,12.6,0,1,1,0,25.2h-8.78a0.68,0.68,0,0,1-.65-0.68V40.42m9.07,19.19a7,7,0,0,0,7-7.31,7,7,0,0,0-7-7.27h-3.46V59.6h3.46Z" transform="translate(-25.74 -26.11)"></path> <path class="cls-1" d="M259.77,40.42a0.71,0.71,0,0,1,.68-0.68h4.43a0.68,0.68,0,0,1,.68.68V55a4.46,4.46,0,1,0,8.93,0V40.42a0.68,0.68,0,0,1,.68-0.68h4.43a0.71,0.71,0,0,1,.68.68V55.28a10.26,10.26,0,0,1-20.52,0V40.42" transform="translate(-25.74 -26.11)"></path> <path class="cls-1" d="M297.24,39.37A12.09,12.09,0,0,1,306,42.72a0.67,0.67,0,0,1,0,1l-2.81,2.92a0.63,0.63,0,0,1-.9,0,7.35,7.35,0,0,0-4.86-1.84,7.37,7.37,0,0,0,0,14.72,7.61,7.61,0,0,0,4.82-1.73,0.71,0.71,0,0,1,.94,0l2.81,3a0.72,0.72,0,0,1,0,1,12.35,12.35,0,0,1-8.75,3.49,13,13,0,1,1,0-25.92" transform="translate(-25.74 -26.11)"></path> <path class="cls-1" d="M307.07,64l11.27-24.23a0.73,0.73,0,0,1,.61-0.4h0.36a0.73,0.73,0,0,1,.61.4L331.19,64a0.63,0.63,0,0,1-.61.94h-4a1.21,1.21,0,0,1-1.26-.9L324,61.18h-9.79l-1.3,2.88a1.34,1.34,0,0,1-1.3.86h-4a0.63,0.63,0,0,1-.61-0.94m14.79-7.7-2.74-5.94h0l-2.7,5.94h5.47Z" transform="translate(-25.74 -26.11)"></path> <path class="cls-1" d="M336.09,45h-5.15a0.68,0.68,0,0,1-.68-0.68V40.42a0.68,0.68,0,0,1,.68-0.68h16a0.68,0.68,0,0,1,.68.68v3.92a0.68,0.68,0,0,1-.68.68h-5.15V64.24a0.71,0.71,0,0,1-.68.68h-4.32a0.71,0.71,0,0,1-.68-0.68V45" transform="translate(-25.74 -26.11)"></path> <path class="cls-1" d="M351.21,40.42a0.71,0.71,0,0,1,.68-0.68h4.32a0.71,0.71,0,0,1,.68.68V64.24a0.71,0.71,0,0,1-.68.68h-4.32a0.71,0.71,0,0,1-.68-0.68V40.42" transform="translate(-25.74 -26.11)"></path> <path class="cls-1" d="M374.18,39.37a13,13,0,1,1-12.92,13,12.94,12.94,0,0,1,12.92-13m0,20.16A7.2,7.2,0,1,0,367,52.36,7.21,7.21,0,0,0,374.18,59.53Z" transform="translate(-25.74 -26.11)"></path> <path class="cls-1" d="M391.46,40a0.68,0.68,0,0,1,.68-0.65H393L407.4,53.19h0V40.42a0.68,0.68,0,0,1,.68-0.68h4.32a0.71,0.71,0,0,1,.68.68V64.64a0.68,0.68,0,0,1-.68.65h-0.58a1.07,1.07,0,0,1-.47-0.18L397.18,50.82h0V64.24a0.68,0.68,0,0,1-.68.68h-4.28a0.71,0.71,0,0,1-.68-0.68l0-24.23" transform="translate(-25.74 -26.11)"></path> <path class="cls-1" d="M134.26,78.67a0.34,0.34,0,0,1,.34-0.34h1.66a0.35,0.35,0,0,1,.34.34v10.1h4.59a0.34,0.34,0,0,1,.34.34v1.48a0.34,0.34,0,0,1-.34.34H134.6a0.34,0.34,0,0,1-.34-0.34V78.67" transform="translate(-25.74 -26.11)"></path> <path class="cls-1" d="M143.35,78.67a0.34,0.34,0,0,1,.34-0.34H151a0.34,0.34,0,0,1,.34.34v1.48a0.34,0.34,0,0,1-.34.34h-5.33v3h4.45a0.35,0.35,0,0,1,.34.34v1.49a0.34,0.34,0,0,1-.34.34h-4.45v3.15H151a0.34,0.34,0,0,1,.34.34v1.48a0.34,0.34,0,0,1-.34.34h-7.33a0.34,0.34,0,0,1-.34-0.34V78.67" transform="translate(-25.74 -26.11)"></path> <path class="cls-1" d="M152.29,90.46l5.6-12.12a0.32,0.32,0,0,1,.31-0.2h0.18a0.3,0.3,0,0,1,.31.2l5.55,12.12a0.32,0.32,0,0,1-.3.47h-1.57a0.52,0.52,0,0,1-.52-0.36L161,88.62h-5.38l-0.88,1.94a0.54,0.54,0,0,1-.52.36H152.6a0.32,0.32,0,0,1-.31-0.47m7.78-3.83-1.8-4h-0.05l-1.76,4h3.62Z" transform="translate(-25.74 -26.11)"></path> <path class="cls-1" d="M165.87,78.67a0.34,0.34,0,0,1,.32-0.34h4.27a6.3,6.3,0,1,1,0,12.6h-4.27a0.34,0.34,0,0,1-.32-0.34V78.67m4.38,10.06a4.11,4.11,0,0,0,0-8.23h-2.05v8.23h2.05Z" transform="translate(-25.74 -26.11)"></path> <path class="cls-1" d="M179.15,78.67a0.35,0.35,0,0,1,.34-0.34h1.68a0.35,0.35,0,0,1,.34.34V90.59a0.35,0.35,0,0,1-.34.34h-1.68a0.35,0.35,0,0,1-.34-0.34V78.67" transform="translate(-25.74 -26.11)"></path> <path class="cls-1" d="M184.79,78.47a0.34,0.34,0,0,1,.34-0.32h0.45l7.49,8h0V78.67a0.34,0.34,0,0,1,.34-0.34h1.66a0.35,0.35,0,0,1,.34.34V90.78a0.34,0.34,0,0,1-.34.32h-0.43l-7.53-8.27h0v7.74a0.34,0.34,0,0,1-.34.34h-1.64a0.35,0.35,0,0,1-.34-0.34V78.47" transform="translate(-25.74 -26.11)"></path> <path class="cls-1" d="M204.26,78.14a6.81,6.81,0,0,1,4.39,1.67,0.35,0.35,0,0,1,0,.51l-1.12,1.17a0.31,0.31,0,0,1-.47,0,4.09,4.09,0,0,0-2.72-1,4.15,4.15,0,0,0,0,8.3,5.63,5.63,0,0,0,2.14-.45V86.77h-1.44a0.33,0.33,0,0,1-.34-0.33V85a0.33,0.33,0,0,1,.34-0.34h3.46a0.34,0.34,0,0,1,.32.34v4.61a0.34,0.34,0,0,1-.14.29,9.09,9.09,0,0,1-4.46,1.17,6.47,6.47,0,0,1,0-12.95" transform="translate(-25.74 -26.11)"></path> <path class="cls-1" d="M215.49,78.67a0.35,0.35,0,0,1,.34-0.34h1.68a0.35,0.35,0,0,1,.34.34V90.59a0.35,0.35,0,0,1-.34.34h-1.68a0.35,0.35,0,0,1-.34-0.34V78.67" transform="translate(-25.74 -26.11)"></path> <path class="cls-1" d="M221.13,78.47a0.34,0.34,0,0,1,.34-0.32h0.45l7.49,8h0V78.67a0.34,0.34,0,0,1,.34-0.34h1.66a0.35,0.35,0,0,1,.34.34V90.78a0.34,0.34,0,0,1-.34.32H231l-7.53-8.27h0v7.74a0.34,0.34,0,0,1-.34.34h-1.64a0.35,0.35,0,0,1-.34-0.34V78.47" transform="translate(-25.74 -26.11)"></path> <path class="cls-1" d="M235,78.47a0.34,0.34,0,0,1,.34-0.32h0.45l7.49,8h0V78.67a0.34,0.34,0,0,1,.34-0.34h1.66a0.35,0.35,0,0,1,.34.34V90.78a0.34,0.34,0,0,1-.34.32h-0.43l-7.53-8.27h0v7.74a0.34,0.34,0,0,1-.34.34h-1.64a0.35,0.35,0,0,1-.34-0.34V78.47" transform="translate(-25.74 -26.11)"></path> <path class="cls-1" d="M254.52,78.14a6.48,6.48,0,1,1-6.46,6.5,6.47,6.47,0,0,1,6.46-6.5m0,10.62a4.14,4.14,0,1,0-4.12-4.12A4.15,4.15,0,0,0,254.52,88.77Z" transform="translate(-25.74 -26.11)"></path> <path class="cls-1" d="M261.63,78.79a0.32,0.32,0,0,1,.31-0.47h1.84a0.33,0.33,0,0,1,.31.2l3.46,7.74h0.13l3.46-7.74a0.33,0.33,0,0,1,.31-0.2h1.84a0.32,0.32,0,0,1,.31.47L268,90.91a0.32,0.32,0,0,1-.31.2h-0.18a0.33,0.33,0,0,1-.31-0.2l-5.56-12.12" transform="translate(-25.74 -26.11)"></path> <path class="cls-1" d="M272.66,90.46l5.6-12.12a0.32,0.32,0,0,1,.31-0.2h0.18a0.31,0.31,0,0,1,.31.2l5.55,12.12a0.32,0.32,0,0,1-.31.47h-1.57a0.52,0.52,0,0,1-.52-0.36l-0.88-1.94h-5.38l-0.88,1.94a0.54,0.54,0,0,1-.52.36H273a0.32,0.32,0,0,1-.31-0.47m7.78-3.83-1.8-4h-0.05l-1.77,4h3.62Z" transform="translate(-25.74 -26.11)"></path> <path class="cls-1" d="M287.26,80.49H284.5a0.34,0.34,0,0,1-.34-0.34V78.67a0.34,0.34,0,0,1,.34-0.34h7.87a0.34,0.34,0,0,1,.34.34v1.48a0.34,0.34,0,0,1-.34.34h-2.76v10.1a0.35,0.35,0,0,1-.34.34H287.6a0.35,0.35,0,0,1-.34-0.34V80.49" transform="translate(-25.74 -26.11)"></path> <path class="cls-1" d="M294.58,78.67a0.35,0.35,0,0,1,.34-0.34h1.67a0.35,0.35,0,0,1,.34.34V90.59a0.35,0.35,0,0,1-.34.34h-1.67a0.35,0.35,0,0,1-.34-0.34V78.67" transform="translate(-25.74 -26.11)"></path> <path class="cls-1" d="M305.78,78.14a6.48,6.48,0,1,1-6.46,6.5,6.47,6.47,0,0,1,6.46-6.5m0,10.62a4.14,4.14,0,1,0-4.12-4.12A4.15,4.15,0,0,0,305.78,88.77Z" transform="translate(-25.74 -26.11)"></path> <path class="cls-1" d="M314.62,78.47a0.34,0.34,0,0,1,.34-0.32h0.45l7.49,8h0V78.67a0.34,0.34,0,0,1,.34-0.34h1.66a0.35,0.35,0,0,1,.34.34V90.78a0.34,0.34,0,0,1-.34.32h-0.43L317,82.84h0v7.74a0.34,0.34,0,0,1-.34.34H315a0.35,0.35,0,0,1-.34-0.34V78.47" transform="translate(-25.74 -26.11)"></path> <path class="cls-1" d="M332.51,78.67a0.34,0.34,0,0,1,.34-0.34h7.33a0.34,0.34,0,0,1,.34.34v1.48a0.34,0.34,0,0,1-.34.34h-5.33v3.38h4.45a0.35,0.35,0,0,1,.34.34v1.48a0.35,0.35,0,0,1-.34.34h-4.45v4.56a0.35,0.35,0,0,1-.34.34h-1.66a0.34,0.34,0,0,1-.34-0.34V78.67" transform="translate(-25.74 -26.11)"></path> <path class="cls-1" d="M348.22,78.14a6.48,6.48,0,1,1-6.46,6.5,6.47,6.47,0,0,1,6.46-6.5m0,10.62a4.14,4.14,0,1,0-4.12-4.12A4.15,4.15,0,0,0,348.22,88.77Z" transform="translate(-25.74 -26.11)"></path> <path class="cls-1" d="M357.06,78.67a0.34,0.34,0,0,1,.34-0.34h5.15a3.9,3.9,0,0,1,3.93,3.87,4,4,0,0,1-2.67,3.64l2.47,4.57a0.34,0.34,0,0,1-.31.52h-1.89a0.31,0.31,0,0,1-.29-0.16L361.4,86h-2v4.59a0.35,0.35,0,0,1-.34.34H357.4a0.34,0.34,0,0,1-.34-0.34V78.67m5.29,5.4a1.84,1.84,0,0,0,1.78-1.84,1.79,1.79,0,0,0-1.78-1.75h-2.93v3.58h2.93Z" transform="translate(-25.74 -26.11)"></path> <path class="cls-1" d="M374.72,80.49H372a0.34,0.34,0,0,1-.34-0.34V78.67a0.34,0.34,0,0,1,.34-0.34h7.87a0.34,0.34,0,0,1,.34.34v1.48a0.34,0.34,0,0,1-.34.34h-2.75v10.1a0.35,0.35,0,0,1-.34.34h-1.67a0.35,0.35,0,0,1-.34-0.34V80.49" transform="translate(-25.74 -26.11)"></path> <path class="cls-1" d="M382,78.67a0.34,0.34,0,0,1,.34-0.34h7.33a0.34,0.34,0,0,1,.34.34v1.48a0.34,0.34,0,0,1-.34.34h-5.33v3h4.45a0.35,0.35,0,0,1,.34.34v1.49a0.34,0.34,0,0,1-.34.34h-4.45v3.15h5.33a0.34,0.34,0,0,1,.34.34v1.48a0.34,0.34,0,0,1-.34.34h-7.33a0.34,0.34,0,0,1-.34-0.34V78.67" transform="translate(-25.74 -26.11)"></path> <path class="cls-1" d="M392.63,78.47a0.34,0.34,0,0,1,.34-0.32h0.45l7.49,8h0V78.67a0.34,0.34,0,0,1,.34-0.34h1.66a0.35,0.35,0,0,1,.34.34V90.78a0.34,0.34,0,0,1-.34.32h-0.43L395,82.84h0v7.74a0.34,0.34,0,0,1-.34.34H393a0.35,0.35,0,0,1-.34-0.34V78.47" transform="translate(-25.74 -26.11)"></path> <path class="cls-1" d="M406.54,78.47a0.34,0.34,0,0,1,.34-0.32h0.45l7.49,8h0V78.67a0.34,0.34,0,0,1,.34-0.34h1.66a0.35,0.35,0,0,1,.34.34V90.78a0.34,0.34,0,0,1-.34.32h-0.43l-7.53-8.27h0v7.74a0.34,0.34,0,0,1-.34.34h-1.64a0.35,0.35,0,0,1-.34-0.34V78.47" transform="translate(-25.74 -26.11)"></path> <path class="cls-1" d="M420.45,78.67a0.34,0.34,0,0,1,.34-0.34h7.33a0.34,0.34,0,0,1,.34.34v1.48a0.34,0.34,0,0,1-.34.34H422.8v3h4.45a0.35,0.35,0,0,1,.34.34v1.49a0.34,0.34,0,0,1-.34.34H422.8v3.15h5.33a0.34,0.34,0,0,1,.34.34v1.48a0.34,0.34,0,0,1-.34.34H420.8a0.34,0.34,0,0,1-.34-0.34V78.67" transform="translate(-25.74 -26.11)"></path> <path class="cls-1" d="M430.3,89.16L430.95,88a0.42,0.42,0,0,1,.61-0.13A6,6,0,0,0,434.28,89a1.5,1.5,0,0,0,1.64-1.39c0-.92-0.77-1.55-2.29-2.16-1.69-.68-3.39-1.76-3.39-3.89,0-1.6,1.19-3.46,4.05-3.46a6.33,6.33,0,0,1,3.6,1.21,0.45,0.45,0,0,1,.11.59l-0.68,1a0.47,0.47,0,0,1-.63.22,5.91,5.91,0,0,0-2.5-1,1.43,1.43,0,0,0-1.58,1.26c0,0.85.67,1.42,2.13,2,1.75,0.7,3.76,1.75,3.76,4.07,0,1.85-1.6,3.57-4.14,3.57a5.79,5.79,0,0,1-4-1.41,0.35,0.35,0,0,1-.09-0.54" transform="translate(-25.74 -26.11)"></path> <path class="cls-1" d="M440.06,89.16L440.7,88a0.42,0.42,0,0,1,.61-0.13A6,6,0,0,0,444,89a1.5,1.5,0,0,0,1.64-1.39c0-.92-0.77-1.55-2.29-2.16-1.69-.68-3.38-1.76-3.38-3.89,0-1.6,1.19-3.46,4.05-3.46a6.33,6.33,0,0,1,3.6,1.21,0.45,0.45,0,0,1,.11.59l-0.68,1a0.47,0.47,0,0,1-.63.22,5.92,5.92,0,0,0-2.5-1,1.43,1.43,0,0,0-1.58,1.26c0,0.85.67,1.42,2.13,2,1.75,0.7,3.76,1.75,3.76,4.07,0,1.85-1.6,3.57-4.14,3.57a5.8,5.8,0,0,1-4-1.41,0.35,0.35,0,0,1-.09-0.54" transform="translate(-25.74 -26.11)"></path> <path class="cls-1" d="M450.55,78.67a0.34,0.34,0,0,1,.34-0.34h7.33a0.34,0.34,0,0,1,.34.34v1.48a0.34,0.34,0,0,1-.34.34h-5.33v3h4.45a0.35,0.35,0,0,1,.34.34v1.49a0.34,0.34,0,0,1-.34.34h-4.45v3.15h5.33a0.34,0.34,0,0,1,.34.34v1.48a0.34,0.34,0,0,1-.34.34h-7.33a0.34,0.34,0,0,1-.34-0.34V78.67" transform="translate(-25.74 -26.11)"></path> <path class="cls-1" d="M461.13,78.67a0.34,0.34,0,0,1,.34-0.34h7.33a0.34,0.34,0,0,1,.34.34v1.48a0.34,0.34,0,0,1-.34.34h-5.33v3h4.45a0.35,0.35,0,0,1,.34.34v1.49a0.34,0.34,0,0,1-.34.34h-4.45v3.15h5.33a0.34,0.34,0,0,1,.34.34v1.48a0.34,0.34,0,0,1-.34.34h-7.33a0.34,0.34,0,0,1-.34-0.34V78.67" transform="translate(-25.74 -26.11)"></path> <path class="cls-2" d="M117.35,46.55C85.66,48.66,57.9,71.26,26.22,73.39a0.52,0.52,0,0,1-.48-0.58V55.27a0.53,0.53,0,0,1,.43-0.57C57.85,52.59,85.61,30,117.3,27.87a0.52,0.52,0,0,1,.48.58V46a0.53,0.53,0,0,1-.43.57" transform="translate(-25.74 -26.11)"></path> <path class="cls-3" d="M117.35,61.58C85.66,63.69,57.9,86.29,26.22,88.42a0.52,0.52,0,0,1-.48-0.58V79.65a0.53,0.53,0,0,1,.43-0.57C57.85,77,85.61,54.38,117.3,52.24a0.52,0.52,0,0,1,.48.58V61a0.53,0.53,0,0,1-.43.57" transform="translate(-25.74 -26.11)"></path> <path class="cls-4" d="M117.35,72.1C85.66,74.21,57.9,96.8,26.22,98.94a0.52,0.52,0,0,1-.48-0.58V94.84a0.53,0.53,0,0,1,.43-0.57c31.69-2.11,59.45-24.7,91.13-26.84a0.52,0.52,0,0,1,.48.58v3.52a0.53,0.53,0,0,1-.43.57" transform="translate(-25.74 -26.11)"></path> <path class="cls-1" d="M70.93,36.37c7.84-3.26,15.82-6.57,24-9.13,0.52-.16.43-1.13-0.11-1.13H26.19a0.52,0.52,0,0,0-.45.57V49a0.49,0.49,0,0,0,.55.61c15.41-1.09,30.27-7.25,44.64-13.23" transform="translate(-25.74 -26.11)"></path> <path class="cls-5" d="M72.59,90.41c-7.84,3.26-15.82,6.57-24,9.13-0.52.16-.43,1.13,0.11,1.13h68.63a0.52,0.52,0,0,0,.45-0.57V77.78a0.49,0.49,0,0,0-.55-0.6C101.82,78.26,87,84.43,72.59,90.41" transform="translate(-25.74 -26.11)"></path> </svg> 