<?xml version="1.0" encoding="UTF-8"?> <svg xmlns="http://www.w3.org/2000/svg" xmlns:xlink="http://www.w3.org/1999/xlink" viewBox="0 0 380 467"> <defs> <style>.a{fill:#f7f8f9;}.b{fill:#d7d7d7;}.c{fill:#5699d2;}.d{fill:#5983bf;}.e{fill:#816d92;}.f{fill:#a45464;}.g{fill:#c23a3a;}.h{fill:#fcfcfc;}.i{fill:url(#a);}.j{fill:url(#b);}.k{fill:url(#c);}.l{fill:#5f6370;}</style> <radialGradient id="a" cx="348.97" cy="5.13" r="12.82" gradientTransform="translate(-26 56)" gradientUnits="userSpaceOnUse"> <stop offset="0.38" stop-color="#eaeaeb"></stop> <stop offset="1" stop-color="#f7f8f9"></stop> </radialGradient> <linearGradient id="b" x1="335.84" y1="-25.5" x2="343.99" y2="-25.5" gradientTransform="translate(-26 56)" gradientUnits="userSpaceOnUse"> <stop offset="0" stop-color="#f7f8f9"></stop> <stop offset="1" stop-color="#eaeaeb"></stop> </linearGradient> <linearGradient id="c" x1="377.5" y1="17.94" x2="377.5" y2="9.97" xlink:href="#b"></linearGradient> </defs> <title>paper--news</title> <path class="a" d="M318,61.16C318,46,317.85,0,317.85,0H5A5,5,0,0,0,0,5V462a5,5,0,0,0,5,5H375a5,5,0,0,0,5-5V66H323C321.07,66,318,64.21,318,61.16Z"></path> <path class="a" d="M-26-12"></path> <path class="a" d="M-26-12"></path> <path class="b" d="M56.12,164.8v-5H305.88v5H56.12Z"></path> <path class="b" d="M56.12,179.8v-5H299.65v5H56.12Z"></path> <path class="b" d="M56.12,194.8v-5h252v5h-252Z"></path> <path class="b" d="M56.12,209.8v-5H305.88v5H56.12Z"></path> <path class="b" d="M56.12,224.8v-5H309v5H56.12Z"></path> <path class="b" d="M56.12,239.8v-5h241v5h-241Z"></path> <path class="b" d="M56.12,254.8v-5H96.78v5H56.12Z"></path> <path class="b" d="M56.12,284.8v-5H290.28v5H56.12Z"></path> <path class="b" d="M56.12,299.8v-5H295v5H56.12Z"></path> <path class="b" d="M56.12,314.8v-5h252v5h-252Z"></path> <path class="b" d="M56.12,329.8v-5H304.63v5H56.12Z"></path> <path class="b" d="M56.12,344.8v-5H251v5H56.12Z"></path> <path class="c" d="M90,67.29a0.2,0.2,0,0,1,.19-0.21h1.29a0.21,0.21,0,0,1,.21.21v5.76h2.57a0.21,0.21,0,0,1,.21.21v1.18a0.21,0.21,0,0,1-.21.21H90.2a0.2,0.2,0,0,1-.2-0.2h0V67.29"></path> <path class="c" d="M95.55,67.29a0.21,0.21,0,0,1,.21-0.21H97a0.21,0.21,0,0,1,.21.21v7.14a0.21,0.21,0,0,1-.21.21H95.71a0.21,0.21,0,0,1-.21-0.21V67.29"></path> <path class="c" d="M99.11,67.29a0.2,0.2,0,0,1,.19-0.21h4.49a0.2,0.2,0,0,1,.21.21v1.18a0.2,0.2,0,0,1-.2.2h-3v1.55h2.46a0.21,0.21,0,0,1,.21.21h0V71.6a0.21,0.21,0,0,1-.21.21H100.8v2.62a0.21,0.21,0,0,1-.2.21H99.32a0.2,0.2,0,0,1-.21-0.21V67.29"></path> <path class="c" d="M106.16,68.67h-1.54a0.2,0.2,0,0,1-.2-0.2V67.29a0.2,0.2,0,0,1,.19-0.21h4.8a0.2,0.2,0,0,1,.2.2h0v1.18a0.2,0.2,0,0,1-.2.2h-1.54v5.76a0.21,0.21,0,0,1-.2.21h-1.3a0.21,0.21,0,0,1-.21-0.21h0V68.67"></path> <path class="c" d="M113.07,67.29a0.2,0.2,0,0,1,.19-0.21h4.49a0.2,0.2,0,0,1,.21.21v1.18a0.2,0.2,0,0,1-.2.2h-3V70h2.46a0.21,0.21,0,0,1,.21.21h0v1.18a0.2,0.2,0,0,1-.19.21h-2.48v1.46h3a0.21,0.21,0,0,1,.21.21h0v1.18a0.2,0.2,0,0,1-.19.21h-4.49a0.2,0.2,0,0,1-.21-0.21V67.29"></path> <path class="c" d="M119.4,67.29a0.2,0.2,0,0,1,.19-0.21h2.63a3.78,3.78,0,0,1,.39,7.55h-3a0.2,0.2,0,0,1-.19-0.21h0V67.29m2.7,5.71a2.19,2.19,0,0,0,0-4.37h-1V73h1Z"></path> <path class="c" d="M127.22,67.29a0.21,0.21,0,0,1,.21-0.21h1.33a0.2,0.2,0,0,1,.21.21v4.37a1.34,1.34,0,0,0,2.68,0h0V67.29a0.2,0.2,0,0,1,.19-0.21h1.35a0.21,0.21,0,0,1,.21.21h0v4.46a3.08,3.08,0,0,1-6.15,0V67.29"></path> <path class="c" d="M138.46,67a3.62,3.62,0,0,1,2.61,1,0.2,0.2,0,0,1,0,.28h0l-0.84.87a0.19,0.19,0,0,1-.27,0h0A2.17,2.17,0,1,0,138.5,73a2.28,2.28,0,0,0,1.5-.53,0.21,0.21,0,0,1,.28,0l0.84,0.9a0.22,0.22,0,0,1,0,.29,3.7,3.7,0,0,1-2.62,1,3.89,3.89,0,0,1-.39-7.77h0.39"></path> <path class="c" d="M141.41,74.36l3.38-7.26A0.22,0.22,0,0,1,145,67h0.11a0.22,0.22,0,0,1,.18.12l3.38,7.26a0.19,0.19,0,0,1-.18.28h-1.2a0.36,0.36,0,0,1-.38-0.27l-0.39-.85h-2.94l-0.39.86a0.4,0.4,0,0,1-.39.26h-1.19a0.19,0.19,0,0,1-.18-0.28M145.84,72L145,70.27h0L144.2,72h1.64Z"></path> <path class="c" d="M150.11,68.67h-1.54a0.2,0.2,0,0,1-.2-0.2V67.29a0.2,0.2,0,0,1,.19-0.21h4.8a0.2,0.2,0,0,1,.2.2h0v1.18a0.2,0.2,0,0,1-.2.2h-1.54v5.76a0.21,0.21,0,0,1-.2.21h-1.3a0.21,0.21,0,0,1-.21-0.21h0V68.67"></path> <path class="c" d="M154.64,67.29a0.21,0.21,0,0,1,.2-0.21h1.3a0.21,0.21,0,0,1,.21.21h0v7.14a0.21,0.21,0,0,1-.21.21h-1.3a0.21,0.21,0,0,1-.2-0.21V67.29"></path> <path class="c" d="M161.53,67a3.89,3.89,0,1,1-3.87,3.91h0a3.88,3.88,0,0,1,3.86-3.9h0m0,6a2.16,2.16,0,1,0-2.15-2.17h0A2.16,2.16,0,0,0,161.53,73h0Z"></path> <path class="c" d="M166.71,67.17a0.2,0.2,0,0,1,.21-0.19h0.27l4.31,4.14h0V67.29a0.2,0.2,0,0,1,.19-0.21H173a0.21,0.21,0,0,1,.21.21h0v7.26a0.2,0.2,0,0,1-.21.19h-0.17a0.32,0.32,0,0,1-.14-0.05l-4.26-4.28h0v4a0.2,0.2,0,0,1-.19.21H167a0.21,0.21,0,0,1-.21-0.21h0V67.17"></path> <path class="c" d="M89.59,78.76a0.1,0.1,0,0,1,.1-0.1h0.5a0.11,0.11,0,0,1,.1.1v3h1.38a0.1,0.1,0,0,1,.1.1V82.3a0.1,0.1,0,0,1-.1.1h-2a0.1,0.1,0,0,1-.1-0.1V78.76"></path> <path class="c" d="M92.32,78.76a0.1,0.1,0,0,1,.1-0.1h2.2a0.1,0.1,0,0,1,.1.1V79.2a0.1,0.1,0,0,1-.1.1H93v0.89h1.33a0.11,0.11,0,0,1,.1.1v0.45a0.1,0.1,0,0,1-.1.1H93v0.94h1.6a0.1,0.1,0,0,1,.1.1v0.44a0.1,0.1,0,0,1-.1.1H92.4a0.1,0.1,0,0,1-.1-0.1V78.76"></path> <path class="c" d="M95,82.29l1.68-3.63a0.1,0.1,0,0,1,.09-0.06h0.05a0.09,0.09,0,0,1,.09.06l1.66,3.63a0.1,0.1,0,0,1-.05.13H98a0.16,0.16,0,0,1-.16-0.11l-0.26-.58H96l-0.26.58a0.16,0.16,0,0,1-.16.11H95.11A0.1,0.1,0,0,1,95,82.29m2.33-1.15L96.79,80h0l-0.53,1.19h1.09V81.14h0Z"></path> <path class="c" d="M99.07,78.76a0.1,0.1,0,0,1,.1-0.1h1.28a1.89,1.89,0,1,1,0,3.78H99.17a0.1,0.1,0,0,1-.1-0.1V78.76m1.31,3a1.24,1.24,0,0,0,0-2.47H99.76v2.47h0.62Z"></path> <path class="c" d="M103.05,78.76a0.11,0.11,0,0,1,.1-0.1h0.5a0.11,0.11,0,0,1,.1.1v3.57a0.11,0.11,0,0,1-.1.1h-0.5a0.11,0.11,0,0,1-.1-0.1V78.76"></path> <path class="c" d="M104.74,78.7a0.1,0.1,0,0,1,.1-0.1H105l2.23,2.4h0V78.76a0.1,0.1,0,0,1,.1-0.1h0.5a0.11,0.11,0,0,1,.1.1v3.63a0.1,0.1,0,0,1-.1.1H107.7L105.44,80h0v2.32a0.1,0.1,0,0,1-.1.1h-0.49a0.11,0.11,0,0,1-.1-0.1V78.7"></path> <path class="c" d="M110.58,78.6a2,2,0,0,1,1.32.5,0.1,0.1,0,0,1,0,.14h0l-0.33.35a0.09,0.09,0,0,1-.13,0h0a1.22,1.22,0,0,0-.82-0.31,1.24,1.24,0,1,0,0,2.49,1.69,1.69,0,0,0,.64-0.13V81.19h-0.43a0.1,0.1,0,0,1-.1-0.1h0V80.66a0.1,0.1,0,0,1,.1-0.1h1a0.1,0.1,0,0,1,.1.1h0V82a0.1,0.1,0,0,1,0,.09,2.73,2.73,0,0,1-1.34.35,1.94,1.94,0,0,1,0-3.88"></path> <path class="c" d="M113.95,78.76a0.11,0.11,0,0,1,.1-0.1h0.5a0.11,0.11,0,0,1,.1.1v3.57a0.11,0.11,0,0,1-.1.1H114a0.11,0.11,0,0,1-.1-0.1V78.76"></path> <path class="c" d="M115.64,78.7a0.1,0.1,0,0,1,.1-0.1h0.13l2.25,2.4h0V78.76a0.1,0.1,0,0,1,.1-0.1h0.5a0.11,0.11,0,0,1,.1.1v3.63a0.1,0.1,0,0,1-.1.1H118.6L116.34,80h0v2.32a0.1,0.1,0,0,1-.1.1h-0.49a0.11,0.11,0,0,1-.1-0.1V78.7"></path> <path class="c" d="M119.81,78.7a0.1,0.1,0,0,1,.1-0.1H120l2.29,2.4h0V78.76a0.1,0.1,0,0,1,.1-0.1h0.5a0.11,0.11,0,0,1,.1.1v3.63a0.1,0.1,0,0,1-.1.1h-0.13L120.51,80h0v2.32a0.1,0.1,0,0,1-.1.1h-0.49a0.11,0.11,0,0,1-.1-0.1V78.7"></path> <path class="c" d="M125.65,78.6a1.94,1.94,0,1,1-1.94,1.95,1.94,1.94,0,0,1,1.94-1.95h0m0,3.19a1.24,1.24,0,1,0-1.24-1.24h0a1.24,1.24,0,0,0,1.24,1.24h0Z"></path> <path class="c" d="M127.78,78.79a0.1,0.1,0,0,1,.05-0.13h0.59a0.1,0.1,0,0,1,.09.06l1,2.32h0l1-2.32a0.1,0.1,0,0,1,.09-0.06h0.55a0.1,0.1,0,0,1,.09.14l-1.67,3.63a0.1,0.1,0,0,1-.09.06h-0.05a0.1,0.1,0,0,1-.09-0.06l-1.67-3.63"></path> <path class="c" d="M131.09,82.29l1.68-3.63a0.1,0.1,0,0,1,.09-0.06h0.05a0.09,0.09,0,0,1,.09.06l1.66,3.63a0.1,0.1,0,0,1-.05.13H134.1a0.16,0.16,0,0,1-.16-0.11l-0.26-.58h-1.61l-0.26.58a0.16,0.16,0,0,1-.16.11h-0.47a0.1,0.1,0,0,1-.09-0.14m2.33-1.15L132.88,80h0l-0.53,1.19h1.09Z"></path> <path class="c" d="M135.47,79.3h-0.83a0.1,0.1,0,0,1-.1-0.1h0V78.76a0.1,0.1,0,0,1,.1-0.1H137a0.1,0.1,0,0,1,.1.1h0V79.2a0.1,0.1,0,0,1-.1.1h-0.83v3a0.11,0.11,0,0,1-.1.1h-0.5a0.11,0.11,0,0,1-.1-0.1v-3"></path> <path class="c" d="M137.66,78.76a0.11,0.11,0,0,1,.1-0.1h0.5a0.11,0.11,0,0,1,.1.1v3.57a0.11,0.11,0,0,1-.1.1h-0.5a0.11,0.11,0,0,1-.1-0.1V78.76"></path> <path class="c" d="M141,78.6a1.94,1.94,0,1,1-1.94,1.95A1.94,1.94,0,0,1,141,78.6h0m0,3.19a1.24,1.24,0,1,0-1.24-1.24A1.24,1.24,0,0,0,141,81.79h0Z"></path> <path class="c" d="M143.67,78.7a0.1,0.1,0,0,1,.1-0.1h0.13l2.25,2.4h0V78.76a0.1,0.1,0,0,1,.1-0.1h0.5a0.11,0.11,0,0,1,.1.1v3.63a0.1,0.1,0,0,1-.1.1h-0.13L144.37,80h0v2.32a0.1,0.1,0,0,1-.1.1h-0.49a0.11,0.11,0,0,1-.1-0.1V78.7"></path> <path class="c" d="M149,78.76a0.1,0.1,0,0,1,.1-0.1h2.2a0.1,0.1,0,0,1,.1.1h0V79.2a0.1,0.1,0,0,1-.1.1h-1.6v1H151a0.11,0.11,0,0,1,.1.1v0.44a0.11,0.11,0,0,1-.1.1h-1.3v1.37a0.11,0.11,0,0,1-.1.1h-0.5a0.1,0.1,0,0,1-.1-0.1h0V78.76"></path> <path class="c" d="M153.75,78.6a1.94,1.94,0,1,1-1.94,1.95,1.94,1.94,0,0,1,1.94-1.95h0m0,3.19a1.24,1.24,0,1,0-1.24-1.24,1.24,1.24,0,0,0,1.24,1.24h0Z"></path> <path class="c" d="M156.39,78.76a0.1,0.1,0,0,1,.1-0.1H158a1.17,1.17,0,0,1,1.18,1.16h0a1.19,1.19,0,0,1-.8,1.09l0.74,1.37a0.1,0.1,0,0,1,0,.14H158.5a0.09,0.09,0,0,1-.09,0L157.69,81h-0.6v1.38a0.11,0.11,0,0,1-.1.1h-0.5a0.1,0.1,0,0,1-.1-0.1h0V78.76M158,80.38a0.55,0.55,0,0,0,.53-0.55A0.54,0.54,0,0,0,158,79.3h-0.9v1.07H158Z"></path> <path class="c" d="M161.69,79.3h-0.83a0.1,0.1,0,0,1-.1-0.1h0V78.76a0.1,0.1,0,0,1,.1-0.1h2.36a0.1,0.1,0,0,1,.1.1h0V79.2a0.1,0.1,0,0,1-.1.1H162.4v3a0.11,0.11,0,0,1-.1.1h-0.5a0.11,0.11,0,0,1-.1-0.1v-3"></path> <path class="c" d="M163.88,78.76a0.1,0.1,0,0,1,.1-0.1h2.2a0.1,0.1,0,0,1,.1.1h0V79.2a0.1,0.1,0,0,1-.1.1h-1.6v0.89h1.33a0.11,0.11,0,0,1,.1.1v0.45a0.1,0.1,0,0,1-.1.1h-1.33v0.94h1.6a0.1,0.1,0,0,1,.1.1h0v0.44a0.1,0.1,0,0,1-.1.1H164a0.1,0.1,0,0,1-.1-0.1h0V78.76"></path> <path class="c" d="M167.06,78.7a0.1,0.1,0,0,1,.1-0.1h0.13l2.25,2.4h0V78.76a0.1,0.1,0,0,1,.1-0.1h0.5a0.11,0.11,0,0,1,.1.1v3.63a0.1,0.1,0,0,1-.1.1H170L167.76,80h0v2.32a0.1,0.1,0,0,1-.1.1h-0.49a0.11,0.11,0,0,1-.1-0.1V78.7"></path> <path class="c" d="M171.23,78.7a0.1,0.1,0,0,1,.1-0.1h0.13l2.25,2.4h0V78.76a0.1,0.1,0,0,1,.1-0.1h0.5a0.11,0.11,0,0,1,.1.1v3.63a0.1,0.1,0,0,1-.1.1h-0.13L171.93,80h0v2.32a0.1,0.1,0,0,1-.1.1h-0.49a0.11,0.11,0,0,1-.1-0.1V78.7"></path> <path class="c" d="M175.4,78.76a0.1,0.1,0,0,1,.1-0.1h2.2a0.1,0.1,0,0,1,.1.1h0V79.2a0.1,0.1,0,0,1-.1.1h-1.6v0.89h1.33a0.11,0.11,0,0,1,.1.1v0.45a0.1,0.1,0,0,1-.1.1H176.1v0.94h1.6a0.1,0.1,0,0,1,.1.1h0v0.44a0.1,0.1,0,0,1-.1.1h-2.2a0.1,0.1,0,0,1-.1-0.1h0V78.76"></path> <path class="c" d="M178.35,81.9l0.19-.33a0.12,0.12,0,0,1,.17,0h0a1.79,1.79,0,0,0,.82.33,0.45,0.45,0,0,0,.49-0.41h0a0.83,0.83,0,0,0-.69-0.65,1.32,1.32,0,0,1-1-1.17,1.08,1.08,0,0,1,1.15-1h0.06a1.9,1.9,0,0,1,1.08.36,0.13,0.13,0,0,1,0,.18l-0.21.31a0.14,0.14,0,0,1-.19.06h0a1.77,1.77,0,0,0-.75-0.3,0.43,0.43,0,0,0-.47.38,0.76,0.76,0,0,0,.64.6,1.42,1.42,0,0,1,1.13,1.22,1.14,1.14,0,0,1-1.2,1.07h0a1.74,1.74,0,0,1-1.19-.42,0.11,0.11,0,0,1,0-.16h0"></path> <path class="c" d="M181.28,81.9l0.19-.33a0.12,0.12,0,0,1,.17,0h0a1.79,1.79,0,0,0,.82.33,0.45,0.45,0,0,0,.49-0.41h0a0.83,0.83,0,0,0-.69-0.65,1.32,1.32,0,0,1-1-1.17,1.08,1.08,0,0,1,1.15-1h0.06a1.9,1.9,0,0,1,1.08.36,0.13,0.13,0,0,1,0,.18l-0.21.31a0.14,0.14,0,0,1-.19.06h0a1.77,1.77,0,0,0-.75-0.3,0.43,0.43,0,0,0-.47.38,0.76,0.76,0,0,0,.64.6,1.42,1.42,0,0,1,1.13,1.22,1.14,1.14,0,0,1-1.2,1.07h0a1.74,1.74,0,0,1-1.19-.42,0.11,0.11,0,0,1,0-.16h0"></path> <path class="c" d="M184.42,78.76a0.1,0.1,0,0,1,.1-0.1h2.2a0.1,0.1,0,0,1,.1.1h0V79.2a0.1,0.1,0,0,1-.1.1h-1.6v0.89h1.33a0.11,0.11,0,0,1,.1.1v0.45a0.1,0.1,0,0,1-.1.1h-1.33v0.94h1.6a0.1,0.1,0,0,1,.1.1h0v0.44a0.1,0.1,0,0,1-.1.1h-2.2a0.1,0.1,0,0,1-.1-0.1h0V78.76"></path> <path class="c" d="M187.6,78.76a0.1,0.1,0,0,1,.1-0.1h2.2a0.1,0.1,0,0,1,.1.1h0V79.2a0.1,0.1,0,0,1-.1.1h-1.6v0.89h1.33a0.11,0.11,0,0,1,.1.1v0.45a0.1,0.1,0,0,1-.1.1H188.3v0.94h1.6a0.1,0.1,0,0,1,.1.1h0v0.44a0.1,0.1,0,0,1-.1.1h-2.2a0.1,0.1,0,0,1-.1-0.1h0V78.76"></path> <path class="d" d="M84.52,69.13c-9.5.63-17.82,7.41-27.32,8A0.16,0.16,0,0,1,57.06,77V71.74a0.16,0.16,0,0,1,.13-0.17c9.5-.63,17.82-7.41,27.32-8a0.16,0.16,0,0,1,.14.17V69a0.16,0.16,0,0,1-.13.17"></path> <path class="e" d="M84.52,73.63c-9.5.63-17.82,7.41-27.32,8a0.16,0.16,0,0,1-.14-0.17V79.05a0.16,0.16,0,0,1,.13-0.17c9.5-.63,17.82-7.41,27.32-8a0.16,0.16,0,0,1,.14.17v2.46a0.16,0.16,0,0,1-.13.17"></path> <path class="f" d="M84.52,76.79c-9.5.63-17.82,7.41-27.32,8a0.16,0.16,0,0,1-.14-0.17v-1a0.16,0.16,0,0,1,.13-0.17c9.5-.63,17.82-7.41,27.32-8a0.16,0.16,0,0,1,.14.17v1.06a0.16,0.16,0,0,1-.13.17"></path> <path class="c" d="M70.61,66.07a70.17,70.17,0,0,1,7.2-2.74c0.16,0,.13-0.34,0-0.34H57.19a0.16,0.16,0,0,0-.14.17v6.69a0.15,0.15,0,0,0,.11.18h0c4.62-.33,9.08-2.17,13.39-4"></path> <path class="g" d="M71.1,82.28A70.17,70.17,0,0,1,63.9,85c-0.16,0-.13.34,0,0.34H84.48a0.16,0.16,0,0,0,.14-0.17v-6.7a0.15,0.15,0,0,0-.11-0.18h0c-4.62.33-9.08,2.17-13.39,4"></path> <path class="h" d="M318,61.16c0,3,3.09,4.83,5,4.83h57L317.85,0S318,46,318,61.16Z"></path> <path class="i" d="M318,61.16V61h-8v0.17C310,68.84,316.72,74,323,74V66C321.07,66,318,64.21,318,61.16Z"></path> <path class="j" d="M317.85,0h-8c0,0.46.14,45.78,0.14,61h8C318,45.62,317.85,0,317.85,0Z"></path> <path class="k" d="M380,65.85c-18,0-57,.14-57,0.14v8h0c0.42,0,39.09-.12,57-0.14v-8Z"></path> <path class="l" d="M56.12,110.12a0.52,0.52,0,0,1,.52-0.5h0.69l11.49,12.21h0V110.42a0.52,0.52,0,0,1,.53-0.52h2.54a0.54,0.54,0,0,1,.53.52V129a0.52,0.52,0,0,1-.53.5H71.26L59.71,116.83h0v11.88a0.52,0.52,0,0,1-.52.52H56.64a0.54,0.54,0,0,1-.52-0.52V110.12Z"></path> <path class="l" d="M77.47,110.42A0.52,0.52,0,0,1,78,109.9H89.24a0.52,0.52,0,0,1,.53.52v2.27a0.52,0.52,0,0,1-.53.52H81.06v4.53h6.82a0.54,0.54,0,0,1,.53.52v2.29a0.52,0.52,0,0,1-.53.52H81.06v4.83h8.18a0.52,0.52,0,0,1,.53.53v2.27a0.52,0.52,0,0,1-.53.52H78a0.52,0.52,0,0,1-.52-0.52V110.42Z"></path> <path class="l" d="M92,110.56a0.48,0.48,0,0,1,.5-0.66H95a0.57,0.57,0,0,1,.5.39l2.87,11h0.11l4.39-11.38a0.45,0.45,0,0,1,.47-0.3h0.5a0.45,0.45,0,0,1,.47.3l4.42,11.38h0.11l2.82-11a0.57,0.57,0,0,1,.5-0.39h2.54a0.48,0.48,0,0,1,.5.66L110,129.12a0.53,0.53,0,0,1-.5.39h-0.44a0.47,0.47,0,0,1-.47-0.3l-4.94-12.51h-0.14l-4.89,12.51a0.47,0.47,0,0,1-.47.3H97.72a0.53,0.53,0,0,1-.5-0.39Z"></path> <path class="l" d="M117.41,126.53l1-1.71a0.64,0.64,0,0,1,.94-0.19c0.14,0.08,2.38,1.71,4.17,1.71a2.31,2.31,0,0,0,2.51-2.13c0-1.41-1.19-2.38-3.51-3.31-2.6-1-5.19-2.71-5.19-6,0-2.46,1.82-5.3,6.21-5.3a9.73,9.73,0,0,1,5.52,1.85,0.68,0.68,0,0,1,.17.91l-1,1.57a0.73,0.73,0,0,1-1,.33c-0.22-.14-2.32-1.52-3.84-1.52a2.2,2.2,0,0,0-2.43,1.93c0,1.3,1,2.18,3.26,3.09,2.68,1.08,5.77,2.68,5.77,6.24,0,2.84-2.46,5.47-6.35,5.47a8.88,8.88,0,0,1-6.08-2.15A0.55,0.55,0,0,1,117.41,126.53Z"></path> </svg> 