<?xml version="1.0" encoding="UTF-8"?> <svg xmlns="http://www.w3.org/2000/svg" xmlns:xlink="http://www.w3.org/1999/xlink" id="paper" viewBox="0 0 380 467"> <defs> <style>.cls-1{fill:#f7f8f9;}.cls-2{fill:none;isolation:isolate;}.cls-3{fill:#5f6370;}.cls-4{fill:#d7d7d7;}.cls-5{fill:#5699d2;}.cls-6{fill:#5983bf;}.cls-7{fill:#816d92;}.cls-8{fill:#a45464;}.cls-9{fill:#c23a3a;}.cls-10{fill:#fcfcfc;}.cls-11{fill:url(#radial-gradient);}.cls-12{fill:url(#linear-gradient);}.cls-13{fill:url(#linear-gradient-2);}</style> <radialGradient id="radial-gradient" cx="348.97" cy="73.13" r="12.82" gradientUnits="userSpaceOnUse"> <stop offset="0.38" stop-color="#eaeaeb"></stop> <stop offset="1" stop-color="#f7f8f9"></stop> </radialGradient> <linearGradient id="linear-gradient" x1="335.84" y1="42.5" x2="343.99" y2="42.5" gradientUnits="userSpaceOnUse"> <stop offset="0" stop-color="#f7f8f9"></stop> <stop offset="1" stop-color="#eaeaeb"></stop> </linearGradient> <linearGradient id="linear-gradient-2" x1="377.5" y1="85.94" x2="377.5" y2="77.97" xlink:href="#linear-gradient"></linearGradient> </defs> <title>paper</title> <path class="cls-1" d="M344,73.16C344,58,343.85,12,343.85,12H31a5,5,0,0,0-5,5V474a5,5,0,0,0,5,5H401a5,5,0,0,0,5-5V78H349C347.07,78,344,76.21,344,73.16Z" transform="translate(-26 -12)"></path> <path class="cls-2" transform="translate(-26 -12)"></path> <path class="cls-2" transform="translate(-26 -12)"></path> <path class="cls-3" d="M92,123.76A8.06,8.06,0,0,1,97.81,126a0.45,0.45,0,0,1,0,.67L96,128.61a0.42,0.42,0,0,1-.6,0,4.9,4.9,0,0,0-3.24-1.22,4.91,4.91,0,0,0,0,9.82A5.08,5.08,0,0,0,95.37,136a0.47,0.47,0,0,1,.62,0l1.87,2a0.48,0.48,0,0,1,0,.65A8.24,8.24,0,0,1,92,141,8.64,8.64,0,1,1,92,123.76Z" transform="translate(-26 -12)"></path> <path class="cls-3" d="M98.56,140.18L106.07,124a0.49,0.49,0,0,1,.41-0.26h0.24a0.49,0.49,0,0,1,.41.26l7.51,16.15a0.42,0.42,0,0,1-.41.62h-2.66a0.81,0.81,0,0,1-.84-0.6l-0.86-1.9h-6.53l-0.86,1.92a0.89,0.89,0,0,1-.86.58H99A0.42,0.42,0,0,1,98.56,140.18Zm9.87-5.14-1.82-4h0l-1.8,4h3.65Z" transform="translate(-26 -12)"></path> <path class="cls-3" d="M115.64,138.52l1.13-2a0.62,0.62,0,0,1,.82-0.14A7.17,7.17,0,0,0,121,137.7a1.5,1.5,0,0,0,1.66-1.44c0-1-.84-1.78-2.47-2.42-2.06-.82-4.66-2.42-4.66-5.3,0-2.38,1.85-4.78,5.54-4.78a8.92,8.92,0,0,1,5.14,1.8,0.61,0.61,0,0,1,.14.77l-1.22,1.85a0.68,0.68,0,0,1-.82.31,7.52,7.52,0,0,0-3.43-1.44,1.39,1.39,0,0,0-1.51,1.22c0,0.89.72,1.56,2.62,2.33s4.85,2.21,4.85,5.47c0,2.47-2.14,5-5.66,5a7.62,7.62,0,0,1-5.4-1.85A0.43,0.43,0,0,1,115.64,138.52Z" transform="translate(-26 -12)"></path> <path class="cls-3" d="M129.76,124.45a0.46,0.46,0,0,1,.46-0.46h9.94a0.46,0.46,0,0,1,.46.46v2.62a0.46,0.46,0,0,1-.46.46H133.5v3H139a0.47,0.47,0,0,1,.46.46v2.62a0.46,0.46,0,0,1-.46.46H133.5v3.24h6.65a0.46,0.46,0,0,1,.46.46v2.62a0.46,0.46,0,0,1-.46.46h-9.94a0.46,0.46,0,0,1-.46-0.46V124.45Z" transform="translate(-26 -12)"></path> <path class="cls-3" d="M148.16,138.52l1.13-2a0.62,0.62,0,0,1,.82-0.14,7.17,7.17,0,0,0,3.41,1.32,1.5,1.5,0,0,0,1.66-1.44c0-1-.84-1.78-2.47-2.42-2.06-.82-4.66-2.42-4.66-5.3,0-2.38,1.85-4.78,5.54-4.78a8.92,8.92,0,0,1,5.14,1.8,0.61,0.61,0,0,1,.14.77l-1.22,1.85a0.68,0.68,0,0,1-.82.31A7.52,7.52,0,0,0,153.4,127a1.39,1.39,0,0,0-1.51,1.22c0,0.89.72,1.56,2.62,2.33s4.85,2.21,4.85,5.47c0,2.47-2.14,5-5.66,5a7.62,7.62,0,0,1-5.4-1.85A0.43,0.43,0,0,1,148.16,138.52Z" transform="translate(-26 -12)"></path> <path class="cls-3" d="M164.44,127.53H161a0.46,0.46,0,0,1-.46-0.46v-2.62A0.46,0.46,0,0,1,161,124h10.66a0.46,0.46,0,0,1,.46.46v2.62a0.46,0.46,0,0,1-.46.46h-3.43v12.82a0.47,0.47,0,0,1-.46.46h-2.88a0.47,0.47,0,0,1-.46-0.46V127.53Z" transform="translate(-26 -12)"></path> <path class="cls-3" d="M174.27,124.45a0.47,0.47,0,0,1,.46-0.46h3a0.46,0.46,0,0,1,.46.46v9.72a3,3,0,1,0,6,0v-9.72a0.46,0.46,0,0,1,.46-0.46h3a0.47,0.47,0,0,1,.46.46v9.91a6.84,6.84,0,0,1-13.68,0v-9.91Z" transform="translate(-26 -12)"></path> <path class="cls-3" d="M191.82,124.45a0.45,0.45,0,0,1,.43-0.46h5.86a8.4,8.4,0,1,1,0,16.8h-5.86a0.45,0.45,0,0,1-.43-0.46V124.45Zm6,12.79a4.86,4.86,0,0,0,0-9.72h-2.3v9.72h2.3Z" transform="translate(-26 -12)"></path> <path class="cls-3" d="M212.22,132.71l-5.3-8a0.44,0.44,0,0,1,.38-0.7h3.12a0.48,0.48,0,0,1,.38.22l3.34,4.92,3.34-4.92a0.44,0.44,0,0,1,.38-0.22H221a0.44,0.44,0,0,1,.38.7l-5.38,8v7.66a0.47,0.47,0,0,1-.46.46h-2.86a0.46,0.46,0,0,1-.46-0.46v-7.63Z" transform="translate(-26 -12)"></path> <path class="cls-4" d="M82.12,176.8v-5H331.88v5H82.12Z" transform="translate(-26 -12)"></path> <path class="cls-4" d="M82.12,191.8v-5H325.65v5H82.12Z" transform="translate(-26 -12)"></path> <path class="cls-4" d="M82.12,206.8v-5h252v5h-252Z" transform="translate(-26 -12)"></path> <path class="cls-4" d="M82.12,221.8v-5H331.88v5H82.12Z" transform="translate(-26 -12)"></path> <path class="cls-4" d="M82.12,236.8v-5H335v5H82.12Z" transform="translate(-26 -12)"></path> <path class="cls-4" d="M82.12,251.8v-5h241v5h-241Z" transform="translate(-26 -12)"></path> <path class="cls-4" d="M82.12,266.8v-5h40.66v5H82.12Z" transform="translate(-26 -12)"></path> <path class="cls-4" d="M82.12,296.8v-5H316.28v5H82.12Z" transform="translate(-26 -12)"></path> <path class="cls-4" d="M82.12,311.8v-5H321v5H82.12Z" transform="translate(-26 -12)"></path> <path class="cls-4" d="M82.12,326.8v-5h252v5h-252Z" transform="translate(-26 -12)"></path> <path class="cls-4" d="M82.12,341.8v-5H330.63v5H82.12Z" transform="translate(-26 -12)"></path> <path class="cls-4" d="M82.12,356.8v-5H277v5H82.12Z" transform="translate(-26 -12)"></path> <path class="cls-5" d="M116,79.29a0.2,0.2,0,0,1,.2-0.21h1.28a0.21,0.21,0,0,1,.21.21v5.76h2.57a0.21,0.21,0,0,1,.21.21v1.18a0.21,0.21,0,0,1-.21.21h-4.06a0.2,0.2,0,0,1-.2-0.21V79.29" transform="translate(-26 -12)"></path> <path class="cls-5" d="M121.55,79.29a0.21,0.21,0,0,1,.21-0.21H123a0.21,0.21,0,0,1,.21.21v7.14a0.21,0.21,0,0,1-.21.21h-1.29a0.21,0.21,0,0,1-.21-0.21V79.29" transform="translate(-26 -12)"></path> <path class="cls-5" d="M125.11,79.29a0.2,0.2,0,0,1,.21-0.21h4.47a0.2,0.2,0,0,1,.21.21v1.18a0.2,0.2,0,0,1-.21.2h-3v1.55h2.46a0.21,0.21,0,0,1,.21.21V83.6a0.21,0.21,0,0,1-.21.21h-2.46v2.62a0.21,0.21,0,0,1-.2.21h-1.27a0.2,0.2,0,0,1-.21-0.21V79.29" transform="translate(-26 -12)"></path> <path class="cls-5" d="M132.16,80.67h-1.54a0.2,0.2,0,0,1-.2-0.2V79.29a0.2,0.2,0,0,1,.2-0.21h4.79a0.2,0.2,0,0,1,.2.21v1.18a0.2,0.2,0,0,1-.2.2h-1.54v5.76a0.21,0.21,0,0,1-.2.21h-1.3a0.21,0.21,0,0,1-.21-0.21V80.67" transform="translate(-26 -12)"></path> <path class="cls-5" d="M139.07,79.29a0.2,0.2,0,0,1,.21-0.21h4.47a0.2,0.2,0,0,1,.21.21v1.18a0.2,0.2,0,0,1-.21.2h-3V82h2.46a0.21,0.21,0,0,1,.21.21v1.18a0.2,0.2,0,0,1-.21.21h-2.46v1.46h3a0.21,0.21,0,0,1,.21.21v1.18a0.2,0.2,0,0,1-.21.21h-4.47a0.2,0.2,0,0,1-.21-0.21V79.29" transform="translate(-26 -12)"></path> <path class="cls-5" d="M145.4,79.29a0.2,0.2,0,0,1,.19-0.21h2.63a3.78,3.78,0,1,1,0,7.55h-2.63a0.2,0.2,0,0,1-.19-0.21V79.29M148.12,85a2.19,2.19,0,0,0,0-4.37h-1V85h1Z" transform="translate(-26 -12)"></path> <path class="cls-5" d="M153.22,79.29a0.21,0.21,0,0,1,.21-0.21h1.33a0.2,0.2,0,0,1,.21.21v4.37a1.34,1.34,0,1,0,2.68,0V79.29a0.2,0.2,0,0,1,.21-0.21h1.33a0.21,0.21,0,0,1,.21.21v4.46a3.08,3.08,0,0,1-6.15,0V79.29" transform="translate(-26 -12)"></path> <path class="cls-5" d="M164.46,79a3.62,3.62,0,0,1,2.61,1,0.2,0.2,0,0,1,0,.3l-0.84.87a0.19,0.19,0,0,1-.27,0,2.2,2.2,0,0,0-1.46-.55,2.21,2.21,0,0,0,0,4.41A2.28,2.28,0,0,0,166,84.5a0.21,0.21,0,0,1,.28,0l0.84,0.9a0.22,0.22,0,0,1,0,.29,3.7,3.7,0,0,1-2.62,1,3.89,3.89,0,1,1,0-7.77" transform="translate(-26 -12)"></path> <path class="cls-5" d="M167.41,86.36l3.38-7.26A0.22,0.22,0,0,1,171,79h0.11a0.22,0.22,0,0,1,.18.12l3.38,7.26a0.19,0.19,0,0,1-.18.28h-1.2a0.36,0.36,0,0,1-.38-0.27l-0.39-.85h-2.94l-0.39.86a0.4,0.4,0,0,1-.39.26h-1.19a0.19,0.19,0,0,1-.18-0.28M171.84,84L171,82.27h0L170.2,84h1.64Z" transform="translate(-26 -12)"></path> <path class="cls-5" d="M176.11,80.67h-1.54a0.2,0.2,0,0,1-.2-0.2V79.29a0.2,0.2,0,0,1,.2-0.21h4.79a0.2,0.2,0,0,1,.2.21v1.18a0.2,0.2,0,0,1-.2.2h-1.54v5.76a0.21,0.21,0,0,1-.2.21h-1.3a0.21,0.21,0,0,1-.21-0.21V80.67" transform="translate(-26 -12)"></path> <path class="cls-5" d="M180.64,79.29a0.21,0.21,0,0,1,.2-0.21h1.3a0.21,0.21,0,0,1,.21.21v7.14a0.21,0.21,0,0,1-.21.21h-1.3a0.21,0.21,0,0,1-.2-0.21V79.29" transform="translate(-26 -12)"></path> <path class="cls-5" d="M187.53,79a3.89,3.89,0,1,1-3.87,3.9,3.88,3.88,0,0,1,3.87-3.9m0,6a2.16,2.16,0,1,0-2.15-2.15A2.16,2.16,0,0,0,187.53,85Z" transform="translate(-26 -12)"></path> <path class="cls-5" d="M192.71,79.17a0.2,0.2,0,0,1,.21-0.19h0.27l4.31,4.14h0V79.29a0.2,0.2,0,0,1,.21-0.21H199a0.21,0.21,0,0,1,.21.21v7.26a0.2,0.2,0,0,1-.21.19h-0.17a0.32,0.32,0,0,1-.14-0.05l-4.26-4.28h0v4a0.2,0.2,0,0,1-.2.21h-1.28a0.21,0.21,0,0,1-.21-0.21V79.17" transform="translate(-26 -12)"></path> <path class="cls-5" d="M115.59,90.76a0.1,0.1,0,0,1,.1-0.1h0.5a0.11,0.11,0,0,1,.1.1v3h1.38a0.1,0.1,0,0,1,.1.1v0.44a0.1,0.1,0,0,1-.1.1h-2a0.1,0.1,0,0,1-.1-0.1V90.76" transform="translate(-26 -12)"></path> <path class="cls-5" d="M118.32,90.76a0.1,0.1,0,0,1,.1-0.1h2.2a0.1,0.1,0,0,1,.1.1V91.2a0.1,0.1,0,0,1-.1.1H119v0.89h1.33a0.11,0.11,0,0,1,.1.1v0.45a0.1,0.1,0,0,1-.1.1H119v0.94h1.6a0.1,0.1,0,0,1,.1.1v0.44a0.1,0.1,0,0,1-.1.1h-2.2a0.1,0.1,0,0,1-.1-0.1V90.76" transform="translate(-26 -12)"></path> <path class="cls-5" d="M121,94.29l1.68-3.63a0.1,0.1,0,0,1,.09-0.06h0.05a0.09,0.09,0,0,1,.09.06l1.66,3.63a0.1,0.1,0,0,1-.09.14H124a0.16,0.16,0,0,1-.16-0.11l-0.26-.58H122l-0.26.58a0.16,0.16,0,0,1-.16.11h-0.47a0.1,0.1,0,0,1-.09-0.14m2.33-1.15L122.79,92h0l-0.53,1.19h1.09Z" transform="translate(-26 -12)"></path> <path class="cls-5" d="M125.07,90.76a0.1,0.1,0,0,1,.1-0.1h1.28a1.89,1.89,0,1,1,0,3.78h-1.28a0.1,0.1,0,0,1-.1-0.1V90.76m1.31,3a1.23,1.23,0,0,0,0-2.47h-0.62v2.47h0.62Z" transform="translate(-26 -12)"></path> <path class="cls-5" d="M129.05,90.76a0.11,0.11,0,0,1,.1-0.1h0.5a0.11,0.11,0,0,1,.1.1v3.57a0.11,0.11,0,0,1-.1.1h-0.5a0.11,0.11,0,0,1-.1-0.1V90.76" transform="translate(-26 -12)"></path> <path class="cls-5" d="M130.74,90.7a0.1,0.1,0,0,1,.1-0.1H131L133.23,93h0V90.76a0.1,0.1,0,0,1,.1-0.1h0.5a0.11,0.11,0,0,1,.1.1v3.63a0.1,0.1,0,0,1-.1.1H133.7L131.44,92h0v2.32a0.1,0.1,0,0,1-.1.1h-0.49a0.11,0.11,0,0,1-.1-0.1V90.7" transform="translate(-26 -12)"></path> <path class="cls-5" d="M136.58,90.6a2,2,0,0,1,1.32.5,0.1,0.1,0,0,1,0,.15l-0.33.35a0.09,0.09,0,0,1-.14,0,1.22,1.22,0,0,0-.82-0.31,1.24,1.24,0,0,0,0,2.49,1.69,1.69,0,0,0,.64-0.13V93.19h-0.43a0.1,0.1,0,0,1-.1-0.1V92.66a0.1,0.1,0,0,1,.1-0.1h1a0.1,0.1,0,0,1,.1.1V94a0.1,0.1,0,0,1,0,.09,2.73,2.73,0,0,1-1.34.35,1.94,1.94,0,0,1,0-3.88" transform="translate(-26 -12)"></path> <path class="cls-5" d="M139.95,90.76a0.11,0.11,0,0,1,.1-0.1h0.5a0.11,0.11,0,0,1,.1.1v3.57a0.11,0.11,0,0,1-.1.1h-0.5a0.11,0.11,0,0,1-.1-0.1V90.76" transform="translate(-26 -12)"></path> <path class="cls-5" d="M141.64,90.7a0.1,0.1,0,0,1,.1-0.1h0.13L144.12,93h0V90.76a0.1,0.1,0,0,1,.1-0.1h0.5a0.11,0.11,0,0,1,.1.1v3.63a0.1,0.1,0,0,1-.1.1H144.6L142.34,92h0v2.32a0.1,0.1,0,0,1-.1.1h-0.49a0.11,0.11,0,0,1-.1-0.1V90.7" transform="translate(-26 -12)"></path> <path class="cls-5" d="M145.81,90.7a0.1,0.1,0,0,1,.1-0.1H146L148.29,93h0V90.76a0.1,0.1,0,0,1,.1-0.1h0.5a0.11,0.11,0,0,1,.1.1v3.63a0.1,0.1,0,0,1-.1.1h-0.13L146.51,92h0v2.32a0.1,0.1,0,0,1-.1.1h-0.49a0.11,0.11,0,0,1-.1-0.1V90.7" transform="translate(-26 -12)"></path> <path class="cls-5" d="M151.65,90.6a1.94,1.94,0,1,1-1.94,1.95,1.94,1.94,0,0,1,1.94-1.95m0,3.19a1.24,1.24,0,1,0-1.24-1.24A1.24,1.24,0,0,0,151.65,93.78Z" transform="translate(-26 -12)"></path> <path class="cls-5" d="M153.78,90.79a0.1,0.1,0,0,1,.09-0.14h0.55a0.1,0.1,0,0,1,.09.06l1,2.32h0l1-2.32a0.1,0.1,0,0,1,.09-0.06h0.55a0.1,0.1,0,0,1,.09.14l-1.67,3.63a0.1,0.1,0,0,1-.09.06h-0.05a0.1,0.1,0,0,1-.09-0.06l-1.67-3.63" transform="translate(-26 -12)"></path> <path class="cls-5" d="M157.09,94.29l1.68-3.63a0.1,0.1,0,0,1,.09-0.06h0.05a0.09,0.09,0,0,1,.09.06l1.66,3.63a0.1,0.1,0,0,1-.09.14h-0.47a0.16,0.16,0,0,1-.16-0.11l-0.26-.58h-1.61l-0.26.58a0.16,0.16,0,0,1-.16.11h-0.47a0.1,0.1,0,0,1-.09-0.14m2.33-1.15L158.88,92h0l-0.53,1.19h1.09Z" transform="translate(-26 -12)"></path> <path class="cls-5" d="M161.47,91.3h-0.83a0.1,0.1,0,0,1-.1-0.1V90.76a0.1,0.1,0,0,1,.1-0.1H163a0.1,0.1,0,0,1,.1.1V91.2a0.1,0.1,0,0,1-.1.1h-0.83v3a0.11,0.11,0,0,1-.1.1h-0.5a0.11,0.11,0,0,1-.1-0.1v-3" transform="translate(-26 -12)"></path> <path class="cls-5" d="M163.66,90.76a0.11,0.11,0,0,1,.1-0.1h0.5a0.11,0.11,0,0,1,.1.1v3.57a0.11,0.11,0,0,1-.1.1h-0.5a0.11,0.11,0,0,1-.1-0.1V90.76" transform="translate(-26 -12)"></path> <path class="cls-5" d="M167,90.6a1.94,1.94,0,1,1-1.94,1.95A1.94,1.94,0,0,1,167,90.6m0,3.19a1.24,1.24,0,1,0-1.24-1.24A1.24,1.24,0,0,0,167,93.78Z" transform="translate(-26 -12)"></path> <path class="cls-5" d="M169.67,90.7a0.1,0.1,0,0,1,.1-0.1h0.13L172.15,93h0V90.76a0.1,0.1,0,0,1,.1-0.1h0.5a0.11,0.11,0,0,1,.1.1v3.63a0.1,0.1,0,0,1-.1.1h-0.13L170.37,92h0v2.32a0.1,0.1,0,0,1-.1.1h-0.49a0.11,0.11,0,0,1-.1-0.1V90.7" transform="translate(-26 -12)"></path> <path class="cls-5" d="M175,90.76a0.1,0.1,0,0,1,.1-0.1h2.2a0.1,0.1,0,0,1,.1.1V91.2a0.1,0.1,0,0,1-.1.1h-1.6v1h1.33a0.11,0.11,0,0,1,.1.1v0.44a0.11,0.11,0,0,1-.1.1h-1.33v1.37a0.11,0.11,0,0,1-.1.1h-0.5a0.1,0.1,0,0,1-.1-0.1V90.76" transform="translate(-26 -12)"></path> <path class="cls-5" d="M179.75,90.6a1.94,1.94,0,1,1-1.94,1.95,1.94,1.94,0,0,1,1.94-1.95m0,3.19a1.24,1.24,0,1,0-1.24-1.24A1.24,1.24,0,0,0,179.75,93.78Z" transform="translate(-26 -12)"></path> <path class="cls-5" d="M182.39,90.76a0.1,0.1,0,0,1,.1-0.1H184a1.17,1.17,0,0,1,1.18,1.16,1.19,1.19,0,0,1-.8,1.09l0.74,1.37a0.1,0.1,0,0,1-.09.16H184.5a0.09,0.09,0,0,1-.09,0L183.69,93h-0.6v1.38a0.11,0.11,0,0,1-.1.1h-0.5a0.1,0.1,0,0,1-.1-0.1V90.76M184,92.38a0.55,0.55,0,0,0,.53-0.55A0.54,0.54,0,0,0,184,91.3H183.1v1.07H184Z" transform="translate(-26 -12)"></path> <path class="cls-5" d="M187.69,91.3h-0.83a0.1,0.1,0,0,1-.1-0.1V90.76a0.1,0.1,0,0,1,.1-0.1h2.36a0.1,0.1,0,0,1,.1.1V91.2a0.1,0.1,0,0,1-.1.1H188.4v3a0.11,0.11,0,0,1-.1.1h-0.5a0.11,0.11,0,0,1-.1-0.1v-3" transform="translate(-26 -12)"></path> <path class="cls-5" d="M189.88,90.76a0.1,0.1,0,0,1,.1-0.1h2.2a0.1,0.1,0,0,1,.1.1V91.2a0.1,0.1,0,0,1-.1.1h-1.6v0.89h1.33a0.11,0.11,0,0,1,.1.1v0.45a0.1,0.1,0,0,1-.1.1h-1.33v0.94h1.6a0.1,0.1,0,0,1,.1.1v0.44a0.1,0.1,0,0,1-.1.1H190a0.1,0.1,0,0,1-.1-0.1V90.76" transform="translate(-26 -12)"></path> <path class="cls-5" d="M193.06,90.7a0.1,0.1,0,0,1,.1-0.1h0.13L195.54,93h0V90.76a0.1,0.1,0,0,1,.1-0.1h0.5a0.11,0.11,0,0,1,.1.1v3.63a0.1,0.1,0,0,1-.1.1H196L193.76,92h0v2.32a0.1,0.1,0,0,1-.1.1h-0.49a0.11,0.11,0,0,1-.1-0.1V90.7" transform="translate(-26 -12)"></path> <path class="cls-5" d="M197.23,90.7a0.1,0.1,0,0,1,.1-0.1h0.13L199.71,93h0V90.76a0.1,0.1,0,0,1,.1-0.1h0.5a0.11,0.11,0,0,1,.1.1v3.63a0.1,0.1,0,0,1-.1.1h-0.13L197.93,92h0v2.32a0.1,0.1,0,0,1-.1.1h-0.49a0.11,0.11,0,0,1-.1-0.1V90.7" transform="translate(-26 -12)"></path> <path class="cls-5" d="M201.4,90.76a0.1,0.1,0,0,1,.1-0.1h2.2a0.1,0.1,0,0,1,.1.1V91.2a0.1,0.1,0,0,1-.1.1h-1.6v0.89h1.33a0.11,0.11,0,0,1,.1.1v0.45a0.1,0.1,0,0,1-.1.1H202.1v0.94h1.6a0.1,0.1,0,0,1,.1.1v0.44a0.1,0.1,0,0,1-.1.1h-2.2a0.1,0.1,0,0,1-.1-0.1V90.76" transform="translate(-26 -12)"></path> <path class="cls-5" d="M204.35,93.9l0.19-.33a0.12,0.12,0,0,1,.18,0,1.79,1.79,0,0,0,.82.33,0.45,0.45,0,0,0,.49-0.42,0.83,0.83,0,0,0-.69-0.65,1.32,1.32,0,0,1-1-1.17,1.08,1.08,0,0,1,1.21-1,1.9,1.9,0,0,1,1.08.36,0.13,0.13,0,0,1,0,.18l-0.21.31a0.14,0.14,0,0,1-.19.06,1.77,1.77,0,0,0-.75-0.3,0.43,0.43,0,0,0-.47.38,0.76,0.76,0,0,0,.64.6,1.42,1.42,0,0,1,1.13,1.22,1.14,1.14,0,0,1-1.24,1.07,1.74,1.74,0,0,1-1.19-.42,0.11,0.11,0,0,1,0-.16" transform="translate(-26 -12)"></path> <path class="cls-5" d="M207.28,93.9l0.19-.33a0.12,0.12,0,0,1,.18,0,1.79,1.79,0,0,0,.82.33,0.45,0.45,0,0,0,.49-0.42,0.83,0.83,0,0,0-.69-0.65,1.32,1.32,0,0,1-1-1.17,1.08,1.08,0,0,1,1.21-1,1.9,1.9,0,0,1,1.08.36,0.13,0.13,0,0,1,0,.18l-0.21.31a0.14,0.14,0,0,1-.19.06,1.77,1.77,0,0,0-.75-0.3,0.43,0.43,0,0,0-.47.38,0.76,0.76,0,0,0,.64.6,1.42,1.42,0,0,1,1.13,1.22,1.14,1.14,0,0,1-1.24,1.07,1.74,1.74,0,0,1-1.19-.42,0.11,0.11,0,0,1,0-.16" transform="translate(-26 -12)"></path> <path class="cls-5" d="M210.42,90.76a0.1,0.1,0,0,1,.1-0.1h2.2a0.1,0.1,0,0,1,.1.1V91.2a0.1,0.1,0,0,1-.1.1h-1.6v0.89h1.33a0.11,0.11,0,0,1,.1.1v0.45a0.1,0.1,0,0,1-.1.1h-1.33v0.94h1.6a0.1,0.1,0,0,1,.1.1v0.44a0.1,0.1,0,0,1-.1.1h-2.2a0.1,0.1,0,0,1-.1-0.1V90.76" transform="translate(-26 -12)"></path> <path class="cls-5" d="M213.6,90.76a0.1,0.1,0,0,1,.1-0.1h2.2a0.1,0.1,0,0,1,.1.1V91.2a0.1,0.1,0,0,1-.1.1h-1.6v0.89h1.33a0.11,0.11,0,0,1,.1.1v0.45a0.1,0.1,0,0,1-.1.1H214.3v0.94h1.6a0.1,0.1,0,0,1,.1.1v0.44a0.1,0.1,0,0,1-.1.1h-2.2a0.1,0.1,0,0,1-.1-0.1V90.76" transform="translate(-26 -12)"></path> <path class="cls-6" d="M110.52,81.13c-9.5.63-17.82,7.41-27.32,8A0.16,0.16,0,0,1,83.06,89V83.74a0.16,0.16,0,0,1,.13-0.17c9.5-.63,17.82-7.41,27.32-8a0.16,0.16,0,0,1,.14.17V81a0.16,0.16,0,0,1-.13.17" transform="translate(-26 -12)"></path> <path class="cls-7" d="M110.52,85.63c-9.5.63-17.82,7.41-27.32,8a0.16,0.16,0,0,1-.14-0.17V91.05a0.16,0.16,0,0,1,.13-0.17c9.5-.63,17.82-7.41,27.32-8a0.16,0.16,0,0,1,.14.17v2.46a0.16,0.16,0,0,1-.13.17" transform="translate(-26 -12)"></path> <path class="cls-8" d="M110.52,88.79c-9.5.63-17.82,7.41-27.32,8a0.16,0.16,0,0,1-.14-0.17V95.61a0.16,0.16,0,0,1,.13-0.17c9.5-.63,17.82-7.41,27.32-8a0.16,0.16,0,0,1,.14.17v1.06a0.16,0.16,0,0,1-.13.17" transform="translate(-26 -12)"></path> <path class="cls-5" d="M96.61,78.07c2.35-1,4.74-2,7.2-2.74,0.16,0,.13-0.34,0-0.34H83.19a0.16,0.16,0,0,0-.14.17v6.69a0.15,0.15,0,0,0,.16.18c4.62-.33,9.08-2.17,13.39-4" transform="translate(-26 -12)"></path> <path class="cls-9" d="M97.1,94.28c-2.35,1-4.74,2-7.2,2.74-0.16,0-.13.34,0,0.34h20.58a0.16,0.16,0,0,0,.14-0.17V90.49a0.15,0.15,0,0,0-.16-0.18c-4.62.33-9.08,2.17-13.39,4" transform="translate(-26 -12)"></path> <path class="cls-10" d="M344,73.16c0,3,3.09,4.83,5,4.83h57L343.85,12S344,58,344,73.16Z" transform="translate(-26 -12)"></path> <path class="cls-11" d="M344,73.16V73h-8v0.17C336,80.84,342.72,86,349,86V78C347.07,78,344,76.21,344,73.16Z" transform="translate(-26 -12)"></path> <path class="cls-12" d="M343.85,12h-8v0c0,0.46.14,45.78,0.14,61h8C344,57.62,343.85,12,343.85,12Z" transform="translate(-26 -12)"></path> <path class="cls-13" d="M406,77.85c-18.05,0-57,.14-57,0.14v8h0c0.42,0,39.09-.12,57-0.14v-8Z" transform="translate(-26 -12)"></path> </svg> 