<svg xmlns="http://www.w3.org/2000/svg" viewBox="0 0 100.38 100.38"><title>button_play</title><path d="M511.13,265.19,479.69,247a3.85,3.85,0,0,0-5.77,3.33v36.3a3.85,3.85,0,0,0,5.77,3.33l31.43-18.15A3.85,3.85,0,0,0,511.13,265.19Z" transform="translate(-439.98 -218.33)" style="fill:#fff"/><path d="M490.17,220.33A48.19,48.19,0,1,1,442,268.52a48.24,48.24,0,0,1,48.19-48.19m0-2a50.19,50.19,0,1,0,50.19,50.19,50.19,50.19,0,0,0-50.19-50.19Z" transform="translate(-439.98 -218.33)" style="fill:#fff"/></svg>