<?xml version="1.0" encoding="UTF-8"?> <svg xmlns="http://www.w3.org/2000/svg" xmlns:xlink="http://www.w3.org/1999/xlink" id="Layer_1" data-name="Layer 1" viewBox="0 0 925.11 206.77" width="161px" height="36px"> <defs> <style>.cls-1{fill:#aaa7a7;}.cls-17,.cls-2{fill:#f4b029;}.cls-2,.cls-3,.cls-4{fill-rule:evenodd;}.cls-3{fill:url(#linear-gradient);}.cls-4{fill:url(#linear-gradient-2);}.cls-5{fill:#4e4d4e;}.cls-6{fill:url(#linear-gradient-3);}.cls-7{fill:#d1d0d0;}.cls-8{fill:#4e4e4e;}.cls-9{fill:#ffb622;}.cls-10{fill:#404040;}.cls-11{fill:#2b282b;}.cls-12{fill:#414143;}.cls-13{fill:#5d5a5b;}.cls-14{fill:url(#linear-gradient-4);}.cls-15{opacity:0.3;fill:url(#radial-gradient);}.cls-16{fill:#fff;}.cls-18{fill:url(#linear-gradient-5);}.cls-19{fill:url(#linear-gradient-6);}.cls-20{fill:url(#linear-gradient-7);}.cls-21{fill:url(#linear-gradient-8);}.cls-22{fill:url(#linear-gradient-9);}.cls-23{fill:url(#linear-gradient-10);}.cls-24{fill:url(#linear-gradient-11);}.cls-25{fill:url(#linear-gradient-12);}.cls-26{fill:#231f20;}</style> <linearGradient id="linear-gradient" x1="67.71" y1="119.84" x2="67.71" y2="71.3" gradientUnits="userSpaceOnUse"> <stop offset="0"></stop> <stop offset="1" stop-color="#666667"></stop> </linearGradient> <linearGradient id="linear-gradient-2" x1="67.71" y1="178.77" x2="67.71" y2="130.22" xlink:href="#linear-gradient"></linearGradient> <linearGradient id="linear-gradient-3" x1="711.06" y1="145.18" x2="813.98" y2="42.27" gradientUnits="userSpaceOnUse"> <stop offset="0"></stop> <stop offset="0.5" stop-color="#fff"></stop> <stop offset="0.93"></stop> </linearGradient> <linearGradient id="linear-gradient-4" x1="744" y1="112.17" x2="781.33" y2="74.84" gradientUnits="userSpaceOnUse"> <stop offset="0" stop-color="#656263"></stop> <stop offset="0.5" stop-color="#fff"></stop> <stop offset="1" stop-color="#6e6c6c"></stop> </linearGradient> <radialGradient id="radial-gradient" cx="757.86" cy="96.33" r="26.43" gradientUnits="userSpaceOnUse"> <stop offset="0.3" stop-color="#3f76ff"></stop> <stop offset="0.51" stop-color="#e0cdcf" stop-opacity="0.7"></stop> <stop offset="0.87" stop-color="#828282" stop-opacity="0"></stop> </radialGradient> <linearGradient id="linear-gradient-5" x1="163.78" y1="72.13" x2="163.78" y2="56.98" gradientUnits="userSpaceOnUse"> <stop offset="0" stop-color="#f6be58"></stop> <stop offset="1" stop-color="#f4b029"></stop> </linearGradient> <linearGradient id="linear-gradient-6" x1="348.15" y1="94.33" x2="348.15" y2="56.12" xlink:href="#linear-gradient-5"></linearGradient> <linearGradient id="linear-gradient-7" x1="450.37" y1="97.07" x2="450.37" y2="56.98" xlink:href="#linear-gradient-5"></linearGradient> <linearGradient id="linear-gradient-8" x1="541.01" y1="96.89" x2="541.01" y2="56.98" gradientUnits="userSpaceOnUse"> <stop offset="0" stop-color="#fff" stop-opacity="0.5"></stop> <stop offset="1"></stop> </linearGradient> <linearGradient id="linear-gradient-9" x1="240.04" y1="85.7" x2="240.04" y2="56.12" xlink:href="#linear-gradient-5"></linearGradient> <linearGradient id="linear-gradient-10" x1="637.91" y1="94.15" x2="637.91" y2="-0.07" xlink:href="#linear-gradient-8"></linearGradient> <linearGradient id="linear-gradient-11" x1="861.29" y1="65.76" x2="861.29" y2="57.23" xlink:href="#linear-gradient-8"></linearGradient> <linearGradient id="linear-gradient-12" x1="274.51" y1="72.26" x2="289.95" y2="72.26" xlink:href="#linear-gradient-5"></linearGradient> </defs> <title>logo_ssi_color</title> <path class="cls-1" d="M450.43,175.89v28.65h-4.32V175.89h4.32Z" transform="translate(0 0.07)"></path> <path class="cls-1" d="M479.17,204.54v-30.6l20.89,21.86V175.89h4.32v30.39l-20.89-21.8v20.06h-4.32Z" transform="translate(0 0.07)"></path> <path class="cls-1" d="M541,180v24.59h-4.32V180h-6.59v-4.06h17.48V180H541Z" transform="translate(0 0.07)"></path> <path class="cls-1" d="M589.09,180H577.61v6.88h11.15v4.06H577.61v9.57h11.48v4.06H573.28V175.89h15.81V180Z" transform="translate(0 0.07)"></path> <path class="cls-1" d="M626.32,192.33l8.87,12.21H629.9l-8.18-11.73h-0.78v11.73h-4.32V175.89h5.06q5.68,0,8.2,2.13a7.84,7.84,0,0,1,2.78,6.27,8.14,8.14,0,0,1-1.74,5.23A7.77,7.77,0,0,1,626.32,192.33ZM620.94,189h1.37q6.14,0,6.14-4.69,0-4.4-6-4.4h-1.54V189Z" transform="translate(0 0.07)"></path> <path class="cls-1" d="M678.18,197.58H665.91l-3.19,7h-4.66l14.18-30.45,13.67,30.45h-4.73Zm-1.76-4.06-4.25-9.74-4.45,9.74h8.7Z" transform="translate(0 0.07)"></path> <path class="cls-1" d="M731.18,177.42v5.11a12,12,0,0,0-7.76-3.14,9.87,9.87,0,0,0-7.44,3.17,10.7,10.7,0,0,0-3,7.72,10.44,10.44,0,0,0,3,7.61,10,10,0,0,0,7.46,3.1,9.14,9.14,0,0,0,3.88-.74,11.13,11.13,0,0,0,1.85-1,21.48,21.48,0,0,0,2-1.52V203a15.56,15.56,0,0,1-7.79,2.11,14.38,14.38,0,0,1-10.48-4.29,14.21,14.21,0,0,1-4.32-10.43,14.71,14.71,0,0,1,3.62-9.76,14.41,14.41,0,0,1,11.52-5.25A14.68,14.68,0,0,1,731.18,177.42Z" transform="translate(0 0.07)"></path> <path class="cls-1" d="M766.39,180v24.59h-4.32V180h-6.59v-4.06H773V180h-6.57Z" transform="translate(0 0.07)"></path> <path class="cls-1" d="M803,175.89v28.65h-4.32V175.89H803Z" transform="translate(0 0.07)"></path> <path class="cls-1" d="M833.17,175.89l7.92,19.85,8-19.85h4.73L841,206.69l-12.56-30.8h4.73Z" transform="translate(0 0.07)"></path> <path class="cls-1" d="M895.08,180H883.59v6.88h11.15v4.06H883.59v9.57h11.49v4.06H879.27V175.89h15.81V180Z" transform="translate(0 0.07)"></path> <polygon class="cls-2" points="64.19 24.51 11.5 24.51 0 24.51 0 36.81 0 73.05 11.5 73.05 11.5 36.81 64.19 36.81 64.19 24.51"></polygon> <polygon class="cls-3" points="88.31 71.3 35.61 71.3 35.61 83.59 88.31 83.59 88.31 119.84 99.8 119.84 99.8 83.59 99.8 71.3 88.31 71.3"></polygon> <polygon class="cls-4" points="88.31 166.47 35.61 166.47 35.61 178.77 88.31 178.77 99.8 178.77 99.8 166.47 99.8 130.22 88.31 130.22 88.31 166.47"></polygon> <polygon class="cls-2" points="64.19 132.14 11.5 132.14 0 132.14 0 119.84 0 83.59 11.5 83.59 11.5 119.84 64.19 119.84 64.19 132.14"></polygon> <circle class="cls-5" cx="762.52" cy="93.72" r="74.2"></circle> <circle class="cls-6" cx="762.52" cy="93.72" r="72.77"></circle> <circle class="cls-7" cx="762.8" cy="93.44" r="67.06"></circle> <circle class="cls-8" cx="762.52" cy="94.01" r="65.35"></circle> <circle class="cls-9" cx="762.38" cy="93.87" r="60.64"></circle> <circle class="cls-10" cx="762.66" cy="93.87" r="59.21"></circle> <circle class="cls-11" cx="762.66" cy="93.87" r="48.94"></circle> <circle class="cls-12" cx="762.52" cy="93.72" r="40.24"></circle> <circle class="cls-13" cx="762.69" cy="93.81" r="25"></circle> <path class="cls-11" d="M780.68,76.64a24.83,24.83,0,0,0-41.2,26.18A29.2,29.2,0,0,0,780.68,76.64Z" transform="translate(0 0.07)"></path> <path class="cls-14" d="M762.66,67.11a26.4,26.4,0,1,0,26.4,26.4A26.4,26.4,0,0,0,762.66,67.11Zm-0.14,51.3a24.83,24.83,0,1,1,24.83-24.83A24.83,24.83,0,0,1,762.52,118.41Z" transform="translate(0 0.07)"></path> <circle class="cls-15" cx="757.86" cy="96.33" r="26.43"></circle> <circle class="cls-16" cx="753.56" cy="88.85" r="4.99"></circle> <circle class="cls-16" cx="760.4" cy="75.83" r="2.54"></circle> <path class="cls-17" d="M170.26,70.86c-4.72,0-10.72.43-10.72,7.72,0,17.16,41.61,1.29,41.61,39,0,21.66-14.59,32.6-33.68,32.6H134V136.49h26.17c8.58,0,14.16-.64,14.16-11.15,0-17.16-44.61-3.22-44.61-38.39,0-19.52,13.73-29.81,32.17-29.81h29.6V70.86H170.26Z" transform="translate(0 0.07)"></path> <path class="cls-17" d="M290,135.63c0,8.15-1.72,15.44-11.37,15.44-6.43,0-9.65-2.36-12.87-7.72l-32.6-52.77h-0.43v59.63H217.24V73.64c0-7.51,1.5-17.37,16.09-17.37,9.22,0,13.73,4.5,18.45,12l22.31,35.39h0.43V56.27H290v79.36Z" transform="translate(0 0.07)"></path> <path class="cls-17" d="M304,150.22l24-75.29c3.43-10.94,7.51-18.66,20.38-18.66,11.37,0,15.44,8.37,18.45,17.8l25.1,76.14H361l-5.36-17.16H323.91l-5.79,17.16H304Zm24.24-30h23.38L340.43,82.44H340Z" transform="translate(0 0.07)"></path> <path class="cls-17" d="M403.78,204.69V57.13h37.75c35,0,56,17.37,56,48.48,0,38.61-25.53,44.61-58.13,44.61h-4.72v54.47H403.78Zm30.89-67.34h4.5c21.23,0,25.31-17.16,25.31-35C464.48,85.66,457.83,70,439,70h-4.29v67.35Z" transform="translate(0 0.07)"></path> <path d="M550.57,70.86c-4.72,0-10.72.43-10.72,7.72,0,17.16,41.61,1.29,41.61,39,0,21.66-14.59,32.6-33.68,32.6H514.32V136.49h26.17c8.58,0,14.16-.64,14.16-11.15,0-17.16-44.61-3.22-44.61-38.39,0-19.52,13.73-29.81,32.17-29.81h29.6V70.86H550.57Z" transform="translate(0 0.07)"></path> <path d="M596.4,150.22V0.07h30.89V89.73h21.23V57.13h30.89v93.09H648.52V103.46H627.29v46.76H596.4Z" transform="translate(0 0.07)"></path> <path d="M840.75,57.13h84.36V69.86H897.87v80.36H867V69.86H840.75V57.13Z" transform="translate(0 0.07)"></path> <path class="cls-18" d="M170.26,70.71c-2.56,0-5.49.14-7.65,1.42q-13.45-2.24-26.55-4.65C141.81,60.55,151,57,161.9,57h29.6V70.71H170.26Z" transform="translate(0 0.07)"></path> <path class="cls-19" d="M366.81,73.93c-3-9.44-7.08-17.8-18.45-17.8-12.87,0-16.94,7.72-20.38,18.66l-5.22,16.35q7,0.53,14.15,1L340,82.29h0.43l3,10.3q14.92,1,30.06,1.73Z" transform="translate(0 0.07)"></path> <path class="cls-20" d="M441.53,57H403.78V95.64q15.34,0.56,30.89.89V69.85H439c16.88,0,24,12.53,25.29,27.14q9.44,0.08,18.94.08,6.9,0,13.77,0C493.43,71.23,473.2,57,441.53,57Z" transform="translate(0 0.07)"></path> <path class="cls-21" d="M539.84,78.43c0-7.29,6-7.72,10.72-7.72H571.8V57H542.2C523.76,57,510,67.28,510,86.8a30.15,30.15,0,0,0,1.56,10.09q30.56-.39,60.4-1.61C559.71,86.38,539.84,90.29,539.84,78.43Z" transform="translate(0 0.07)"></path> <path class="cls-22" d="M251.77,68.14c-4.72-7.51-9.22-12-18.45-12-14.59,0-16.09,9.87-16.09,17.37v6.76q22.42,3,45.6,5.44Z" transform="translate(0 0.07)"></path> <path class="cls-23" d="M596.4-.07V94.15q42.42-2.22,83-6V57H648.52v32.6H627.29V-0.07H596.4Z" transform="translate(0 0.07)"></path> <path class="cls-24" d="M840.75,57.23v8.53q21-4,41.09-8.53H840.75Z" transform="translate(0 0.07)"></path> <path class="cls-25" d="M290,56.12H274.51V86.9q7.68,0.77,15.44,1.49V56.12Z" transform="translate(0 0.07)"></path> <path class="cls-26" d="M921.1,43.89A6.92,6.92,0,0,1,919,49a7.12,7.12,0,0,1-10.1,0,6.93,6.93,0,0,1-2.08-5.08,6.69,6.69,0,0,1,.68-3,7,7,0,0,1,1.91-2.46,6.85,6.85,0,0,1,4.48-1.65,7,7,0,0,1,3,.62A6.81,6.81,0,0,1,919.93,40,7,7,0,0,1,921.1,43.89Zm-7.18-6.1a5.62,5.62,0,0,0-4.18,1.8A6,6,0,0,0,908,43.88a6,6,0,0,0,1.75,4.34,5.88,5.88,0,0,0,8.46,0,6,6,0,0,0,1.74-4.34,6.56,6.56,0,0,0-.69-2.81,5.72,5.72,0,0,0-1.8-2.16A6,6,0,0,0,913.92,37.79Zm0.75,6.79L917.35,48h-1.92L913,44.76V48H911.4V39.79H913a4.13,4.13,0,0,1,2.52.61,2.28,2.28,0,0,1,.88,1.86,2.41,2.41,0,0,1-.47,1.43,2.25,2.25,0,0,1-1.2.85ZM913,43.45h0.27q1.69,0,1.69-1.17t-1.64-1.09H913v2.25Z" transform="translate(0 0.07)"></path> </svg> 